<svg width="12" height="10" viewBox="0 0 12 10" fill="none" xmlns="http://www.w3.org/2000/svg">
<g clip-path="url(#clip0_0_424)">
<path d="M0.6 0.625C0.931313 0.625 1.2 0.904883 1.2 1.25V6.25H5.4V3.125C5.4 2.7793 5.66813 2.5 6 2.5H10.2C11.1938 2.5 12 3.32227 12 4.375V8.75C12 9.0957 11.7319 9.375 11.4 9.375C11.0681 9.375 10.8 9.0957 10.8 8.75V8.125H1.2V8.75C1.2 9.0957 0.931313 9.375 0.6 9.375C0.268688 9.375 0 9.0957 0 8.75V1.25C0 0.904883 0.268688 0.625 0.6 0.625ZM1.8 4.0625C1.8 3.19922 2.47125 2.5 3.3 2.5C4.12875 2.5 4.8 3.19922 4.8 4.0625C4.8 4.92578 4.12875 5.625 3.3 5.625C2.47125 5.625 1.8 4.92578 1.8 4.0625Z" fill="white"/>
</g>
<defs>
<clipPath id="clip0_0_424">
<rect width="12" height="10" fill="white"/>
</clipPath>
</defs>
</svg>
