<svg width="24" height="24" viewBox="0 0 24 24" fill="none" xmlns="http://www.w3.org/2000/svg">
<path d="M17.625 14.9688C16.5137 14.9688 15.5262 15.5313 14.9108 16.3973L9.6132 13.5772C9.70208 13.2627 9.75 12.93 9.75 12.5859C9.75 12.1199 9.66229 11.6748 9.50348 11.2675L15.0557 7.79254C15.6752 8.54996 16.5971 9.03125 17.625 9.03125C19.486 9.03125 21 7.45414 21 5.51562C21 3.57711 19.486 2 17.625 2C15.764 2 14.25 3.57711 14.25 5.51562C14.25 5.96367 14.331 6.3923 14.4784 6.78672L8.91225 10.2703C8.2932 9.53523 7.38529 9.07031 6.375 9.07031C4.51403 9.07031 3 10.6474 3 12.5859C3 14.5245 4.51403 16.1016 6.375 16.1016C7.50458 16.1016 8.5062 15.5205 9.11914 14.6302L14.4014 17.4421C14.303 17.7716 14.25 18.1216 14.25 18.4844C14.25 20.4229 15.764 22 17.625 22C19.486 22 21 20.4229 21 18.4844C21 16.5459 19.486 14.9688 17.625 14.9688ZM17.625 3.17188C18.8657 3.17188 19.875 4.22328 19.875 5.51562C19.875 6.80797 18.8657 7.85938 17.625 7.85938C16.3844 7.85938 15.375 6.80797 15.375 5.51562C15.375 4.22328 16.3844 3.17188 17.625 3.17188ZM6.375 14.9297C5.13435 14.9297 4.125 13.8783 4.125 12.5859C4.125 11.2936 5.13435 10.2422 6.375 10.2422C7.61565 10.2422 8.625 11.2936 8.625 12.5859C8.625 13.8783 7.61565 14.9297 6.375 14.9297ZM17.625 20.8281C16.3844 20.8281 15.375 19.7767 15.375 18.4844C15.375 17.192 16.3844 16.1406 17.625 16.1406C18.8657 16.1406 19.875 17.192 19.875 18.4844C19.875 19.7767 18.8657 20.8281 17.625 20.8281Z" fill="white"/>
</svg>
