<svg width="75" height="15" viewBox="0 0 75 15" fill="none" xmlns="http://www.w3.org/2000/svg">
<g clip-path="url(#clip0_246_32758)">
<path d="M11.3079 10.4464H2.91729L2.08379 13.7804H12.1414L11.3079 10.4464Z" fill="white"/>
<path d="M8.80741 2.94513H11.0637L8.80741 0.6888V2.94513Z" fill="white"/>
<path d="M2.91723 0.444403V6.27894H11.3078V3.77842H7.97383V0.444403H2.91723Z" fill="white"/>
<path d="M12.9749 4.61197H12.1414V6.27898H12.9749V7.11249C12.2761 7.11249 1.92345 7.11249 1.25026 7.11249V6.27898H2.08376V4.61197H1.25026C0.560838 4.61197 0 5.17281 0 5.86223V12.1135H1.64137L2.2665 9.61301H11.9587L12.5838 12.1135H14.2252V5.86223C14.2252 5.17281 13.6643 4.61197 12.9749 4.61197ZM10.8911 8.7795H10.0576V7.946H10.8911V8.7795ZM12.5581 8.7795H11.7246V7.946H12.5581V8.7795Z" fill="white"/>
</g>
<g clip-path="url(#clip1_246_32758)">
<path d="M42.6364 12.3291H32.3672C32.0536 12.3291 31.7986 12.5861 31.7986 12.8977V13.6565C31.7986 13.9702 32.0556 14.2251 32.3672 14.2251H42.6324C42.946 14.2251 43.201 13.9681 43.201 13.6565V12.8977C43.2071 12.582 42.9501 12.3291 42.6364 12.3291Z" fill="white"/>
<path d="M37.1042 11.3113C37.2155 11.4226 37.3612 11.4793 37.5049 11.4793C37.6506 11.4793 37.7963 11.4226 37.9055 11.3113L41.7947 7.42217C42.0153 7.20163 42.0153 6.84144 41.7947 6.61682L41.2565 6.07857C41.0359 5.858 40.6757 5.858 40.4511 6.07857L38.4519 8.07982V0.568615C38.4519 0.25496 38.1949 0 37.8833 0H37.1245C36.8108 0 36.5559 0.252923 36.5559 0.568615V8.08183L34.5546 6.08059C34.3341 5.86004 33.9719 5.86004 33.7493 6.08059L33.211 6.61883C32.9905 6.83938 32.9905 7.2016 33.211 7.42419L37.1042 11.3113Z" fill="white"/>
</g>
<path d="M67.8874 3.55627C68.6239 3.55627 69.221 2.95919 69.221 2.22266C69.221 1.48613 68.6239 0.889052 67.8874 0.889052C67.1508 0.889052 66.5538 1.48613 66.5538 2.22266C66.5538 2.95919 67.1508 3.55627 67.8874 3.55627Z" fill="white"/>
<path d="M67.8874 8.44618C68.6239 8.44618 69.221 7.8491 69.221 7.11257C69.221 6.37604 68.6239 5.77896 67.8874 5.77896C67.1508 5.77896 66.5538 6.37604 66.5538 7.11257C66.5538 7.8491 67.1508 8.44618 67.8874 8.44618Z" fill="white"/>
<path d="M67.8874 13.3361C68.6239 13.3361 69.221 12.739 69.221 12.0025C69.221 11.266 68.6239 10.6689 67.8874 10.6689C67.1508 10.6689 66.5538 11.266 66.5538 12.0025C66.5538 12.739 67.1508 13.3361 67.8874 13.3361Z" fill="white"/>
<defs>
<clipPath id="clip0_246_32758">
<rect width="14.0824" height="14.0824" fill="white" transform="scale(1.01014)"/>
</clipPath>
<clipPath id="clip1_246_32758">
<rect width="14.0824" height="14.0824" fill="white" transform="translate(30.3873) scale(1.01014)"/>
</clipPath>
</defs>
</svg>
