<svg width="139" height="43" viewBox="0 0 139 43" fill="none" xmlns="http://www.w3.org/2000/svg">
<path d="M25.0903 37.9412H30.1083L30.1083 12.1412H35.1264V37.9412H40.1444V3.54118L45.1625 3.54118V37.9412H50.1805V0H55.1986V37.9412H60.2166V3.54118L65.2347 3.54118V37.9412H80.2888V12.1412H85.3069V37.9412H90.3249V3.54118L95.343 3.54118V37.9412H100.361V0H105.379V37.9412H110.397V0H115.415V37.9412H120.433V12.1412H125.451V37.9412H130.469V3.54118L135.487 3.54118V37.9412H139V43H0V12.1412H5.01805L5.01805 37.9412H10.0361L10.0361 3.54118L15.0542 3.54118L15.0542 37.9412H20.0722L20.0722 0H25.0903L25.0903 37.9412Z" fill="white"/>
</svg>
