<svg width="48" height="72" viewBox="0 0 48 72" fill="none" xmlns="http://www.w3.org/2000/svg">
<path d="M42.1306 55.7985L35.4551 53.4973C32.0522 52.3226 29.7929 49.123 29.7929 45.5541C35.3512 43.242 39.2584 37.7598 39.2584 31.3652V30.7243C41.527 30.7243 43.4045 28.96 43.5473 26.6945L44.2316 15.8868C44.5916 10.1765 41.0459 4.9457 35.6103 3.17209L27.7788 0.61797C25.2557 -0.20599 22.5371 -0.20599 20.014 0.61797L12.1825 3.17209C6.74685 4.9457 3.20119 10.1765 3.56118 15.8868L4.24549 26.6945C4.38825 28.96 6.26582 30.7243 8.53443 30.7243V31.3652C8.53443 37.7598 12.4416 43.242 17.9999 45.5525C17.9999 48.884 16.0323 51.8944 13.0034 53.235C12.5278 53.4458 12.8718 53.3132 5.6622 55.7985C2.29654 56.9587 0 60.1349 0 63.7401V70.7586C0 71.4441 0.555824 71.9999 1.24137 71.9999H46.5514C47.237 71.9999 47.7928 71.4441 47.7928 70.7586V63.7401C47.7928 60.1557 45.518 56.9671 42.1306 55.7985Z" fill="#E0B7A3"/>
<path d="M35.6103 3.17234L27.7788 0.618217C25.2558 -0.205743 22.5372 -0.205743 20.0141 0.618217L12.1826 3.17234C6.74691 4.94595 3.20124 10.1768 3.56124 15.8871L4.24554 26.6948C4.3883 28.9603 6.26588 30.7246 8.53448 30.7246C8.53448 29.3327 8.53448 25.9003 8.53448 22.6557C14.4229 21.4546 19.7196 18.6091 23.8965 14.5867C28.0731 18.6089 33.3695 21.4545 39.2584 22.6557V30.7246C41.527 30.7246 43.4046 28.9603 43.5474 26.6948L44.2317 15.8871C44.5917 10.1768 41.046 4.94595 35.6103 3.17234Z" fill="#FF6D7A"/>
<path d="M34.8517 53.2615C35.5579 53.5657 35.6103 54.547 34.9414 54.9264C30.3134 57.5513 25.6685 58.8891 24.2999 59.2526C24.0361 59.324 23.7614 59.324 23.4976 59.2526C22.1318 58.8891 17.4781 57.5538 12.8439 54.93C12.1745 54.5509 12.2263 53.5684 12.9331 53.2647C13.4661 53.0357 14.0553 52.7211 14.6792 52.2451C18.498 54.4982 22.4516 55.6339 23.5797 55.9349C23.7877 55.9892 24.0068 55.9909 24.2147 55.9349C25.3443 55.6339 29.2931 54.4966 33.1072 52.2404C33.7324 52.718 34.3207 53.0327 34.8517 53.2615Z" fill="#C79A83"/>
<path d="M33.5784 3.8627C32.0027 8.22829 29.6122 12.17 26.5883 15.3871C26.1251 15.8799 25.3568 15.9169 24.8505 15.4686C24.5077 15.1651 24.1898 14.8698 23.8963 14.5866C28.3855 10.2216 30.5625 5.21735 31.6332 1.87495L32.7973 2.2545C33.4659 2.47268 33.8172 3.2012 33.5784 3.8627Z" fill="#FE4F60"/>
<path d="M31.6333 1.87511C31.5562 2.11454 31.4738 2.36281 31.3852 2.61884C31.2402 3.0378 30.8188 3.30315 30.3801 3.23829C28.4738 2.9565 26.5191 3.11694 24.6692 3.72165L16.8377 6.27577C11.402 8.04938 7.85561 13.2802 8.21638 18.9905C8.6161 25.3176 8.53448 22.6727 8.53448 30.7246C6.26588 30.7246 4.3883 28.9603 4.24554 26.6948L3.56124 15.8871C3.20124 10.1768 6.74691 4.94595 12.1826 3.17234L20.0141 0.618217C22.5371 -0.205743 25.2557 -0.205743 27.7788 0.618217L31.6333 1.87511Z" fill="#FF8C95"/>
<path d="M20.362 41.2534C22.9036 42.858 20.9525 46.7423 18.1642 45.6199C12.4956 43.3379 8.53457 37.801 8.53457 31.3654V23.6534C8.53457 23.0786 8.92777 22.5779 9.48717 22.4458C9.69153 22.3976 9.90147 22.3457 10.1164 22.2902C11.6715 21.888 13.1897 23.056 13.1897 24.6623V28.2621C13.1896 33.8481 16.1145 38.5719 20.362 41.2534Z" fill="#E6C4AF"/>
<path d="M38.6377 72H10.2413C8.67736 69.9497 7.88304 67.3908 8.05652 64.783C5.59783 62.7313 4.13782 59.6676 3.75516 56.742C4.33861 56.3541 4.97791 56.0344 5.66222 55.7986C5.66222 55.7986 12.7861 53.3313 13.0034 53.2351C18.1278 63.583 27.7591 70.2905 38.6377 72Z" fill="#FFAA64"/>
<path d="M23.8964 24.3625C23.2108 24.3625 22.655 23.8067 22.655 23.1211V21.7246C22.655 21.0391 23.2108 20.4832 23.8964 20.4832C24.5819 20.4832 25.1377 21.0391 25.1377 21.7246V23.1211C25.1377 23.8067 24.5819 24.3625 23.8964 24.3625Z" fill="#FE4F60"/>
<path d="M39.9567 34.7589C46.4674 49.4942 26.9679 55.2018 24.2148 55.935C24.0061 55.9906 23.7886 55.9906 23.5799 55.935C20.8337 55.2031 1.31093 49.5185 7.8362 34.7589C8.64945 32.9139 11.1915 32.7883 12.1919 34.4982L12.3874 34.8334C13.7406 37.1396 17.1532 36.9694 18.2544 34.5107L18.4328 34.1103C19.3965 31.9565 21.5363 30.5693 23.8964 30.5693C26.258 30.5693 28.3949 31.9565 29.36 34.1103L29.5385 34.5107C30.6344 36.9616 34.0505 37.1459 35.4055 34.8334L35.601 34.4982C36.6129 32.7748 39.1524 32.9267 39.9567 34.7589Z" fill="#CBE3FA"/>
<path d="M24.2868 54.628C24.9071 54.8705 24.8582 55.7623 24.2148 55.9348C24.0069 55.9905 23.7878 55.9891 23.5799 55.9348C20.8333 55.2024 1.31122 49.5188 7.83618 34.7587C8.42319 33.4268 10.0346 32.8781 11.3181 33.626C12.0665 34.062 12.3712 34.9864 12.0703 35.7986C8.08895 46.5428 18.1788 52.24 24.2868 54.628Z" fill="#EEF7FF"/>
<path d="M23.921 30.5692C24.7424 30.5726 25.111 31.5901 24.5092 32.1492C23.3617 33.2154 22.967 34.4254 22.9097 34.5104C22.3401 35.7822 21.11 36.473 19.8643 36.4654C18.6599 36.458 17.8834 35.1597 18.433 34.1101C19.394 31.9622 21.5367 30.5595 23.921 30.5692Z" fill="#EEF7FF"/>
<path d="M11.1412 66.42C11.0974 67.9281 11.3753 69.4124 11.9358 70.7825C12.1734 71.363 11.7582 72 11.131 72H10.2415C8.67754 69.9497 7.88322 67.3908 8.0567 64.783C5.59801 62.7313 4.138 59.6676 3.75535 56.742C4.33879 56.3541 4.9781 56.0344 5.6624 55.7986C5.6624 55.7986 12.7863 53.3313 13.0036 53.2351C13.1752 53.5827 13.3631 53.9481 13.5684 54.3285C13.8174 54.7899 13.6076 55.3849 13.0748 55.5705C8.68468 57.0863 7.57675 62.7167 10.8583 65.7619C11.0414 65.9319 11.1483 66.1702 11.1412 66.42Z" fill="#FFBD7B"/>
<path d="M14.3286 68.5241C14.2657 69.2486 13.5946 69.7701 12.8777 69.6414C11.4262 69.3821 10.077 68.9136 8.84854 68.2704C8.50825 68.0923 8.27068 67.7658 8.2024 67.3878C8.05468 66.5707 7.99727 65.6752 8.05654 64.7831C9.52757 65.995 11.312 66.8391 13.3246 67.1991C13.9515 67.3105 14.3838 67.8893 14.3286 68.5241Z" fill="#FA9A4B"/>
</svg>
