<svg width="24" height="24" viewBox="0 0 24 24" fill="none" xmlns="http://www.w3.org/2000/svg">
<g clip-path="url(#clip0_0_777)">
<path d="M23.1328 13.2743H17.7633C17.8097 13.2003 17.8544 13.125 17.8956 13.0473C18.5962 11.7277 18.3878 10.1625 17.4919 9.0742L15.6536 5.83116C14.6245 3.92508 12.8551 3.75103 11.1438 3.5827C10.8985 3.55856 10.6448 3.53362 10.3953 3.50386C8.66468 3.297 8.32694 3.11166 7.07022 2.42212C6.92177 2.34066 6.76094 2.25244 6.58465 2.15695C6.60986 1.98562 6.59679 1.80919 6.54424 1.63823C6.45157 1.33673 6.2478 1.09012 5.97227 0.944765L4.45839 0.138046C4.18094 -0.00937544 3.86214 -0.0399379 3.56088 0.0522183C3.25919 0.144421 3.01193 0.348187 2.86474 0.625687L0.536551 5.00859C0.389082 5.28567 0.358519 5.60423 0.450582 5.90569C0.542691 6.20733 0.746269 6.45469 1.02382 6.60211L2.53718 7.40859C2.71277 7.50187 2.90149 7.54608 3.08777 7.54608C3.50983 7.54603 3.91891 7.31892 4.13083 6.92091L4.15333 6.87853C4.63104 7.17487 4.91083 7.455 5.16569 7.86909C5.91499 9.08456 6.6475 9.43861 7.35593 9.78094C7.6023 9.9 7.83503 10.0125 8.07789 10.164L11.1528 12.0815C11.1755 12.0956 11.1986 12.1097 11.2218 12.1237C11.3109 12.5342 11.4699 12.9232 11.6905 13.2742H6.81785C6.55896 13.2742 6.3491 13.4841 6.3491 13.743V22.5228C6.3491 23.3373 7.01135 24 7.82543 24H22.1253C22.9393 24 23.6015 23.3373 23.6015 22.5228V13.743C23.6015 13.4841 23.3917 13.2743 23.1328 13.2743ZM17.0676 12.6077C16.9354 12.8568 16.7664 13.0801 16.5649 13.2743H12.8901C12.6414 13.0353 12.4426 12.751 12.304 12.4375C12.3417 12.432 12.3795 12.4246 12.4173 12.4145C12.7032 12.3375 12.9336 12.1379 13.102 11.8211C13.4181 11.2263 13.2912 10.2609 12.8534 9.48506C13.6675 8.66742 14.9295 8.46426 15.9721 9.01861C17.2618 9.70636 17.7532 11.3164 17.0676 12.6077ZM12.273 8.74237L10.7217 7.13156C10.7173 7.12622 10.7132 7.12106 10.7093 7.11619C10.7638 7.09509 10.8478 7.07016 10.9733 7.04906C12.2032 6.84337 12.5569 7.18945 13.1296 8.14458C12.8206 8.29847 12.5317 8.49872 12.273 8.74237ZM3.30307 6.48075C3.24161 6.5962 3.09227 6.64205 2.97747 6.58102L1.46411 5.77453C1.46393 5.77444 1.46374 5.77434 1.46355 5.77425C1.38775 5.73398 1.35808 5.6678 1.34716 5.63194C1.33619 5.59608 1.32382 5.52469 1.36427 5.4488L3.69283 1.06523C3.73305 0.98939 3.7991 0.959718 3.83486 0.948796C3.85202 0.943593 3.87729 0.938015 3.90724 0.938015C3.94005 0.938015 3.97849 0.944671 4.01805 0.965671L5.53319 1.77309C5.60777 1.81242 5.63725 1.87805 5.64818 1.91362C5.65929 1.94972 5.67185 2.02162 5.63125 2.09789L3.30307 6.48075ZM11.6484 11.2858L8.57397 9.36858C8.28841 9.19041 8.02169 9.06155 7.76383 8.93691C7.09647 8.61436 6.56936 8.35964 5.96388 7.37747C5.58541 6.76252 5.14647 6.38311 4.59424 6.04856L6.20449 3.01725C6.35318 3.09802 6.49104 3.17362 6.61938 3.24403C7.8956 3.9443 8.37316 4.20633 10.2843 4.43475C10.5435 4.46564 10.8021 4.49109 11.0522 4.5157C12.7208 4.67981 14.0388 4.80947 14.8308 6.28022C14.8324 6.28322 14.834 6.28617 14.8357 6.28912L15.762 7.92323C15.1937 7.7512 14.6017 7.72594 14.0368 7.83666C13.3531 6.6743 12.7205 5.80631 10.8184 6.1245C10.2482 6.22022 9.89458 6.44512 9.7675 6.79303C9.69025 7.00462 9.67057 7.34217 10.0157 7.74853C10.022 7.75598 10.0286 7.7632 10.0353 7.77023L11.7375 9.5377C12.2772 10.0971 12.4484 11.0534 12.2742 11.3812C12.2231 11.4774 12.1836 11.5065 12.1738 11.5092C12.1543 11.5144 12.0379 11.5282 11.6484 11.2858ZM22.1252 23.0625H7.82543C7.52833 23.0625 7.2866 22.8204 7.2866 22.5228V16.9899H9.82197C10.0809 16.9899 10.2907 16.7801 10.2907 16.5212C10.2907 16.2623 10.0809 16.0524 9.82197 16.0524H7.2866V14.2117H22.664V16.0524H14.0275C13.7686 16.0524 13.5587 16.2623 13.5587 16.5212C13.5587 16.7801 13.7686 16.9899 14.0275 16.9899H22.664V22.5228C22.664 22.8204 22.4223 23.0625 22.1252 23.0625Z" fill="#E55039"/>
<path d="M19.4504 18.3618H10.5002C10.2414 18.3618 10.0315 18.5717 10.0315 18.8306V21.2209C10.0315 21.4798 10.2414 21.6897 10.5002 21.6897H19.4504C19.7093 21.6897 19.9192 21.4798 19.9192 21.2209V18.8306C19.9192 18.5717 19.7093 18.3618 19.4504 18.3618ZM18.9817 20.7522H10.969V19.2993H18.9817V20.7522Z" fill="#E55039"/>
<path d="M11.9246 16.99H11.9273C12.1862 16.99 12.3947 16.7801 12.3947 16.5212C12.3947 16.2623 12.1836 16.0525 11.9247 16.0525C11.6658 16.0525 11.4559 16.2623 11.4559 16.5212C11.4559 16.7801 11.6657 16.99 11.9246 16.99Z" fill="#E55039"/>
</g>
<defs>
<clipPath id="clip0_0_777">
<rect width="24" height="24" fill="white"/>
</clipPath>
</defs>
</svg>
