<svg width="129" height="96" viewBox="0 0 129 96" fill="none" xmlns="http://www.w3.org/2000/svg">
<path fill-rule="evenodd" clip-rule="evenodd" d="M7.45331 64.5469C4.27201 64.6099 1.63442 62.0885 1.56694 59.1994C1.49753 56.3085 4.02136 54.1443 7.20266 54.0813H115.893C119.077 54.0183 121.712 56.3103 121.782 59.1994C121.851 62.0903 119.325 64.4839 116.144 64.5469H7.45331Z" fill="#F6F6F6"/>
<path fill-rule="evenodd" clip-rule="evenodd" d="M5.81445 82.8625C3.51866 82.9255 1.61525 80.4041 1.56655 77.515C1.51646 74.6241 3.33778 72.4599 5.63357 72.3968H84.0701C86.3673 72.3338 88.2693 74.6258 88.3194 77.515C88.3695 80.4058 86.5468 82.7994 84.251 82.8625H5.81445Z" fill="#F6F6F6"/>
<path fill-rule="evenodd" clip-rule="evenodd" d="M15.1667 69.2909C15.125 67.3151 13.6212 64.4016 11.5575 63.8073C12.1228 63.6198 12.7316 63.8203 13.373 63.8073H56.0635C59.0131 63.7423 61.4464 65.733 61.5008 68.2565C61.5551 70.782 59.207 72.8822 56.2573 72.9472H13.5669C12.9273 72.962 12.3131 73.1106 11.7387 72.9472C13.777 72.262 15.2084 70.2305 15.1667 68.2565" fill="#F6F6F6"/>
<path fill-rule="evenodd" clip-rule="evenodd" d="M77.7278 69.2909C77.7694 67.3151 79.2733 64.4016 81.3369 63.8073C80.7716 63.6198 80.1629 63.8203 79.5215 63.8073H36.831C33.8814 63.7423 31.4481 65.733 31.3937 68.2565C31.3393 70.782 33.6875 72.8822 36.6372 72.9472H79.3276C79.9672 72.962 80.5814 73.1106 81.1557 72.9472C79.1174 72.262 77.6861 70.2305 77.7278 68.2565" fill="#F6F6F6"/>
<path fill-rule="evenodd" clip-rule="evenodd" d="M128.632 76.1886H125.213V72.71H124.561V76.1886H121.14V76.7698H124.561V80.2789H125.213V76.7698H128.632V76.1886Z" fill="#101425"/>
<path fill-rule="evenodd" clip-rule="evenodd" d="M113.419 6.5091H110.001V3.03049H109.348V6.5091H105.928V7.09022H109.348V10.5994H110.001V7.09022H113.419V6.5091Z" fill="#101425"/>
<path fill-rule="evenodd" clip-rule="evenodd" d="M116.526 64.087H113.108V60.6084H112.455V64.087H109.035V64.6681H112.455V68.1773H113.108V64.6681H116.526V64.087Z" fill="#101425"/>
<path fill-rule="evenodd" clip-rule="evenodd" d="M128.252 65.1756C128.252 66.5683 127.134 67.6986 125.755 67.6986C124.377 67.6986 123.258 66.5683 123.258 65.1756C123.258 63.7829 124.377 62.6526 125.755 62.6526C127.134 62.6526 128.252 63.7829 128.252 65.1756Z" fill="white"/>
<path fill-rule="evenodd" clip-rule="evenodd" d="M128.252 65.1756C128.252 66.5683 127.134 67.6986 125.755 67.6986C124.377 67.6986 123.258 66.5683 123.258 65.1756C123.258 63.7829 124.377 62.6526 125.755 62.6526C127.134 62.6526 128.252 63.7829 128.252 65.1756Z" stroke="#101425" stroke-width="0.154256"/>
<path fill-rule="evenodd" clip-rule="evenodd" d="M14.0014 21.4837H10.5826V18.0051H9.92848V21.4837H6.50975V22.0648H9.92848V25.574H10.5826V22.0648H14.0014V21.4837Z" fill="#101425"/>
<path fill-rule="evenodd" clip-rule="evenodd" d="M35.3409 93.3996C35.3409 94.7923 34.2238 95.9226 32.8436 95.9226C31.4635 95.9226 30.3464 94.7923 30.3464 93.3996C30.3464 92.0069 31.4635 90.8766 32.8436 90.8766C34.2238 90.8766 35.3409 92.0069 35.3409 93.3996Z" fill="white"/>
<path fill-rule="evenodd" clip-rule="evenodd" d="M35.3409 93.3996C35.3409 94.7923 34.2238 95.9226 32.8436 95.9226C31.4635 95.9226 30.3464 94.7923 30.3464 93.3996C30.3464 92.0069 31.4635 90.8766 32.8436 90.8766C34.2238 90.8766 35.3409 92.0069 35.3409 93.3996Z" stroke="#101425" stroke-width="0.154256"/>
<path fill-rule="evenodd" clip-rule="evenodd" d="M101.92 2.60045C101.92 3.99313 100.801 5.12343 99.4223 5.12343C98.0439 5.12343 96.9251 3.99313 96.9251 2.60045C96.9251 1.20777 98.0439 0.0774802 99.4223 0.0774802C100.801 0.0774802 101.92 1.20777 101.92 2.60045Z" fill="white"/>
<path fill-rule="evenodd" clip-rule="evenodd" d="M101.92 2.60045C101.92 3.99313 100.801 5.12343 99.4223 5.12343C98.0439 5.12343 96.9251 3.99313 96.9251 2.60045C96.9251 1.20777 98.0439 0.0774802 99.4223 0.0774802C100.801 0.0774802 101.92 1.20777 101.92 2.60045Z" stroke="#101425" stroke-width="0.154256"/>
<path fill-rule="evenodd" clip-rule="evenodd" d="M5.0719 14.7012C5.0719 16.0939 3.95481 17.2242 2.57469 17.2242C1.19456 17.2242 0.0774802 16.0939 0.0774802 14.7012C0.0774802 13.3085 1.19456 12.1782 2.57469 12.1782C3.95481 12.1782 5.0719 13.3085 5.0719 14.7012Z" fill="white"/>
<path fill-rule="evenodd" clip-rule="evenodd" d="M5.0719 14.7012C5.0719 16.0939 3.95481 17.2242 2.57469 17.2242C1.19456 17.2242 0.0774802 16.0939 0.0774802 14.7012C0.0774802 13.3085 1.19456 12.1782 2.57469 12.1782C3.95481 12.1782 5.0719 13.3085 5.0719 14.7012Z" stroke="#101425" stroke-width="0.154256"/>
<path fill-rule="evenodd" clip-rule="evenodd" d="M63.7737 17.5559H64.6694C64.9165 17.5559 65.1173 17.3551 65.1173 17.108C65.1173 16.8609 64.9165 16.6602 64.6694 16.6602H63.7737C63.5266 16.6602 63.3259 16.8609 63.3259 17.108C63.3259 17.3551 63.5266 17.5559 63.7737 17.5559ZM58.3999 73.9831H59.2956C59.5427 73.9831 59.7434 73.7823 59.7434 73.5352C59.7434 73.2881 59.5427 73.0874 59.2956 73.0874H58.3999C58.1528 73.0874 57.9521 73.2881 57.9521 73.5352C57.9521 73.7823 58.1528 73.9831 58.3999 73.9831Z" fill="#101425"/>
</svg>
