<svg width="24" height="24" viewBox="0 0 24 24" fill="none" xmlns="http://www.w3.org/2000/svg">
<g clip-path="url(#clip0_0_863)">
<path d="M23.1328 13.2743H17.7633C17.8097 13.2003 17.8544 13.125 17.8956 13.0473C18.5963 11.7277 18.3878 10.1625 17.4919 9.0742L15.6537 5.83116C14.6245 3.92508 12.8551 3.75103 11.1439 3.5827C10.8985 3.55856 10.6448 3.53362 10.3953 3.50386C8.6647 3.297 8.32697 3.11166 7.07025 2.42212C6.9218 2.34066 6.76097 2.25244 6.58467 2.15695C6.60989 1.98562 6.59681 1.80919 6.54426 1.63823C6.45159 1.33673 6.24783 1.09012 5.9723 0.944765L4.45842 0.138046C4.18097 -0.00937544 3.86217 -0.0399379 3.56091 0.0522183C3.25922 0.144421 3.01195 0.348187 2.86477 0.625687L0.536577 5.00859C0.389109 5.28567 0.358546 5.60423 0.450609 5.90569C0.542718 6.20733 0.746296 6.45469 1.02384 6.60211L2.5372 7.40859C2.7128 7.50187 2.90152 7.54608 3.0878 7.54608C3.50986 7.54603 3.91894 7.31892 4.13086 6.92091L4.15336 6.87853C4.63106 7.17487 4.91086 7.455 5.16572 7.86909C5.91501 9.08456 6.64753 9.43861 7.35595 9.78094C7.60233 9.9 7.83506 10.0125 8.07792 10.164L11.1528 12.0815C11.1755 12.0956 11.1986 12.1097 11.2218 12.1237C11.3109 12.5342 11.4699 12.9232 11.6905 13.2742H6.81787C6.55898 13.2742 6.34912 13.4841 6.34912 13.743V22.5228C6.34912 23.3373 7.01137 24 7.82545 24H22.1253C22.9393 24 23.6016 23.3373 23.6016 22.5228V13.743C23.6016 13.4841 23.3917 13.2743 23.1328 13.2743ZM17.0677 12.6077C16.9354 12.8568 16.7664 13.0801 16.5649 13.2743H12.8901C12.6414 13.0353 12.4426 12.751 12.304 12.4375C12.3418 12.432 12.3795 12.4246 12.4174 12.4145C12.7033 12.3375 12.9336 12.1379 13.102 11.8211C13.4181 11.2263 13.2913 10.2609 12.8535 9.48506C13.6675 8.66742 14.9295 8.46426 15.9721 9.01861C17.2618 9.70636 17.7532 11.3164 17.0677 12.6077ZM12.273 8.74237L10.7217 7.13156C10.7173 7.12622 10.7132 7.12106 10.7093 7.11619C10.7639 7.09509 10.8479 7.07016 10.9733 7.04906C12.2032 6.84337 12.5569 7.18945 13.1296 8.14458C12.8206 8.29847 12.5317 8.49872 12.273 8.74237ZM3.30309 6.48075C3.24164 6.5962 3.0923 6.64205 2.9775 6.58102L1.46414 5.77453C1.46395 5.77444 1.46376 5.77434 1.46358 5.77425C1.38778 5.73398 1.35811 5.6678 1.34719 5.63194C1.33622 5.59608 1.32384 5.52469 1.3643 5.4488L3.69286 1.06523C3.73308 0.98939 3.79912 0.959718 3.83489 0.948796C3.85205 0.943593 3.87731 0.938015 3.90726 0.938015C3.94008 0.938015 3.97851 0.944671 4.01808 0.965671L5.53322 1.77309C5.6078 1.81242 5.63728 1.87805 5.6482 1.91362C5.65931 1.94972 5.67187 2.02162 5.63128 2.09789L3.30309 6.48075ZM11.6484 11.2858L8.574 9.36858C8.28844 9.19041 8.02172 9.06155 7.76386 8.93691C7.0965 8.61436 6.56939 8.35964 5.96391 7.37747C5.58544 6.76252 5.1465 6.38311 4.59426 6.04856L6.20451 3.01725C6.3532 3.09802 6.49106 3.17362 6.61941 3.24403C7.89562 3.9443 8.37319 4.20633 10.2843 4.43475C10.5435 4.46564 10.8022 4.49109 11.0522 4.5157C12.7208 4.67981 14.0388 4.80947 14.8308 6.28022C14.8325 6.28322 14.8341 6.28617 14.8357 6.28912L15.762 7.92323C15.1937 7.7512 14.6017 7.72594 14.0369 7.83666C13.3531 6.6743 12.7205 5.80631 10.8184 6.1245C10.2482 6.22022 9.89461 6.44512 9.76753 6.79303C9.69028 7.00462 9.67059 7.34217 10.0157 7.74853C10.0221 7.75598 10.0286 7.7632 10.0354 7.77023L11.7375 9.5377C12.2773 10.0971 12.4484 11.0534 12.2742 11.3812C12.2231 11.4774 12.1836 11.5065 12.1739 11.5092C12.1544 11.5144 12.038 11.5282 11.6484 11.2858ZM22.1252 23.0625H7.82545C7.52836 23.0625 7.28662 22.8204 7.28662 22.5228V16.9899H9.822C10.0809 16.9899 10.2907 16.7801 10.2907 16.5212C10.2907 16.2623 10.0809 16.0524 9.822 16.0524H7.28662V14.2117H22.6641V16.0524H14.0275C13.7686 16.0524 13.5587 16.2623 13.5587 16.5212C13.5587 16.7801 13.7686 16.9899 14.0275 16.9899H22.6641V22.5228C22.6641 22.8204 22.4224 23.0625 22.1252 23.0625Z" fill="#848B96"/>
<path d="M19.4505 18.3618H10.5003C10.2414 18.3618 10.0316 18.5717 10.0316 18.8306V21.2209C10.0316 21.4798 10.2414 21.6897 10.5003 21.6897H19.4505C19.7094 21.6897 19.9192 21.4798 19.9192 21.2209V18.8306C19.9192 18.5717 19.7094 18.3618 19.4505 18.3618ZM18.9817 20.7522H10.9691V19.2993H18.9817V20.7522Z" fill="#848B96"/>
<path d="M11.9247 16.99H11.9274C12.1863 16.99 12.3948 16.7801 12.3948 16.5212C12.3948 16.2623 12.1837 16.0525 11.9248 16.0525C11.6659 16.0525 11.456 16.2623 11.456 16.5212C11.456 16.7801 11.6658 16.99 11.9247 16.99Z" fill="#848B96"/>
</g>
<defs>
<clipPath id="clip0_0_863">
<rect width="24" height="24" fill="white"/>
</clipPath>
</defs>
</svg>
