<svg width="72" height="72" viewBox="0 0 72 72" fill="none" xmlns="http://www.w3.org/2000/svg">
<path d="M34.7321 17.4834C30.506 21.4121 21.1147 19.6121 25.5287 2.45734C31.9147 5.4156 39.8191 12.7721 34.7321 17.4834Z" fill="#9DCC6B"/>
<path d="M34.7321 17.4835C33.8922 17.6721 33.0208 17.6721 32.1808 17.4835C28.8782 16.6383 26.3426 12.7879 28.0174 3.83482C33.3391 7.05916 39.3182 13.2418 34.7321 17.4835Z" fill="#B5E08C"/>
<path d="M32.8696 26.8122C32.8696 26.7183 32.8696 18.3287 28.7061 12.1774C28.5025 11.833 28.4385 11.4237 28.5272 11.0336C28.616 10.6434 28.8508 10.3021 29.1834 10.0797C29.516 9.85733 29.9211 9.77074 30.3156 9.83775C30.71 9.90475 31.0638 10.1203 31.3043 10.44C36 17.4052 36 26.4209 36 26.8122C36 27.2273 35.8351 27.6254 35.5415 27.919C35.248 28.2125 34.8499 28.3774 34.4348 28.3774C34.0196 28.3774 33.6215 28.2125 33.328 27.919C33.0345 27.6254 32.8696 27.2273 32.8696 26.8122Z" fill="#84B749"/>
<path d="M51.6521 14.0869C45.3913 20.3478 42.2608 28.0017 42.2608 30.24C43.8067 29.9247 45.3789 29.757 46.9565 29.7391C51.2982 29.9318 55.5567 30.9964 59.4782 32.8695H50.0869C43.8261 32.8695 39.1304 39.1304 29.7391 39.1304C20.3478 39.1304 17.2174 46.9565 17.2174 54.7826C17.2174 62.1078 17.3269 67.1947 12.5217 71.9999L0 62.6086C9.3913 56.3478 -0.109565 34.56 23.4782 31.3043C36 29.6295 36 25.0435 40.6956 17.2174C45.3913 9.3913 62.6087 0 64.1739 0C70.153 0 63.4382 2.30087 51.6521 14.0869Z" fill="#A87E6B"/>
<path d="M72 27.2661C50.0869 32.7444 52.9513 17.1548 59.6817 16.4975C64.6122 16.0122 69.9339 22.8992 72 27.2661Z" fill="#9DCC6B"/>
<path d="M71.5774 26.4521C62.7809 27.9234 58.9461 25.4191 58.1009 22.1791C57.8753 21.1763 57.9002 20.1334 58.1731 19.1425C58.4461 18.1516 58.9589 17.2431 59.6661 16.4973C64.3774 16.0278 69.1983 22.0695 71.5774 26.4521Z" fill="#B5E08C"/>
<path d="M62.8904 24.4017C61.8574 24.4017 57.6313 20.52 47.7861 20.0191C47.371 19.9983 46.9811 19.8135 46.7023 19.5053C46.4234 19.1971 46.2784 18.7907 46.2992 18.3756C46.3199 17.9605 46.5047 17.5706 46.8129 17.2918C47.1211 17.0129 47.5275 16.8679 47.9426 16.8886C53.5127 17.1333 58.9368 18.746 63.7357 21.5843C63.9931 21.7763 64.1853 22.0428 64.2861 22.3477C64.3869 22.6527 64.3915 22.9812 64.2992 23.2888C64.207 23.5965 64.0223 23.8682 63.7703 24.0673C63.5182 24.2664 63.2111 24.3831 62.8904 24.4017Z" fill="#84B749"/>
<path d="M20.8957 31.7583C17.2347 32.3903 13.8482 34.1081 11.1757 36.6887C12.8156 31.8867 12.7381 26.6643 10.9565 21.9131C7.8261 14.087 9.39132 9.39132 12.5217 6.26089C12.5217 17.7809 21.4278 19.2209 20.8957 31.7583Z" fill="#A87E6B"/>
<path d="M20.8957 31.7583C18.8505 32.163 16.8739 32.8588 15.0261 33.8244C17.3113 22.5548 10.1426 18.5322 13.0226 10.3461C15.167 19.5339 21.3652 20.5826 20.8957 31.7583Z" fill="#BE927C"/>
<path d="M51.48 61.4346C36.5322 63.7981 31.6643 60.4173 29.8643 55.8312C26.8435 48.1773 32.3843 42.5112 39.6782 44.8747C45.2817 46.7686 49.8052 56.1129 51.48 61.4346Z" fill="#9DCC6B"/>
<path d="M50.5095 58.8209C38.7391 59.9948 34.6226 56.8331 32.9948 52.7009C32.4575 51.5049 32.1797 50.2086 32.1797 48.8974C32.1797 47.5863 32.4575 46.29 32.9948 45.0939C35.1283 44.158 37.5427 44.0906 39.7252 44.9061C45 46.6748 48.8348 54.6261 50.5095 58.8209Z" fill="#B5E08C"/>
<path d="M38.4887 55.0017C38.3478 54.9078 24.5269 46.3461 18.5634 52.2939C18.264 52.5503 17.8788 52.6843 17.4849 52.6691C17.091 52.6539 16.7173 52.4906 16.4386 52.2118C16.1598 51.9331 15.9965 51.5594 15.9813 51.1655C15.9661 50.7715 16.1001 50.3864 16.3565 50.0869C24.073 42.3704 39.5061 51.9339 40.1634 52.3565C40.5142 52.5786 40.7624 52.9309 40.8534 53.336C40.9444 53.7411 40.8708 54.1657 40.6487 54.5165C40.4266 54.8673 40.0742 55.1155 39.6692 55.2065C39.2641 55.2975 38.8394 55.2238 38.4887 55.0017Z" fill="#84B749"/>
<path d="M46.9565 29.7391C51.2982 29.9318 55.5566 30.9964 59.4782 32.8696H50.0869C43.826 32.8696 39.1304 39.1304 29.7391 39.1304C20.3478 39.1304 17.2173 46.9565 17.2173 54.7826C17.2173 62.1078 17.3269 67.1948 12.5217 72L2.67647 64.6278L3.13039 64.1739C12.5217 57.913 3.02082 36.1252 26.6086 32.8696C39.1304 31.1948 39.1304 26.6087 43.826 18.7826C47.52 12.6157 58.993 5.47827 64.4556 2.73914C55.5495 10.4087 46.0017 17.2017 42.5426 28.7061C42.3343 29.2003 42.2432 29.736 42.2765 30.2713C43.8177 29.9559 45.3838 29.7778 46.9565 29.7391Z" fill="#BE927C"/>
<path d="M43.8261 29.9896C43.8912 30.387 43.8006 30.7941 43.5732 31.1265C43.3459 31.4588 42.9992 31.6907 42.6052 31.774C40.0388 32.3123 37.5437 33.1474 35.1704 34.2627C34.8056 34.4146 34.3968 34.4229 34.0261 34.2859C33.6554 34.1488 33.3502 33.8767 33.1719 33.524C32.9936 33.1713 32.9553 32.7642 33.0647 32.3844C33.1741 32.0047 33.4231 31.6803 33.7617 31.4766C35.7965 30.4592 41.5096 28.4401 42.5583 28.7061C41.9322 30.7722 42.2609 30.1931 43.8261 29.9896Z" fill="#A07765"/>
</svg>
