<svg width="24" height="24" viewBox="0 0 24 24" fill="none" xmlns="http://www.w3.org/2000/svg">
<path d="M18.778 9.03758C16.1372 9.03758 13.9478 11.0084 13.6033 13.5563H12.1614C11.4507 12.6654 10.6635 12.1875 10.214 11.9558C10.6186 11.6715 11.9499 10.6048 11.9499 8.61102C11.9499 6.35456 10.1141 4.51886 7.85774 4.51886C5.60133 4.51886 3.76558 6.35461 3.76558 8.61102C3.76558 8.99933 4.08039 9.31414 4.4687 9.31414C4.85701 9.31414 5.17182 8.99933 5.17182 8.61102C5.17182 7.12996 6.37673 5.9251 7.85774 5.9251C9.33874 5.9251 10.5437 7.13001 10.5437 8.61102C10.5437 10.1066 9.32543 11.2969 7.85774 11.2969H6.72806C6.33975 11.2969 6.02494 11.6117 6.02494 12.0001C6.02494 12.3884 6.33975 12.7032 6.72806 12.7032H7.48119C9.97272 12.7032 12.0499 14.7137 12.0499 17.2719C12.0499 20.2064 9.66255 22.5937 6.72806 22.5937C3.79357 22.5937 1.40624 20.2064 1.40624 17.2719C1.40624 16.8836 1.09143 16.5688 0.70312 16.5688C0.31481 16.5688 0 16.8836 0 17.2719C0 20.9818 3.01821 24 6.72806 24C10.4379 24 13.4562 20.9818 13.4562 17.2719C13.4562 16.4654 13.2976 15.6838 12.9958 14.9625H14.2593C14.6476 14.9625 14.9624 14.6477 14.9624 14.2594C14.9624 12.1555 16.6741 10.4438 18.778 10.4438C20.8819 10.4438 22.5936 12.1555 22.5936 14.2594V18.025C22.5936 19.7431 21.1947 21.0875 19.5311 21.0875C17.8719 21.0875 16.4687 19.7478 16.4687 18.025V17.2719C16.4687 16.8836 16.1538 16.5688 15.7655 16.5688C15.3772 16.5688 15.0624 16.8836 15.0624 17.2719V18.025C15.0624 20.531 17.1017 22.4937 19.5311 22.4937C21.9574 22.4937 23.9998 20.5338 23.9998 18.025V14.2594C23.9998 11.3801 21.6573 9.03758 18.778 9.03758Z" fill="#E55039"/>
<path d="M17.2723 4.41869C18.4925 4.41869 19.4817 3.42953 19.4817 2.20934C19.4817 0.989156 18.4925 0 17.2723 0C16.0521 0 15.063 0.989156 15.063 2.20934C15.063 3.42953 16.0521 4.41869 17.2723 4.41869Z" fill="#E55039"/>
<path d="M17.2717 7.4315C19.3879 7.4315 21.2819 6.16678 22.0968 4.20948C22.2461 3.85103 22.0765 3.43938 21.718 3.29013C21.3595 3.14088 20.9479 3.31047 20.7986 3.66897C20.2026 5.10038 18.8182 6.02531 17.2717 6.02531C13.9923 6.02531 11.896 1.93573 11.8756 1.89528C11.702 1.54794 11.2796 1.40708 10.9323 1.58084C10.5849 1.75451 10.4442 2.17685 10.6178 2.52419C10.718 2.72449 13.1193 7.4315 17.2717 7.4315Z" fill="#E55039"/>
</svg>
