<svg width="87" height="94" viewBox="0 0 87 94" fill="none" xmlns="http://www.w3.org/2000/svg">
<path d="M63.6976 52.4908L64.1478 51.7349C64.3164 51.4519 64.4764 51.1678 64.6228 50.8771L64.6229 50.877C67.1391 45.8857 66.3896 39.9623 63.1742 35.8485L63.148 35.815L63.1278 35.7776L56.2916 23.0757L56.2869 23.0668L56.287 23.0668C52.5959 15.8669 46.297 15.1914 39.9091 14.5296L39.9606 14.0323L39.9091 14.5296L39.8916 14.5278C38.9855 14.4339 38.0426 14.3362 37.1144 14.2195L37.1143 14.2195C33.8866 13.8132 31.9187 13.4238 30.1621 12.7838C28.4184 12.1485 26.9023 11.2724 24.5935 9.9382L24.5612 9.91957L24.5612 9.91955C24.0091 9.60046 23.4121 9.25557 22.7579 8.88237L22.4635 8.71447L22.5104 8.37886C22.5944 7.77813 22.551 7.15841 22.3754 6.5565C22.0657 5.49553 21.3893 4.63961 20.4854 4.1374L20.4836 4.13636L14.8542 0.977009C14.8541 0.976953 14.854 0.976897 14.8539 0.976841C13.9427 0.467011 12.9012 0.362391 11.914 0.680433L11.9139 0.680473C10.9241 0.999074 10.1078 1.70377 9.61838 2.67551L9.61825 2.67577L0.960054 19.8422L0.959878 19.8425C0.469192 20.8135 0.366587 21.9307 0.674136 22.9914L0.67414 22.9914C0.981728 24.0522 1.65739 24.9115 2.5698 25.4219L2.57041 25.4222L8.19779 28.5806L63.6976 52.4908ZM63.6976 52.4908H64.5774M63.6976 52.4908H64.5774M64.5774 52.4908H84.5457C85.2083 52.4908 85.789 53.0642 85.789 53.8267V88.2142C85.789 91.1534 83.5256 93.5 80.7989 93.5H27.6199C24.893 93.5 22.6296 91.1534 22.6296 88.2142V53.8266C22.6296 53.064 23.2103 52.4906 23.8729 52.4906H41.9934H42.8738L42.4228 51.7345C41.6317 50.4083 41.0605 48.9374 40.74 47.3833L40.6972 47.1756L40.5181 47.062C40.4334 47.0083 40.3497 46.9546 40.2679 46.901L28.8333 39.3911C27.9063 38.7821 27.0193 38.3306 26.1082 37.8669L26.1007 37.8631C24.7811 37.1915 23.4865 36.531 22.1745 35.4598C20.867 34.3921 19.5268 32.9027 18.1602 30.568C17.1709 28.8751 16.0744 27.7225 14.2374 26.5223L13.7692 26.2164L13.5174 26.7158L13.434 26.8813M64.5774 52.4908L13.434 26.8813M13.434 26.8813L13.4338 26.8818C12.7299 28.2736 11.3803 29.0553 10.0012 29.0555L13.434 26.8813ZM11.2483 25.6081L11.2481 25.6085C10.8988 26.2997 10.0362 26.5979 9.34678 26.2119L9.34634 26.2117L3.72403 23.0561L3.7168 23.0523L3.71687 23.0522C3.27317 22.8039 3.10675 22.4007 3.048 22.1979C2.98837 21.9926 2.91607 21.5695 3.14538 21.1159C3.14548 21.1157 3.14558 21.1155 3.14567 21.1153L11.8048 3.94731C12.0357 3.4887 12.4189 3.3069 12.6265 3.24013L12.6274 3.23983C12.7267 3.20812 12.873 3.17389 13.0487 3.17389C13.2438 3.17389 13.473 3.21622 13.7048 3.34578L13.7055 3.34619L19.3382 6.50751C19.3386 6.50774 19.339 6.50797 19.3394 6.5082C19.7795 6.7532 19.9447 7.15522 20.0029 7.35477C20.003 7.35488 20.003 7.355 20.003 7.35511L19.523 7.49503L11.2483 25.6081ZM11.2483 25.6081L19.9063 8.44227L11.2483 25.6081ZM54.1163 24.3684C52.5861 21.3765 50.529 19.7274 48.0505 18.7573C45.6179 17.8051 42.7842 17.5116 39.7178 17.194L39.6714 17.1892C38.7405 17.0927 37.7841 16.9935 36.8262 16.8733C33.2888 16.428 31.1111 15.9537 29.2372 15.2616C27.3588 14.5678 25.7658 13.6487 23.385 12.2729L23.3849 12.2729C22.9077 11.9971 22.3941 11.7005 21.8401 11.3836L21.3827 11.1219L21.1454 11.5924L15.1571 23.465L14.9536 23.8686L15.3346 24.1117C17.3348 25.3879 18.9053 26.8198 20.2654 29.1474L20.2656 29.1477C21.4151 31.1116 22.5044 32.3715 23.6404 33.3042C24.7641 34.2269 25.9158 34.8131 27.1436 35.4381L27.164 35.4485C28.1245 35.9374 29.0932 36.4308 30.129 37.1115L30.1291 37.1115L41.5625 44.6207L41.563 44.621C42.3063 45.108 42.8153 45.3555 43.1674 45.4766C43.5144 45.5959 43.753 45.6077 43.9263 45.5589L43.9274 45.5586C44.0409 45.5264 44.1233 45.4607 44.1564 45.4333C44.2057 45.3926 44.2543 45.3433 44.3018 45.287C44.3973 45.174 44.502 45.0166 44.6106 44.8015C44.8236 44.3794 44.9078 43.8139 44.9079 43.2146C44.908 42.6035 44.8203 41.9069 44.6481 41.1896C44.3051 39.7609 43.6127 38.1925 42.5369 37.0182L36.2073 30.096L36.2066 30.0953C36.189 30.0761 36.1717 30.056 36.1545 30.0346L36.1544 30.0345C34.9822 28.5809 35.0822 27.4402 35.3146 26.7699C35.7014 25.6546 36.7986 24.8405 38.8371 24.48C42.2809 23.8733 44.4923 24.408 46.1455 25.5746C47.831 26.7639 49.007 28.6535 50.2827 30.9374L50.4614 31.2573L50.8203 31.1832C52.8382 30.7667 54.9523 30.8617 56.9829 31.509L58.1611 31.8847L57.575 30.7957L54.1305 24.3954L54.1297 24.394C54.1263 24.3878 54.1236 24.3824 54.1163 24.3684ZM54.1163 24.3684C54.1165 24.3689 54.1168 24.3694 54.117 24.3699L53.6719 24.5975M54.1163 24.3684C54.1161 24.368 54.1158 24.3675 54.1156 24.367L53.6719 24.5975M53.6719 24.5975L53.6753 24.6041C53.6802 24.6136 53.6851 24.623 53.6902 24.6324L36.7639 17.3694C37.7281 17.4904 38.6898 17.5901 39.6198 17.6865C45.825 18.3293 50.7265 18.8371 53.6719 24.5975ZM62.4368 49.6054L61.9903 49.3803L62.4368 49.6054C65.1009 44.3203 63.2015 37.7178 58.1611 34.8869L58.1605 34.8866C54.0775 32.6002 49.135 33.4424 45.955 36.8063L45.7073 37.0683L45.8776 37.386C46.662 38.85 47.1673 40.4931 47.3347 42.0441C47.5029 43.6016 47.3263 45.0235 46.7962 46.0741C46.2157 47.2244 45.4558 47.8885 44.5603 48.1423C44.4431 48.1754 44.3232 48.2001 44.1988 48.2193L43.5663 48.317L43.8141 48.907C44.3538 50.1926 45.1283 51.36 46.099 52.3423L46.2458 52.4908H46.4546H60.1207H60.33L60.4769 52.3417C61.2628 51.544 61.9218 50.6269 62.4368 49.6054ZM43.7907 34.5784L44.1421 34.9626L44.5118 34.596C45.4391 33.6763 46.4731 32.9217 47.5776 32.3424L48.036 32.102L47.7799 31.6522C46.7205 29.7915 45.8036 28.4032 44.5112 27.6214C43.1904 26.8226 41.571 26.7058 39.2395 27.1164L39.2391 27.1165C38.7443 27.2041 38.397 27.3105 38.156 27.4087L37.5564 27.653L37.9444 28.1714C37.9601 28.1924 37.9778 28.2156 37.997 28.2402L38.0088 28.2552L38.0217 28.2694L43.7907 34.5784ZM25.6161 66.0439H25.1161V66.5439V88.2142C25.1161 89.6305 26.2141 90.8281 27.6199 90.8281H80.7987C82.2047 90.8281 83.3025 89.6305 83.3025 88.2142V66.5439V66.0439H82.8025H50.6843C50.0218 66.0439 49.4411 65.4706 49.4411 64.708C49.4411 63.9454 50.0218 63.372 50.6843 63.372H82.8025H83.3025V62.872V55.6625V55.1625H82.8025H25.6161H25.1161V55.6625V62.872V63.372H25.6161H35.0448C35.7073 63.372 36.288 63.9454 36.288 64.708C36.288 65.4706 35.7073 66.0439 35.0448 66.0439H25.6161ZM10.0012 29.0555C9.3929 29.0555 8.77553 28.9038 8.19838 28.581L10.0012 29.0555Z" fill="#E55039" stroke="#FFF6E8"/>
<path d="M69.1086 81.7792H69.6086V81.2792V75.5889V75.0889H69.1086H39.3106H38.8106V75.5889V81.2792V81.7792H39.3106H69.1086ZM37.5674 72.417H70.8518C71.5143 72.417 72.095 72.9904 72.095 73.7529V83.1151C72.095 83.8777 71.5143 84.451 70.8518 84.451H37.5674C36.9048 84.451 36.3242 83.8777 36.3242 83.1151V73.7529C36.3242 72.9904 36.9048 72.417 37.5674 72.417Z" fill="#E55039" stroke="#FFF6E8"/>
<path d="M42.8744 66.0444H42.8645C42.202 66.0444 41.6215 65.4711 41.6215 64.7085C41.6215 63.9459 42.2021 63.3726 42.8647 63.3726C43.529 63.3726 44.1128 63.9478 44.1128 64.7085C44.1128 65.4729 43.5352 66.0444 42.8744 66.0444Z" fill="#E55039" stroke="#FFF6E8"/>
</svg>
