<svg width="80" height="80" viewBox="0 0 80 80" fill="none" xmlns="http://www.w3.org/2000/svg">
<path d="M79.9959 56.4566V74.6652C79.9959 77.6106 77.6081 79.9984 74.6627 79.9984H15.9957C13.0504 79.9984 10.6626 77.6108 10.6626 74.6653V69.3319L79.9959 56.4566Z" fill="#ECE6F2"/>
<path d="M76.2965 57.1436V74.6652C76.2965 77.6106 73.9089 79.9984 70.9634 79.9984H74.6629C77.6084 79.9984 79.9962 77.6106 79.9962 74.6652V56.4566L76.2965 57.1436Z" fill="#CFCFE6"/>
<path d="M79.9988 26.6661L79.9999 10.6663C79.9999 7.72104 77.6122 5.33324 74.6667 5.33324H15.9957C13.0504 5.33324 10.6626 7.72088 10.6626 10.6663V26.6663L45.3325 30.3578L79.9988 26.6661Z" fill="#FD5263"/>
<path d="M76.2977 10.6663L76.2966 27.0605L79.9988 26.6663L79.9999 10.6663C79.9999 7.72104 77.6123 5.33324 74.6668 5.33324H70.9646C73.9101 5.33324 76.2977 7.72088 76.2977 10.6663Z" fill="#FD3339"/>
<path d="M69.4979 63.448L79.5165 58.6654C79.8295 57.9782 79.997 57.2262 79.997 56.4565L79.999 26.6659H10.6628V69.3317C10.6628 72.277 13.0505 74.6648 15.9959 74.6648H61.7886C62.5583 74.6648 63.3105 74.4972 63.9978 74.1844L69.4979 63.448Z" fill="#FFF5F5"/>
<path d="M76.2977 26.6662L76.2962 62.3662L78.4349 60.2275C79.4351 59.2275 79.9969 57.8711 79.9969 56.4567L79.9988 26.6662H76.2977Z" fill="#ECE6F2"/>
<path d="M10.6628 20.1257H79.9993V22.54H10.6628V20.1257Z" fill="#FD3339"/>
<path d="M67.9974 11.8738H54.6643C53.9976 11.8738 53.4571 11.3333 53.4571 10.6666C53.4571 9.99991 53.9976 9.45944 54.6643 9.45944H67.9974C68.6643 9.45944 69.2046 9.99991 69.2046 10.6666C69.2047 11.3333 68.6643 11.8738 67.9974 11.8738Z" fill="#FD3339"/>
<path d="M65.3335 3.99999C65.3335 1.79093 63.5428 0 61.3336 0C59.1243 0 57.3336 1.79078 57.3336 3.99999V9.33325C57.3336 11.5423 59.1243 13.3332 61.3336 13.3332C63.5428 13.3332 65.3335 11.5425 65.3335 9.33325C65.3335 8.30857 65.3335 5.02452 65.3335 3.99999Z" fill="#FFDA44"/>
<path d="M61.3336 0C60.6655 0 60.0361 0.164687 59.4825 0.454374C60.7595 1.1225 61.6314 2.45906 61.6314 3.99999V9.33325C61.6314 10.8742 60.7595 12.2107 59.4825 12.8789C60.0361 13.1686 60.6655 13.3332 61.3336 13.3332C63.5426 13.3332 65.3336 11.5425 65.3336 9.33341C65.3336 8.30872 65.3336 5.02483 65.3336 4.00014C65.3334 1.79078 63.5426 0 61.3336 0Z" fill="#FFB655"/>
<path d="M65.5595 73.103L78.4347 60.2275C78.8904 59.7717 79.2542 59.2412 79.5162 58.6656H69.3306C66.3852 58.6656 63.9974 61.0534 63.9974 63.9989V74.1848C64.5733 73.9226 65.1038 73.559 65.5595 73.103Z" fill="white"/>
<path d="M36.0007 11.8738H22.6676C22.0007 11.8738 21.4604 11.3333 21.4604 10.6666C21.4604 9.99991 22.0009 9.45944 22.6676 9.45944H36.0007C36.6675 9.45944 37.2078 9.99991 37.2078 10.6666C37.2078 11.3333 36.6674 11.8738 36.0007 11.8738Z" fill="#FD3339"/>
<path d="M33.3368 3.99999C33.3368 1.79093 31.546 0 29.3368 0C27.1278 0 25.3368 1.79078 25.3368 3.99999V9.33325C25.3368 11.5423 27.1276 13.3332 29.3368 13.3332C31.5459 13.3332 33.3368 11.5425 33.3368 9.33325C33.3368 8.30857 33.3368 5.02452 33.3368 3.99999Z" fill="#FFDA44"/>
<path d="M29.3368 0C28.6687 0 28.0393 0.164687 27.4858 0.454374C28.7626 1.1225 29.6347 2.45906 29.6347 3.99999V9.33325C29.6347 10.8742 28.7628 12.2107 27.4858 12.8789C28.0393 13.1686 28.6687 13.3332 29.3368 13.3332C31.5459 13.3332 33.3368 11.5425 33.3368 9.33341C33.3368 8.30872 33.3368 5.02483 33.3368 4.00014C33.3368 1.79078 31.5461 0 29.3368 0Z" fill="#FFB655"/>
<path d="M19.999 79.9984C31.0441 79.9984 39.998 71.0443 39.998 59.9988C39.998 48.9533 31.0441 39.9991 19.999 39.9991C8.95386 39.9991 0 48.9533 0 59.9988C0 71.0443 8.95386 79.9984 19.999 79.9984Z" fill="#7D8FE5"/>
<path d="M19.999 39.9991C19.3748 39.9991 18.7576 40.0293 18.1479 40.0852C28.3251 41.0195 36.2958 49.5776 36.2958 59.9988C36.2958 70.42 28.3251 78.9781 18.1479 79.9123C18.7576 79.9682 19.3748 79.9984 19.999 79.9984C31.0441 79.9984 39.998 71.0442 39.998 59.9988C39.998 48.9533 31.0441 39.9991 19.999 39.9991Z" fill="#666DDC"/>
<path d="M34.6639 60.0533C34.6963 51.9533 28.1564 45.3607 20.0566 45.3283C11.9569 45.2959 5.36449 51.8359 5.33209 59.9359C5.29969 68.036 11.8396 74.6286 19.9393 74.661C28.0391 74.6934 34.6315 68.1533 34.6639 60.0533Z" fill="#FFF5F5"/>
<path d="M26.6653 61.2061H19.9991C19.3324 61.2061 18.7919 60.6656 18.7919 59.9989V50.6658C18.7919 49.9991 19.3324 49.4586 19.9991 49.4586C20.6658 49.4586 21.2063 49.9991 21.2063 50.6658V58.7917H26.6653C27.3321 58.7917 27.8725 59.3321 27.8725 59.9989C27.8727 60.6656 27.3321 61.2061 26.6653 61.2061Z" fill="#2B2A47"/>
<path d="M19.999 45.3324C19.372 45.3324 18.7543 45.3719 18.1479 45.4483C25.3738 46.3585 30.9627 52.5258 30.9627 59.9987C30.9627 67.4717 25.3737 73.6392 18.1479 74.5492C18.7541 74.6256 19.372 74.6651 19.999 74.6651C28.0988 74.6651 34.6649 68.0987 34.6649 59.9987C34.6649 51.8988 28.0986 45.3324 19.999 45.3324Z" fill="#ECE6F2"/>
<path d="M19.999 62.6652C21.4717 62.6652 22.6656 61.4713 22.6656 59.9987C22.6656 58.526 21.4717 57.3321 19.999 57.3321C18.5263 57.3321 17.3325 58.526 17.3325 59.9987C17.3325 61.4713 18.5263 62.6652 19.999 62.6652Z" fill="#FFDA44"/>
<path d="M19.999 57.3321C19.2795 57.3321 18.6276 57.6185 18.1479 58.0818C18.6499 58.5666 18.9634 59.2455 18.9634 59.9987C18.9634 60.7518 18.6499 61.4307 18.1479 61.9155C18.6276 62.3788 19.2795 62.6652 19.999 62.6652C21.4716 62.6652 22.6655 61.4713 22.6655 59.9987C22.6655 58.5258 21.4716 57.3321 19.999 57.3321Z" fill="#FFB655"/>
</svg>
