<svg width="24" height="24" viewBox="0 0 24 24" fill="none" xmlns="http://www.w3.org/2000/svg">
<path d="M18.778 9.03776C16.1372 9.03776 13.9478 11.0086 13.6033 13.5565H12.1614C11.4507 12.6656 10.6635 12.1877 10.214 11.9559C10.6186 11.6716 11.9499 10.605 11.9499 8.6112C11.9499 6.35475 10.1141 4.51904 7.85774 4.51904C5.60133 4.51904 3.76558 6.35479 3.76558 8.6112C3.76558 8.99951 4.08039 9.31432 4.4687 9.31432C4.85701 9.31432 5.17182 8.99951 5.17182 8.6112C5.17182 7.13015 6.37673 5.92528 7.85774 5.92528C9.33874 5.92528 10.5437 7.13019 10.5437 8.6112C10.5437 10.1067 9.32543 11.2971 7.85774 11.2971H6.72806C6.33975 11.2971 6.02494 11.6119 6.02494 12.0002C6.02494 12.3885 6.33975 12.7034 6.72806 12.7034H7.48119C9.97272 12.7034 12.0499 14.7139 12.0499 17.2721C12.0499 20.2066 9.66255 22.5939 6.72806 22.5939C3.79357 22.5939 1.40624 20.2065 1.40624 17.2721C1.40624 16.8838 1.09143 16.569 0.70312 16.569C0.31481 16.569 0 16.8838 0 17.2721C0 20.9819 3.01821 24.0001 6.72806 24.0001C10.4379 24.0001 13.4562 20.9819 13.4562 17.2721C13.4562 16.4656 13.2976 15.684 12.9958 14.9627H14.2593C14.6476 14.9627 14.9624 14.6479 14.9624 14.2596C14.9624 12.1557 16.6741 10.444 18.778 10.444C20.8819 10.444 22.5936 12.1557 22.5936 14.2596V18.0252C22.5936 19.7433 21.1947 21.0876 19.5311 21.0876C17.8719 21.0876 16.4687 19.748 16.4687 18.0252V17.2721C16.4687 16.8838 16.1538 16.569 15.7655 16.569C15.3772 16.569 15.0624 16.8838 15.0624 17.2721V18.0252C15.0624 20.5311 17.1017 22.4939 19.5311 22.4939C21.9574 22.4939 23.9998 20.534 23.9998 18.0252V14.2596C23.9998 11.3803 21.6573 9.03776 18.778 9.03776Z" fill="#E55039"/>
<path d="M17.2723 4.41869C18.4925 4.41869 19.4817 3.42953 19.4817 2.20934C19.4817 0.989156 18.4925 0 17.2723 0C16.0521 0 15.063 0.989156 15.063 2.20934C15.063 3.42953 16.0521 4.41869 17.2723 4.41869Z" fill="#E55039"/>
<path d="M17.2717 7.43144C19.3879 7.43144 21.2819 6.16672 22.0968 4.20942C22.2461 3.85097 22.0765 3.43931 21.718 3.29007C21.3595 3.14082 20.9479 3.31041 20.7986 3.66891C20.2026 5.10032 18.8182 6.02525 17.2717 6.02525C13.9923 6.02525 11.896 1.93567 11.8756 1.89522C11.702 1.54788 11.2796 1.40702 10.9323 1.58078C10.5849 1.75445 10.4442 2.17679 10.6178 2.52413C10.718 2.72443 13.1193 7.43144 17.2717 7.43144Z" fill="#E55039"/>
</svg>
