<svg width="14" height="14" viewBox="0 0 14 14" fill="none" xmlns="http://www.w3.org/2000/svg">
<g clip-path="url(#clip0_272_71283)">
<path d="M1.86714 1.09375H4.51172V0H0V4.51172H1.09375V1.86714L4.83984 5.61323L5.61323 4.83984L1.86714 1.09375Z" fill="white"/>
<path d="M5.61323 9.16023L4.83984 8.38684L1.09375 12.1329V9.48836H0V14.0001H4.51172V12.9063H1.86714L5.61323 9.16023Z" fill="white"/>
<path d="M9.48823 0V1.09375H12.1328L8.38672 4.83984L9.16011 5.61323L12.9062 1.86714V4.51172H14V0H9.48823Z" fill="white"/>
<path d="M12.9062 9.48836V12.1329L9.16011 8.38684L8.38672 9.16023L12.1328 12.9063H9.48823V14.0001H14V9.48836H12.9062Z" fill="white"/>
</g>
<defs>
<clipPath id="clip0_272_71283">
<rect width="14" height="14" fill="white"/>
</clipPath>
</defs>
</svg>
