<svg width="24" height="24" viewBox="0 0 24 24" fill="none" xmlns="http://www.w3.org/2000/svg">
<g clip-path="url(#clip0_1303_24025)">
<path d="M18.0052 18.0016L17.168 17.7129C16.9589 17.6408 16.7315 17.7519 16.6595 17.9607C16.5875 18.1695 16.6985 18.3972 16.9073 18.4692L17.7445 18.7579C18.6746 19.0785 19.2996 19.955 19.2996 20.9389V23.6001C19.2996 23.821 19.4786 24.0001 19.6995 24.0001C19.9204 24.0001 20.0995 23.821 20.0995 23.6001V20.9389C20.0995 19.6139 19.2579 18.4335 18.0052 18.0016Z" fill="white"/>
<path d="M11.6 7.40095V7.85092C11.6 8.07181 11.7791 8.2509 12 8.2509C12.2209 8.2509 12.4 8.07181 12.4 7.85092V7.40095C12.4 7.18007 12.2209 7.00098 12 7.00098C11.7791 7.00098 11.6 7.18007 11.6 7.40095Z" fill="white"/>
<path d="M16.8119 23.2049C14.3349 22.815 11.9869 21.5799 10.2697 19.5451C10.1271 19.3763 9.87479 19.355 9.70605 19.4973C9.53722 19.6398 9.51582 19.8922 9.65831 20.061C11.4506 22.1848 13.9413 23.5629 16.6875 23.9951C16.9062 24.0295 17.1105 23.88 17.1448 23.6622C17.1792 23.444 17.0301 23.2393 16.8119 23.2049Z" fill="white"/>
<path d="M9.23109 16.8888C6.96548 15.5502 6.27907 13.8255 7.19107 11.7625C7.32121 11.468 7.72378 11.4466 7.88372 11.7193L7.94677 11.8268C8.54723 12.8511 10.061 12.7707 10.5471 11.6842L10.6048 11.5551C10.8505 11.0058 11.3982 10.6508 12 10.6508C12.6018 10.6508 13.1495 11.0058 13.3952 11.5551L13.453 11.6842C13.9398 12.7725 15.4537 12.8496 16.0533 11.8268L16.1163 11.7193C16.276 11.4471 16.6786 11.4676 16.809 11.7625C17.3013 12.8769 17.3273 13.9005 16.8863 14.8049C15.8057 17.0207 12.3089 17.9598 11.9137 18.0596C11.8822 18.0675 11.8085 18.0861 11.7358 18.1501C11.4253 18.4235 11.6863 18.9451 12.1096 18.8352C12.8133 18.6526 16.3921 17.6433 17.6053 15.1556C18.1543 14.0296 18.1326 12.7793 17.5407 11.4393C17.4847 11.3127 17.4081 11.1997 17.3166 11.1025C17.3603 10.7069 17.3497 10.7883 17.3497 7.70104C17.3497 7.51095 17.2159 7.34716 17.0298 7.30911C15.856 7.06958 14.7409 6.616 13.7333 5.96595C13.5476 5.8461 13.3001 5.89955 13.1803 6.08514C13.0605 6.27078 13.1139 6.51831 13.2995 6.6381C14.2828 7.27271 15.3788 7.74518 16.5498 8.02242C16.5498 8.02242 16.5473 10.6564 16.5437 10.731C16.0808 10.695 15.65 10.933 15.4263 11.3148L15.3632 11.4223C15.0907 11.8871 14.4038 11.8506 14.1832 11.3575L14.1255 11.2285C13.7511 10.3916 12.9168 9.85085 12 9.85085C11.0833 9.85085 10.249 10.3916 9.87455 11.2284L9.8168 11.3576C9.59592 11.8514 8.90891 11.8863 8.63682 11.4223L8.57378 11.3148C8.34904 10.9313 7.91737 10.6952 7.45635 10.731C7.4479 10.5563 7.45025 10.725 7.45025 8.02242C9.27154 7.59119 10.9337 6.6823 12.2773 5.38943L12.278 5.38868L12.2788 5.38798C12.9496 4.73597 13.529 3.97922 14.001 3.13887C14.1091 2.94623 14.0407 2.70245 13.8481 2.59421C13.6554 2.48616 13.4117 2.55461 13.3034 2.7471C11.9145 5.21999 9.52712 6.78734 6.97028 7.30911C6.78404 7.34716 6.6503 7.51095 6.6503 7.70104V9.81451C6.32562 9.66901 6.09118 9.35308 6.06744 8.97711L5.84725 5.49473C5.74241 3.83648 6.77139 2.31877 8.34964 1.80386L10.8733 0.980608C11.6103 0.740173 12.3897 0.740173 13.1267 0.980608L15.6504 1.80386C17.2286 2.31877 18.2576 3.83648 18.1528 5.49473L17.9674 8.42539C17.9535 8.64583 18.1209 8.83587 18.3414 8.84982C18.5614 8.86382 18.7518 8.69633 18.7658 8.47589L18.9511 5.54522C19.079 3.5227 17.8237 1.67146 15.8985 1.04335L13.3749 0.220055C12.4755 -0.0733267 11.5246 -0.0733767 10.6252 0.220055L8.10151 1.0433C6.17633 1.67141 4.92106 3.52265 5.04885 5.54517L5.26904 9.02755C5.31978 9.82965 5.89915 10.4828 6.6531 10.6556C6.6572 10.805 6.66705 10.9543 6.6834 11.1024C6.59185 11.1996 6.51521 11.3125 6.45931 11.4391C5.43912 13.7469 6.14098 15.7367 8.2614 17.216C8.223 17.2316 8.18435 17.2465 8.14506 17.26C6.00219 17.9988 5.68996 18.0675 5.27299 18.3615C4.44209 18.9473 3.90042 19.8884 3.90042 20.9388V23.6C3.90042 23.8209 4.07951 24 4.3004 24C4.52128 24 4.70037 23.8209 4.70037 23.6V20.9388C4.70037 20.3705 4.90916 19.8384 5.26449 19.4282C5.43757 20.0133 5.7877 20.8048 6.48951 21.4499C6.47746 22.3528 6.78119 23.1849 7.28196 23.8424C7.41545 24.0176 7.66634 24.0523 7.84252 23.9182C8.01826 23.7843 8.05216 23.5334 7.91837 23.3577C7.62864 22.9773 7.4251 22.5264 7.33766 22.044C7.81918 22.2944 8.35724 22.4503 8.91571 22.4986C9.13869 22.5172 9.32978 22.3525 9.34863 22.1345C9.36763 21.9145 9.20464 21.7207 8.98455 21.7016C7.3955 21.5643 6.27802 20.4429 5.95129 18.8881C6.15368 18.7839 6.02834 18.8362 8.40584 18.0163C8.71522 17.9096 9.00395 17.7561 9.26409 17.5598C9.49277 17.3873 9.48037 17.0361 9.23109 16.8888Z" fill="white"/>
</g>
<defs>
<clipPath id="clip0_1303_24025">
<rect width="24" height="24" fill="white"/>
</clipPath>
</defs>
</svg>
