<svg width="72" height="72" viewBox="0 0 72 72" fill="none" xmlns="http://www.w3.org/2000/svg">
<path d="M35.9999 71.9999C55.8822 71.9999 71.9999 55.8822 71.9999 35.9999C71.9999 16.1177 55.8822 0 35.9999 0C16.1177 0 0 16.1177 0 35.9999C0 55.8822 16.1177 71.9999 35.9999 71.9999Z" fill="#31CDDD"/>
<path fill-rule="evenodd" clip-rule="evenodd" d="M71.9366 33.8906C71.9795 34.5901 71.9999 35.2927 71.9999 36C71.9999 55.8689 55.8688 72 35.9999 72C16.1311 72 0 55.8689 0 36C0 35.2927 0.0203906 34.5901 0.0632811 33.8906C1.15326 52.7782 16.8384 67.7812 35.9999 67.7812C55.1615 67.7812 70.8466 52.7782 71.9366 33.8906Z" fill="#5FBBC4"/>
<path fill-rule="evenodd" clip-rule="evenodd" d="M42.6093 37.8919C42.6093 34.2417 39.6502 31.2828 36.0002 31.2828H35.9999C34.247 31.2828 32.5658 31.979 31.3264 33.2186C30.0869 34.4581 29.3905 36.1391 29.3905 37.8921V51.9629C29.3905 53.7158 30.0869 55.397 31.3264 56.6364C32.5658 57.8759 34.247 58.5723 35.9999 58.5723H36.0002C39.6502 58.5723 42.6093 55.6133 42.6093 51.9632V37.8919Z" fill="#F3F3F3"/>
<path d="M35.9999 26.6462C39.6501 26.6462 42.6093 23.6871 42.6093 20.0368C42.6093 16.3866 39.6501 13.4275 35.9999 13.4275C32.3496 13.4275 29.3905 16.3866 29.3905 20.0368C29.3905 23.6871 32.3496 26.6462 35.9999 26.6462Z" fill="#F3F3F3"/>
</svg>
