<svg width="24" height="24" viewBox="0 0 24 24" fill="none" xmlns="http://www.w3.org/2000/svg">
<path d="M12.0034 0.999969C5.92683 0.999969 1 5.94116 1 12C1 18.0781 5.94642 23 12.0034 23C18.082 23 23.0034 18.0807 23.0034 12C23.0034 5.92072 18.0831 0.999969 12.0034 0.999969ZM12.0034 18.8634C12.0033 18.8634 12.0033 18.8634 12.0032 18.8634C12.0031 18.8634 12.0031 18.8634 12.003 18.8634C8.20958 18.8634 5.13734 15.795 5.13734 12C5.13734 8.206 8.20837 5.13656 12.0034 5.13656C15.7961 5.13695 18.8664 8.20643 18.8664 12C18.8664 15.7928 15.7968 18.863 12.0034 18.8634ZM17.2638 7.01257C17.3028 6.97354 19.8033 4.47305 19.6439 4.63253C21.5183 6.57458 22.5681 9.10847 22.6156 11.807H19.2497C19.2029 10.0073 18.5036 8.31835 17.2638 7.01257ZM16.9909 6.73964C15.6851 5.49983 13.9961 4.80004 12.1963 4.75312V1.38755C14.8949 1.43541 17.4288 2.48491 19.371 4.35951L16.9909 6.73964ZM11.8104 1.38755L11.8101 4.75312C10.0099 4.79985 8.32052 5.49908 7.01477 6.73813L4.63803 4.36177C6.50565 2.5616 9.02936 1.43729 11.8104 1.38755ZM4.36519 4.63442L6.74156 7.01097C5.50099 8.31691 4.80082 10.0065 4.75409 11.807H1.38777C1.43751 9.02518 2.56314 6.50167 4.36519 4.63442ZM1.38777 12.1929H4.75409C4.80082 13.9935 5.50099 15.683 6.74156 16.989L4.36519 19.3655C2.56314 17.4983 1.43751 14.9748 1.38777 12.1929ZM7.01477 17.2618C8.32052 18.5009 10.0103 19.2003 11.8104 19.2468V22.6124C9.02936 22.5626 6.50565 21.4383 4.63803 19.6382L7.01477 17.2618ZM12.1963 22.6124V19.2468C13.9961 19.1999 15.6851 18.5001 16.9909 17.2603L19.371 19.6404C17.4288 21.515 14.8949 22.5645 12.1963 22.6124ZM19.6439 19.3674C19.6048 19.3284 17.1043 16.8279 17.2638 16.9874C18.5036 15.6816 19.2029 13.9927 19.2497 12.1929H22.6156C22.5681 14.8918 21.5183 17.4257 19.6439 19.3674Z" fill="#1D39C4"/>
<path d="M7.35909 4.73194C7.45254 4.6805 7.48646 4.56311 7.43483 4.46984C7.21882 4.07768 7.5869 3.62084 8.01554 3.74367C8.14442 3.78098 8.25107 3.86652 8.31626 3.98447L8.73757 4.7487C8.85931 4.97059 9.19853 4.78531 9.07522 4.56255C8.75248 3.90687 8.51775 3.73844 8.61133 3.41563C8.73564 2.98619 9.32114 2.92318 9.53572 3.31275C9.58697 3.4064 9.70492 3.43956 9.79763 3.38868C9.89108 3.33725 9.925 3.21986 9.87337 3.12659C9.47079 2.39558 8.36022 2.57202 8.22163 3.41243C7.43177 3.07775 6.69819 3.93234 7.09718 4.656C7.14888 4.75023 7.26676 4.78283 7.35909 4.73194Z" fill="#1D39C4"/>
<path d="M15.1448 19.6929C14.9023 19.5902 14.618 19.592 14.3698 19.7285C13.7068 20.0937 13.8645 21.0358 14.1893 21.0358C14.3344 21.0358 14.4297 20.8792 14.3581 20.7498C14.2243 20.5069 14.3132 20.2003 14.5559 20.0665C14.799 19.9328 15.1054 20.0213 15.2395 20.2644L15.6604 21.0288C15.7121 21.123 15.83 21.1556 15.9223 21.1047C16.0158 21.0533 16.0497 20.9359 15.9981 20.8426C15.6756 20.1868 15.441 20.0183 15.5346 19.6955C15.6583 19.2682 16.2424 19.2005 16.459 19.5928C16.5102 19.6863 16.6282 19.7198 16.7209 19.6688C16.8143 19.6173 16.8482 19.5 16.7966 19.4067C16.3937 18.6745 15.2827 18.8534 15.1448 19.6929Z" fill="#1D39C4"/>
<path d="M20.6866 8.84473C20.819 9.08587 20.7337 9.39314 20.4884 9.52795C20.2652 9.6508 20.4515 9.98895 20.6746 9.86597C21.3982 9.46745 21.2356 8.35366 20.3888 8.21376C20.7205 7.42905 19.8763 6.68763 19.1453 7.08959C19.0519 7.14103 19.018 7.25842 19.0696 7.35169C19.1208 7.44533 19.2388 7.4785 19.3315 7.42762C19.5746 7.29441 19.8813 7.3824 20.0151 7.62546C20.1488 7.86886 20.0614 8.17408 19.8169 8.30886L19.0526 8.7298C18.9592 8.78124 18.9253 8.89862 18.9769 8.99189C19.0285 9.08572 19.1465 9.11889 19.2388 9.06782L20.003 8.64689C20.2457 8.51274 20.5528 8.60148 20.6866 8.84473Z" fill="#1D39C4"/>
<path d="M4.10992 15.1396C4.22608 14.8658 4.20062 14.5944 4.07369 14.3644C3.66813 13.628 2.5877 13.9104 2.79055 14.2768C2.8418 14.3705 2.96013 14.4038 3.05245 14.3528C3.44654 14.1362 3.90215 14.5065 3.77862 14.9333C3.68533 15.2556 3.39951 15.2715 2.77359 15.6549C2.68013 15.7064 2.64622 15.8238 2.69784 15.917C2.74947 16.0109 2.86742 16.044 2.95975 15.993L3.72398 15.5718C3.96667 15.4382 4.27379 15.5268 4.40757 15.7699C4.54168 16.0142 4.45147 16.32 4.20935 16.4531C4.1159 16.5045 4.08198 16.6219 4.13361 16.7152C4.18531 16.8094 4.30319 16.842 4.39551 16.7911C4.60353 16.6764 4.75464 16.4876 4.82059 16.2592C4.96595 15.7566 4.6499 15.2288 4.10992 15.1396Z" fill="#1D39C4"/>
<path d="M13.5394 3.58775C13.6385 3.62939 13.7508 3.58398 13.7926 3.48582C13.9427 3.13261 14.4493 3.13848 14.5923 3.49467C14.6776 3.70679 14.5729 3.80433 14.5726 3.9007C14.5721 4.05073 14.7421 4.15511 14.8788 4.05381C14.9217 4.0221 14.9173 4.01616 14.9431 3.97741C14.9432 3.97729 14.9432 3.97717 14.9432 3.97705C15.0372 3.7579 15.2903 3.65598 15.5107 3.74942C15.7302 3.84291 15.8335 4.09557 15.7386 4.31694C15.6843 4.44455 15.7784 4.58595 15.9161 4.58582H15.9162C15.9562 4.58576 15.9991 4.56752 16.0292 4.54531C16.1396 4.46377 16.1032 4.32803 16.3303 4.23686C16.6778 4.09526 17.0433 4.44803 16.8891 4.80853C16.8348 4.93589 16.9288 5.07722 17.0666 5.07722C17.3919 5.07722 17.4724 4.16711 16.8126 3.88602C16.6049 3.7966 16.3641 3.78899 16.1213 3.91247C15.9682 3.40466 15.4178 3.19442 14.971 3.42168C14.7463 2.67474 13.732 2.64461 13.4376 3.3347C13.3958 3.43268 13.4414 3.54592 13.5394 3.58775Z" fill="#1D39C4"/>
<path d="M9.15371 20.2826C9.00482 19.7892 8.46391 19.5578 8.00385 19.7918C7.78114 19.0521 6.76836 19.0081 6.47048 19.7044C6.42865 19.8024 6.47425 19.9157 6.57223 19.9577C6.66983 19.9995 6.78364 19.9539 6.82547 19.8559C6.9193 19.6368 7.17254 19.5341 7.39337 19.6279C7.61116 19.7207 7.71635 19.9728 7.62098 20.1955C7.56666 20.3231 7.66051 20.4645 7.79847 20.4643H7.7985C7.88499 20.4642 7.93465 20.4093 7.97597 20.3473C7.97601 20.3472 7.97604 20.3471 7.97608 20.347C8.06961 20.128 8.32386 20.0254 8.54387 20.1193C8.76319 20.213 8.86531 20.4677 8.77185 20.6871C8.701 20.8533 8.87769 21.0218 9.04318 20.928C9.07638 20.9094 9.11051 20.8771 9.12684 20.8386C9.21977 20.6194 9.47247 20.5163 9.69436 20.6107C9.91368 20.7042 10.0158 20.959 9.92235 21.1786C9.88052 21.2766 9.92612 21.3899 10.0241 21.4317C10.1222 21.4733 10.2355 21.4281 10.2773 21.3298C10.5735 20.6342 9.84201 19.9318 9.15371 20.2826Z" fill="#1D39C4"/>
<path d="M5.11071 8.48758C5.19286 8.41993 5.20455 8.29821 5.13671 8.21606C5.06851 8.13335 4.94716 8.12242 4.86501 8.18987C4.80914 8.23592 4.76124 8.28583 4.71044 8.33441L3.43104 7.67928C3.43984 7.60537 3.45268 7.53358 3.45336 7.45597C3.45449 7.34933 3.36895 7.26228 3.2623 7.26115C3.13719 7.2602 3.06861 7.34556 3.06748 7.45221C3.06175 7.9875 2.8175 8.39703 2.40424 8.73761C2.32209 8.80525 2.3104 8.92697 2.37823 9.00913C2.44526 9.09074 2.56637 9.10365 2.64994 9.03532C2.70578 8.98929 2.75369 8.93934 2.80444 8.89075L4.07734 9.54269C4.06882 9.61304 4.06288 9.68683 4.06159 9.76808C4.06008 9.87454 4.14487 9.96235 4.25151 9.96404H4.25453C4.35967 9.96404 4.44559 9.87963 4.44747 9.77411C4.44935 9.65937 4.45915 9.56176 4.47913 9.47151C4.55753 9.0656 4.79289 8.74952 5.11071 8.48758ZM3.35086 8.07154L4.44106 8.62983C4.28173 8.84599 4.22712 8.99966 4.16484 9.15421L3.07351 8.59517C3.19151 8.43502 3.28075 8.2503 3.35086 8.07154Z" fill="#1D39C4"/>
<path d="M18.9001 15.3816C18.8179 15.4492 18.8063 15.5709 18.8741 15.6531C18.9411 15.7347 19.0622 15.7476 19.1458 15.6793C19.2016 15.6333 19.2495 15.5833 19.3003 15.5347L20.5732 16.1867C20.5647 16.2571 20.5587 16.3308 20.5574 16.4121C20.5559 16.5185 20.6407 16.6063 20.7474 16.608H20.7504C20.8555 16.608 20.9414 16.5236 20.9433 16.4181C20.9522 15.878 21.1881 15.4765 21.6066 15.1315C21.6887 15.0639 21.7004 14.9422 21.6326 14.86C21.5644 14.7773 21.443 14.7664 21.3609 14.8338C21.305 14.8799 21.2571 14.9298 21.2064 14.9784L19.9269 14.3232C19.9357 14.2494 19.9485 14.1776 19.9492 14.0999C19.9503 13.9933 19.8648 13.9062 19.7582 13.9051C19.6666 13.9 19.5645 13.9895 19.5633 14.0962C19.5591 14.4916 19.4268 14.8442 19.1265 15.1704C19.0581 15.2431 18.9823 15.3138 18.9001 15.3816ZM20.6607 15.7982L19.5694 15.2391C19.7744 14.96 19.8265 14.7561 19.8467 14.7155L20.9369 15.274C20.7676 15.5041 20.697 15.7046 20.6607 15.7982Z" fill="#1D39C4"/>
<path d="M14.8037 9.76605C14.4057 9.71969 14.0214 9.90171 13.8066 10.2426C13.7435 10.3424 13.6841 10.4507 13.6269 10.5647C13.6282 9.96488 13.607 9.41968 13.5432 8.96714C13.4795 8.51305 13.1622 8.16164 12.7152 8.04991C12.2683 7.93799 11.8233 8.0989 11.5534 8.46933C11.4607 8.59668 11.3695 8.74033 11.2786 8.90051C11.1846 8.50699 10.8908 8.20312 10.4855 8.09551C10.0464 7.97793 9.60667 8.12754 9.33648 8.48271C9.21191 8.64605 9.08915 8.83383 8.9688 9.04338C8.87331 8.39599 8.52681 7.89484 8.24552 7.55361C8.17769 7.4707 8.05597 7.45959 7.97382 7.52742C7.89167 7.59506 7.87998 7.71678 7.94781 7.79893C8.44411 8.40131 8.64761 8.93096 8.60729 9.52939V14.9487C8.60729 15.0554 8.69358 15.1417 8.80023 15.1417C8.90688 15.1417 8.99317 15.0554 8.99317 14.9487L8.99282 9.84228C9.20218 9.38772 9.42101 9.00836 9.64322 8.71635C9.85124 8.44314 10.1625 8.40866 10.3864 8.46839C10.614 8.52887 10.8736 8.71767 10.9196 9.06625C11.1093 10.4963 10.8906 12.8637 10.8224 15.0403C10.8193 15.147 10.903 15.2359 11.0093 15.2393H11.0153C11.1193 15.2393 11.2049 15.1568 11.2082 15.0524C11.2651 13.2074 11.4433 11.077 11.3545 9.60162C11.5269 9.2289 11.6945 8.93136 11.8655 8.69657C12.0746 8.40923 12.3927 8.36664 12.6218 8.4243C12.8498 8.48139 13.1113 8.66812 13.161 9.02103C13.3624 10.4503 13.1373 12.8525 13.0706 15.0303C13.0684 15.0557 13.0484 15.3421 13.1285 15.7329C12.5762 16.0347 11.9864 16.2294 11.4129 16.3781C11.3096 16.4049 11.2474 16.51 11.2742 16.6133C11.3016 16.7187 11.4099 16.7781 11.5093 16.7516C12.0649 16.6076 12.6602 16.4122 13.2323 16.1093C13.3711 16.5116 13.6226 16.9623 14.0824 17.3447C14.1631 17.4122 14.2847 17.4026 14.3541 17.3198C14.4219 17.2379 14.411 17.1161 14.3289 17.0481C13.9102 16.6998 13.6905 16.2778 13.5759 15.9116C14.5086 15.3286 15.34 14.4079 15.7725 12.8614C15.9681 12.0333 15.9342 11.25 15.6685 10.4666C15.5378 10.082 15.2065 9.81353 14.8037 9.76605ZM15.3991 12.7651C15.0155 14.1359 14.31 14.9744 13.4854 15.5196C13.4432 15.2483 13.4551 15.0607 13.4557 15.0524C13.4888 13.9812 13.5615 12.8298 13.6021 11.7233C13.7496 11.2027 13.9281 10.7733 14.1329 10.4483C14.2701 10.2313 14.506 10.1191 14.7585 10.1493C15.0159 10.1796 15.2193 10.3447 15.303 10.5906C15.5446 11.3034 15.5755 12.0171 15.3991 12.7651Z" fill="#1D39C4"/>
</svg>
