<svg width="20" height="20" viewBox="0 0 20 20" fill="none" xmlns="http://www.w3.org/2000/svg">
<path d="M2.5 15.8335H2.50833" stroke="#1D39C4" stroke-linecap="round" stroke-linejoin="round"/>
<path d="M5.83333 15.8333C5.83333 14.9493 5.48214 14.1014 4.85702 13.4763C4.2319 12.8512 3.38406 12.5 2.5 12.5" stroke="#1D39C4" stroke-linecap="round" stroke-linejoin="round"/>
<path d="M9.16667 15.8332C9.16667 14.0651 8.46429 12.3694 7.21405 11.1191C5.9638 9.86888 4.26811 9.1665 2.5 9.1665" stroke="#1D39C4" stroke-linecap="round" stroke-linejoin="round"/>
<path d="M12.4993 15.8332H14.9993C15.6624 15.8332 16.2983 15.5698 16.7671 15.1009C17.236 14.6321 17.4993 13.9962 17.4993 13.3332V6.6665C17.4993 6.00346 17.236 5.36758 16.7671 4.89874C16.2983 4.4299 15.6624 4.1665 14.9993 4.1665H4.99935C4.48641 4.17137 3.98739 4.33391 3.56998 4.63206C3.15257 4.93021 2.83698 5.34954 2.66602 5.83317" stroke="#1D39C4" stroke-linecap="round" stroke-linejoin="round"/>
</svg>
