<svg width="40" height="40" viewBox="0 0 40 40" fill="none" xmlns="http://www.w3.org/2000/svg">
<path d="M15 8.16992H30C30.8841 8.16992 31.7319 8.51423 32.357 9.12709C32.9822 9.73995 33.3334 10.5712 33.3334 11.4379V26.1438M33.0384 32.3921C32.7741 32.965 32.3469 33.4511 31.808 33.7919C31.2691 34.1327 30.6413 34.3139 30 34.3137H10C9.11597 34.3137 8.26812 33.9694 7.643 33.3565C7.01788 32.7437 6.66669 31.9125 6.66669 31.0457V11.4379C6.66634 10.8093 6.8509 10.194 7.19824 9.66567C7.54558 9.13734 8.04097 8.71842 8.62502 8.45914L33.0384 32.3921Z" stroke="#F62D38" stroke-linecap="round" stroke-linejoin="round"/>
<path d="M26.6667 4.90186V11.4378" stroke="#F62D38" stroke-linecap="round" stroke-linejoin="round"/>
<path d="M13.3333 4.90186V6.53584" stroke="#F62D38" stroke-linecap="round" stroke-linejoin="round"/>
<path d="M25 17.9736H33.3334M6.66669 17.9736H18.3334H6.66669Z" stroke="#F62D38" stroke-linecap="round" stroke-linejoin="round"/>
<path d="M18.3333 24.5098H20" stroke="#F62D38" stroke-linecap="round" stroke-linejoin="round"/>
<path d="M20 24.5098V29.4117" stroke="#F62D38" stroke-linecap="round" stroke-linejoin="round"/>
<path d="M5 4.90186L35 34.3136" stroke="#F62D38" stroke-linecap="round" stroke-linejoin="round"/>
</svg>
