<svg width="89" height="90" viewBox="0 0 89 90" fill="none" xmlns="http://www.w3.org/2000/svg">
<path d="M43.0664 3.86719C19.2814 3.86719 0 23.1486 0 46.9336C0 57.3648 3.70916 66.9294 9.87979 74.3817C16.0504 81.8339 16.5533 81.8205 30.1521 83.4363L37.428 89.6326C39.2736 89.874 41.1551 90 43.0664 90C66.8514 90 86.1328 70.7186 86.1328 46.9336C86.1328 23.1486 66.8514 3.86719 43.0664 3.86719Z" fill="#843125"/>
<path d="M43.0664 74.1797C61.5119 74.1797 76.4648 59.2267 76.4648 40.7812C76.4648 22.3358 61.5119 7.38281 43.0664 7.38281C24.621 7.38281 9.66797 22.3358 9.66797 40.7812C9.66797 59.2267 24.621 74.1797 43.0664 74.1797Z" fill="#682316"/>
<path d="M86.2389 45.9883C82.7823 33.6435 72.9771 29.2699 65.429 30.3281C57.881 31.3863 51.8144 39.2869 49.0633 46.341C46.3121 53.3951 40.2357 54.2632 38.4837 52.8989C38.3796 52.8261 38.2763 52.7553 38.1734 52.6862C36.1191 51.3032 35.8798 48.3968 37.6798 46.6959C49.5359 35.4941 42.0983 21.4237 31.216 19.3235C21.5428 17.4567 11.3933 23.0068 7.75201 25.2787C6.95572 25.7755 6.69346 26.8117 7.15348 27.6298L11.8301 35.9466C12.3589 36.8868 13.6001 37.1329 14.4484 36.4669C16.8204 34.6047 21.6245 31.4088 27.1247 30.9628C34.9549 30.3279 39.399 34.772 35.8013 40.8386C33.2201 45.1909 25.2834 44.8051 21.0043 44.2394C19.7224 44.0699 18.7058 45.3025 19.1092 46.5312L22.4728 56.7728C22.7732 57.6877 23.7546 58.1884 24.6732 57.899C36.153 54.2841 40.9534 61.5989 38.7287 69.6493C36.4009 78.0734 24.2324 83.2342 12.4872 76.2604C11.5603 75.7101 10.6925 75.0781 9.87932 74.3815C16.6481 82.5562 26.3792 88.1875 37.4276 89.6325C44.4182 86.0272 48.769 78.5477 47.8286 69.6493C47.3344 64.974 45.8751 61.3744 44.0572 58.6187C54.937 59.5252 60.6151 50.1393 62.2518 45.3226C63.9776 40.2435 69.0969 35.7597 74.8813 37.735C90.7484 43.1531 79.439 74.7123 63.2747 71.3834C58.1251 70.3229 55.6496 66.1344 54.5188 63.1529C54.1978 62.3069 52.9623 62.4291 52.8259 63.3236C51.1552 74.2887 58.1278 89.8583 73.1177 83.7986C89.6955 77.0971 89.6955 58.333 86.2389 45.9883Z" fill="#FCB332"/>
<path d="M37.6604 9.43717C37.4732 8.44172 38.8138 7.94373 39.3189 8.82176C41.5052 12.6234 45.2156 17.2802 50.5448 18.0673C58.9004 19.3015 66.3909 14.1138 71.139 10.0318C71.9175 9.36246 73.0966 9.48146 73.7254 10.2932L78.8774 16.9451C79.4647 17.7035 79.3504 18.7875 78.6206 19.4099C75.7599 21.8494 68.3054 27.3097 58.7276 27.4739C47.8068 27.6611 40.1983 22.9351 37.6604 9.43717Z" fill="#FCB332"/>
<path d="M60.5393 8.54262L55.0578 14.0242C54.3574 14.7245 53.2221 14.7245 52.5219 14.0242L47.0404 8.54262C46.3401 7.84231 46.3401 6.70693 47.0404 6.0068L52.5219 0.525234C53.2222 -0.175078 54.3576 -0.175078 55.0578 0.525234L60.5393 6.0068C61.2395 6.70693 61.2395 7.84231 60.5393 8.54262Z" fill="#FCB332"/>
<path d="M47.0404 6.0066C46.3401 6.70691 46.3401 7.84228 47.0404 8.54242L52.5219 14.024C53.2222 14.7243 54.3576 14.7243 55.0578 14.024L58.1211 10.9606C50.4549 10.9606 48.9581 4.08883 50.903 2.14398L47.0404 6.0066Z" fill="#FB8B24"/>
<path d="M51.0681 20.0995C51.0681 19.4296 51.159 18.7814 51.3261 18.1645C51.0665 18.1383 50.8062 18.106 50.5448 18.0673C45.2156 17.2802 41.5052 12.6234 39.3189 8.82176C38.8138 7.94373 37.4732 8.44172 37.6604 9.43717C40.1711 22.79 47.6444 27.5579 58.3774 27.4774C54.3343 27.4396 51.0681 24.1516 51.0681 20.0995Z" fill="#FB8B24"/>
<path d="M47.8288 69.6495C47.3347 64.9742 45.8754 61.3746 44.0575 58.6188C36.8692 57.2736 22.7018 50.7187 34.0116 45.0002C45.3213 39.2817 40.2949 22.2647 27.3693 24.329C17.949 25.8337 11.9658 29.6721 9.41113 31.6447L11.8302 35.9468C12.359 36.887 13.6002 37.1333 14.4485 36.4671C16.8205 34.6048 21.6246 31.409 27.1248 30.963C34.955 30.3281 39.3991 34.7722 35.8014 40.8387C33.2202 45.1911 25.2835 44.8053 21.0044 44.2396C19.7225 44.0701 18.7059 45.3027 19.1093 46.5314L22.4729 56.773C22.7733 57.6879 23.7547 58.1885 24.6733 57.8992C36.1531 54.2843 40.9535 61.599 38.729 69.6495C36.4011 78.0736 24.2327 83.2344 12.4875 76.2606C11.5606 75.7102 10.6928 75.0783 9.87959 74.3817C16.6484 82.5564 26.3795 88.1877 37.4279 89.6326C44.4185 86.0274 48.7693 78.5479 47.8288 69.6495Z" fill="#FB8B24"/>
</svg>
