<svg width="16" height="16" viewBox="0 0 16 16" fill="none" xmlns="http://www.w3.org/2000/svg">
<g clip-path="url(#clip0_272_71296)">
<path d="M15.2973 9.27172L14.6316 8.72378C14.1757 8.34844 14.1765 7.65081 14.6317 7.27622L15.2973 6.72828C15.7709 6.33831 15.8921 5.66963 15.5853 5.13822L14.271 2.86178C13.9642 2.33041 13.3244 2.10103 12.7499 2.31622L11.9426 2.61869C11.3896 2.82581 10.7858 2.47647 10.6889 1.89491L10.5472 1.04447C10.4463 0.439281 9.92782 0 9.31425 0H6.68566C6.07206 0 5.5535 0.439281 5.45266 1.0445L5.31091 1.89491C5.21382 2.4775 4.60925 2.82547 4.05728 2.61872L3.24994 2.31622C2.67547 2.10103 2.03572 2.33044 1.72888 2.86178L0.414596 5.13819C0.107815 5.66953 0.22894 6.33825 0.702659 6.72825L1.36825 7.27619C1.82425 7.65156 1.82335 8.34912 1.36825 8.72375L0.702627 9.27169C0.22894 9.66169 0.107784 10.3304 0.414565 10.8617L1.72888 13.1382C2.03569 13.6695 2.67531 13.8989 3.24994 13.6838L4.05725 13.3813C4.61035 13.1741 5.21397 13.5237 5.31088 14.1051L5.45263 14.9554C5.5535 15.5607 6.07206 16 6.68563 16H9.31422C9.92778 16 10.4463 15.5607 10.5472 14.9555L10.6889 14.1051C10.786 13.5227 11.3905 13.1745 11.9426 13.3813L12.7499 13.6838C13.3245 13.899 13.9642 13.6696 14.271 13.1382L15.5853 10.8617C15.8921 10.3304 15.7709 9.66169 15.2973 9.27172ZM13.1885 12.5132L12.3811 12.2107C11.0905 11.7273 9.68206 12.5429 9.45597 13.8996L9.31425 14.75H6.68566L6.54391 13.8996C6.31738 12.5403 4.90685 11.7282 3.61875 12.2107L2.81141 12.5132L1.49713 10.2368L2.16272 9.68884C3.22675 8.81291 3.22453 7.18528 2.16272 6.31116L1.49713 5.76322L2.81144 3.48678L3.61875 3.78925C4.90938 4.27269 6.31781 3.45706 6.54391 2.10041L6.68563 1.25H9.31422L9.45594 2.10041C9.6825 3.45984 11.0931 4.27169 12.3811 3.78925L13.1884 3.48678L14.503 5.76291C14.503 5.76291 14.5029 5.763 14.5027 5.76319L13.8371 6.31112C12.7731 7.187 12.7753 8.81466 13.8371 9.68881L14.5027 10.2367L13.1885 12.5132ZM7.99994 4.91666C6.29978 4.91666 4.9166 6.29984 4.9166 8C4.9166 9.70016 6.29978 11.0833 7.99994 11.0833C9.7001 11.0833 11.0833 9.70016 11.0833 8C11.0833 6.29984 9.7001 4.91666 7.99994 4.91666ZM7.99994 9.83334C6.98903 9.83334 6.1666 9.01091 6.1666 8C6.1666 6.98909 6.98903 6.16666 7.99994 6.16666C9.01085 6.16666 9.83328 6.98909 9.83328 8C9.83328 9.01091 9.01085 9.83334 7.99994 9.83334Z" fill="white"/>
</g>
<defs>
<clipPath id="clip0_272_71296">
<rect width="16" height="16" fill="white"/>
</clipPath>
</defs>
</svg>
