<svg width="24" height="24" viewBox="0 0 24 24" fill="none" xmlns="http://www.w3.org/2000/svg">
<path d="M15.0029 12.8996C16.056 13.1139 17.1501 12.9832 18.1231 12.5269C19.0961 12.0705 19.8961 11.3129 20.4047 10.3661C20.9133 9.41942 21.1033 8.33404 20.9466 7.27086C20.7898 6.20767 20.2947 5.22328 19.5346 4.46357C18.7745 3.70385 17.7899 3.20926 16.7266 3.05308C15.6634 2.89691 14.5781 3.08747 13.6316 3.59652C12.6852 4.10557 11.9279 4.90601 11.4721 5.87922C11.0162 6.85243 10.8861 7.94661 11.1009 8.99958" stroke="#E55039" stroke-linecap="round" stroke-linejoin="round"/>
<path d="M15.0016 12.9L11.0996 9.00098L3.58655 17.585C3.21127 17.9599 3.00028 18.4685 3 18.9989C2.99986 19.2616 3.05146 19.5217 3.15184 19.7644C3.25222 20.0071 3.39943 20.2277 3.58505 20.4135C3.77068 20.5993 3.99108 20.7467 4.23369 20.8474C4.47629 20.948 4.73634 20.9999 4.99899 21C5.52944 21.0003 6.03827 20.7899 6.41355 20.415L15.0016 12.9V12.9Z" stroke="#E55039" stroke-linecap="round" stroke-linejoin="round"/>
</svg>
