<svg width="8" height="10" viewBox="0 0 8 10" fill="none" xmlns="http://www.w3.org/2000/svg">
<g clip-path="url(#clip0_0_399)">
<path d="M5.92578 2.83496C5.81188 2.83496 5.71953 2.71953 5.71953 2.57715V0.600586H2.76328C2.4221 0.600586 2.14453 0.94755 2.14453 1.37402V4.25618C2.21248 4.24848 2.28125 4.24434 2.35078 4.24434C3.05379 4.24434 3.68312 4.64611 4.09959 5.27559H6.33828C6.45219 5.27559 6.54453 5.39102 6.54453 5.5334C6.54453 5.67578 6.45219 5.79121 6.33828 5.79121H4.37132C4.50024 6.10567 4.58337 6.45405 4.61006 6.82246H6.33828C6.45219 6.82246 6.54453 6.93789 6.54453 7.08027C6.54453 7.22265 6.45219 7.33809 6.33828 7.33809H4.61006C4.54838 8.18954 4.18444 8.93353 3.6537 9.40059H6.88828C7.22946 9.40059 7.50703 9.05362 7.50703 8.62715V2.83496H5.92578ZM6.33828 4.24434H3.31328C3.19938 4.24434 3.10703 4.1289 3.10703 3.98652C3.10703 3.84414 3.19938 3.72871 3.31328 3.72871H6.33828C6.45219 3.72871 6.54453 3.84414 6.54453 3.98652C6.54453 4.1289 6.45219 4.24434 6.33828 4.24434Z" fill="white"/>
<path d="M6.13184 0.751953V2.31975H7.38599L6.13184 0.751953Z" fill="#CE1322"/>
<path d="M2.35039 4.76001C1.32685 4.76001 0.494141 5.8009 0.494141 7.08032C0.494141 8.35974 1.32685 9.40064 2.35039 9.40064C3.37393 9.40064 4.20664 8.35974 4.20664 7.08032C4.20664 5.8009 3.37393 4.76001 2.35039 4.76001ZM3.11497 7.67147C3.19552 7.77214 3.19552 7.93538 3.11497 8.03607C3.07471 8.08639 3.02193 8.11157 2.96914 8.11157C2.91635 8.11157 2.86357 8.08639 2.82331 8.03605L2.35039 7.44492L1.87747 8.03607C1.83721 8.08639 1.78443 8.11157 1.73164 8.11157C1.67885 8.11157 1.62607 8.08639 1.58581 8.03605C1.50526 7.93538 1.50526 7.77214 1.58581 7.67145L2.05871 7.08032L1.58579 6.48918C1.50525 6.38851 1.50525 6.22526 1.58579 6.12458C1.66633 6.02391 1.79693 6.02391 1.87747 6.12458L2.35039 6.71572L2.82331 6.12458C2.90384 6.02391 3.03444 6.02391 3.11499 6.12458C3.19553 6.22524 3.19553 6.38849 3.11499 6.48918L2.64207 7.08032L3.11497 7.67147Z" fill="white"/>
</g>
<defs>
<clipPath id="clip0_0_399">
<rect width="8" height="10" fill="white"/>
</clipPath>
</defs>
</svg>
