<svg width="56" height="72" viewBox="0 0 56 72" fill="none" xmlns="http://www.w3.org/2000/svg">
<path d="M28 12.9575C27.4053 12.9575 26.9233 12.4755 26.9233 11.8809V1.09151C26.9233 0.496865 27.4053 0.0148206 28 0.0148206C28.5946 0.0148206 29.0767 0.496865 29.0767 1.09151V11.8809C29.0767 12.4755 28.5946 12.9575 28 12.9575Z" fill="#918291"/>
<path d="M5.24102 48.6123H50.7589V67.1887H5.24102V48.6123Z" fill="#FE7D43"/>
<path d="M33.2296 67.1887H22.7704V55.0067C22.7704 54.1239 23.4861 53.4081 24.369 53.4081H31.6308C32.5138 53.4081 33.2294 54.1239 33.2294 55.0067V67.1887H33.2296Z" fill="#FEAD8A"/>
<path d="M43.3644 43.8162H12.6356L15.8615 22.3316C16.7646 16.3248 21.9257 11.8814 28 11.8814C34.0759 11.8814 39.234 16.3248 40.1385 22.3316L43.3644 43.8162Z" fill="#FE7D43"/>
<path d="M40.1385 22.3317C39.6863 19.3283 38.1702 16.7154 36.0082 14.8534C34.6382 13.6744 33.0083 12.7978 31.2256 12.3126C31.3871 12.4381 31.5463 12.5665 31.7012 12.6999C33.8634 14.5618 35.3794 17.1748 35.8316 20.1782L38.2592 36.3508C38.6794 39.1474 36.5137 41.6628 33.6859 41.6628H12.9592L12.6356 43.8163H43.3644L40.1385 22.3317Z" fill="#FD6930"/>
<path d="M16.0105 21.5393H39.9893C39.6018 19.7575 38.8363 18.1317 37.7831 16.7434H18.2167C17.1637 18.1319 16.3982 19.7576 16.0105 21.5393Z" fill="#FEDF30"/>
<path d="M39.5313 19.9545C39.2466 19.1706 38.8753 18.1709 37.7826 16.7434H34.7822C35.2874 17.8087 35.6482 18.9605 35.8314 20.1781L36.0356 21.5393H39.9893C39.8712 20.9957 39.7173 20.4668 39.5313 19.9545Z" fill="#FED402"/>
<path d="M34.7447 43.8162H21.2552L23.6528 21.5392H32.3471L34.7447 43.8162Z" fill="#FD6930"/>
<path d="M33.6858 41.6628H21.4869L21.2552 43.8163H34.7447L34.5053 41.5899C34.2398 41.637 33.9662 41.6628 33.6858 41.6628Z" fill="#FD5426"/>
<path d="M34.1776 38.543C34.1389 38.5487 34.1001 38.5501 34.0612 38.5501H21.9386C21.8999 38.5501 21.8612 38.5487 21.8223 38.543L22.0535 36.3967H33.9464L34.1776 38.543Z" fill="#FEDF30"/>
<path d="M33.1382 28.9586H22.8543L23.0842 26.8181C23.1359 26.8094 32.8682 26.808 32.9156 26.8167L33.1382 28.9586Z" fill="#FEDF30"/>
<path d="M41.126 28.9069C41.0629 28.9198 40.9982 28.9255 40.9308 28.9255H37.8241C37.2297 28.9255 36.7474 28.4432 36.7474 27.8489C36.7474 27.2545 37.2298 26.7722 37.8241 26.7722H40.8045L41.126 28.9069Z" fill="#FED402"/>
<path d="M42.566 38.5043C42.5143 38.5129 42.4612 38.5173 42.4067 38.5173H39.3C38.7056 38.5173 38.2233 38.0349 38.2233 37.4406C38.2233 36.8462 38.7058 36.3639 39.3 36.3639H42.2459L42.566 38.5043Z" fill="#FED402"/>
<path d="M19.2167 27.8489C19.2167 28.4432 18.7357 28.9256 18.14 28.9256H15.0332C14.9788 28.9256 14.9255 28.9212 14.874 28.9126L15.1956 26.772H18.1401C18.7356 26.772 19.2167 27.2545 19.2167 27.8489Z" fill="#FEDF30"/>
<path d="M17.7766 37.4405C17.7766 38.0348 17.2942 38.5172 16.7 38.5172H13.5932C13.5387 38.5172 13.4855 38.5128 13.4338 38.5042L13.7539 36.3636H16.6998C17.2942 36.3638 17.7766 36.8461 17.7766 37.4405Z" fill="#FEDF30"/>
<path d="M42.3192 48.6128H48.1164V67.1887H42.3192V48.6128Z" fill="#FD6930"/>
<path d="M40.1658 48.6128H45.963V67.1887H40.1658V48.6128Z" fill="#FD6930"/>
<path d="M40.1658 52.331H45.963V54.4845H40.1658V52.331Z" fill="#FEDF30"/>
<path d="M40.1658 57.1276H45.963V59.2811H40.1658V57.1276Z" fill="#FEDF30"/>
<path d="M40.1658 61.9227H45.963V64.0762H40.1658V61.9227Z" fill="#FEDF30"/>
<path d="M12.1905 48.6128H17.9877V67.1887H12.1905V48.6128Z" fill="#FD6930"/>
<path d="M10.0371 48.6128H15.8343V67.1887H10.0371V48.6128Z" fill="#FD6930"/>
<path d="M10.0371 52.331H15.8343V54.4845H10.0371V52.331Z" fill="#FEDF30"/>
<path d="M10.0371 57.1276H15.8343V59.2811H10.0371V57.1276Z" fill="#FEDF30"/>
<path d="M10.0371 61.9227H15.8343V64.0762H10.0371V61.9227Z" fill="#FEDF30"/>
<path d="M54.3097 71.352H1.69015C0.756721 71.352 0 70.3879 0 69.1985V67.7628C0 67.4457 0.257118 67.1885 0.5743 67.1885H55.4257C55.7429 67.1885 56 67.4457 56 67.7628V69.1985C55.9999 70.3879 55.2432 71.352 54.3097 71.352Z" fill="#918291"/>
<path d="M26.9233 7.83702V1.10554C26.9233 0.495005 27.4183 0 28.0288 0H35.0222C35.7917 0 36.1171 0.980672 35.5002 1.4407L26.9233 7.83702Z" fill="#FE646F"/>
<path d="M35.022 0H32.8685C32.5466 0.697355 31.9756 1.70325 30.9868 2.66441C29.4565 4.15208 27.772 4.71007 26.9231 4.92733V7.83702L35.5 1.4407C36.1169 0.980672 35.7915 0 35.022 0V0Z" fill="#FD4755"/>
<path d="M5.24106 43.8163H50.759C52.0833 43.8163 53.1569 44.8899 53.1569 46.2142C53.1569 47.5386 52.0833 48.6122 50.759 48.6122H5.24106C3.91672 48.6122 2.8431 47.5386 2.8431 46.2142C2.8431 44.8899 3.91672 43.8163 5.24106 43.8163Z" fill="#FEDF30"/>
<path d="M50.7589 43.8163H48.8375C48.8456 43.8967 48.8499 43.9782 48.8499 44.0607C48.8499 45.3851 47.7763 46.4587 46.452 46.4587H2.85547C2.97796 47.6682 3.99919 48.6122 5.24102 48.6122H50.7589C52.0832 48.6122 53.1568 47.5386 53.1568 46.2142C53.1568 44.8899 52.0832 43.8163 50.7589 43.8163Z" fill="#FED402"/>
</svg>
