<svg width="40" height="40" viewBox="0 0 40 40" fill="none" xmlns="http://www.w3.org/2000/svg">
<path d="M23.3333 13.3332V9.99984C23.3333 9.11578 22.9821 8.26794 22.357 7.64281C21.7319 7.01769 20.8841 6.6665 20 6.6665H8.33333C7.44928 6.6665 6.60143 7.01769 5.97631 7.64281C5.35119 8.26794 5 9.11578 5 9.99984V29.9998C5 30.8839 5.35119 31.7317 5.97631 32.3569C6.60143 32.982 7.44928 33.3332 8.33333 33.3332H20C20.8841 33.3332 21.7319 32.982 22.357 32.3569C22.9821 31.7317 23.3333 30.8839 23.3333 29.9998V26.6665" stroke="#F62D38" stroke-width="2" stroke-linecap="round" stroke-linejoin="round"/>
<path d="M11.6666 20H35M35 20L30 15M35 20L30 25" stroke="#F62D38" stroke-width="3" stroke-linecap="round" stroke-linejoin="round"/>
</svg>
