<svg width="129" height="96" viewBox="0 0 129 96" fill="none" xmlns="http://www.w3.org/2000/svg">
<path fill-rule="evenodd" clip-rule="evenodd" d="M7.45306 64.5469C4.27176 64.61 1.63418 62.0886 1.56669 59.1994C1.49728 56.3086 4.02111 54.1444 7.20241 54.0813H115.893C119.076 54.0183 121.712 56.3103 121.781 59.1994C121.851 62.0903 119.325 64.4839 116.144 64.5469H7.45306Z" fill="#F6F6F6"/>
<path fill-rule="evenodd" clip-rule="evenodd" d="M5.8142 82.8624C3.51842 82.9254 1.615 80.404 1.5663 77.5149C1.51621 74.624 3.33754 72.4598 5.63332 72.3968H84.0698C86.367 72.3338 88.269 74.6258 88.3191 77.5149C88.3692 80.4058 86.5465 82.7994 84.2507 82.8624H5.8142Z" fill="#F6F6F6"/>
<path fill-rule="evenodd" clip-rule="evenodd" d="M15.1665 69.2909C15.1248 67.3151 13.621 64.4016 11.5573 63.8074C12.1226 63.6198 12.7314 63.8204 13.3728 63.8074H56.0632C59.0128 63.7424 61.4461 65.733 61.5005 68.2566C61.5548 70.782 59.2067 72.8822 56.257 72.9472H13.5666C12.927 72.962 12.3128 73.1106 11.7385 72.9472C13.7768 72.262 15.2081 70.2305 15.1665 68.2566" fill="#F6F6F6"/>
<path fill-rule="evenodd" clip-rule="evenodd" d="M77.7273 69.2909C77.769 67.3151 79.2728 64.4016 81.3365 63.8074C80.7712 63.6198 80.1624 63.8204 79.5211 63.8074H36.8306C33.881 63.7424 31.4477 65.733 31.3933 68.2566C31.339 70.782 33.6871 72.8822 36.6368 72.9472H79.3272C79.9668 72.962 80.581 73.1106 81.1553 72.9472C79.117 72.262 77.6857 70.2305 77.7273 68.2566" fill="#F6F6F6"/>
<path fill-rule="evenodd" clip-rule="evenodd" d="M128.631 76.1887H125.213V72.7101H124.561V76.1887H121.14V76.7698H124.561V80.279H125.213V76.7698H128.631V76.1887Z" fill="#101425"/>
<path fill-rule="evenodd" clip-rule="evenodd" d="M113.419 6.50903H110V3.03043H109.348V6.50903H105.927V7.09016H109.348V10.5993H110V7.09016H113.419V6.50903Z" fill="#101425"/>
<path fill-rule="evenodd" clip-rule="evenodd" d="M116.526 64.0868H113.107V60.6082H112.455V64.0868H109.034V64.668H112.455V68.1772H113.107V64.668H116.526V64.0868Z" fill="#101425"/>
<path fill-rule="evenodd" clip-rule="evenodd" d="M128.253 65.1756C128.253 66.5683 127.134 67.6986 125.755 67.6986C124.377 67.6986 123.258 66.5683 123.258 65.1756C123.258 63.7829 124.377 62.6526 125.755 62.6526C127.134 62.6526 128.253 63.7829 128.253 65.1756Z" fill="white"/>
<path fill-rule="evenodd" clip-rule="evenodd" d="M128.253 65.1756C128.253 66.5683 127.134 67.6986 125.755 67.6986C124.377 67.6986 123.258 66.5683 123.258 65.1756C123.258 63.7829 124.377 62.6526 125.755 62.6526C127.134 62.6526 128.253 63.7829 128.253 65.1756Z" stroke="#101425" stroke-width="0.154256"/>
<path fill-rule="evenodd" clip-rule="evenodd" d="M14.0009 21.4837H10.5822V18.0051H9.92804V21.4837H6.50931V22.0648H9.92804V25.574H10.5822V22.0648H14.0009V21.4837Z" fill="#101425"/>
<path fill-rule="evenodd" clip-rule="evenodd" d="M35.3411 93.3995C35.3411 94.7922 34.2241 95.9224 32.8439 95.9224C31.4638 95.9224 30.3467 94.7922 30.3467 93.3995C30.3467 92.0068 31.4638 90.8765 32.8439 90.8765C34.2241 90.8765 35.3411 92.0068 35.3411 93.3995Z" fill="white"/>
<path fill-rule="evenodd" clip-rule="evenodd" d="M35.3411 93.3995C35.3411 94.7922 34.2241 95.9224 32.8439 95.9224C31.4638 95.9224 30.3467 94.7922 30.3467 93.3995C30.3467 92.0068 31.4638 90.8765 32.8439 90.8765C34.2241 90.8765 35.3411 92.0068 35.3411 93.3995Z" stroke="#101425" stroke-width="0.154256"/>
<path fill-rule="evenodd" clip-rule="evenodd" d="M101.919 2.60045C101.919 3.99313 100.8 5.12342 99.4219 5.12342C98.0435 5.12342 96.9247 3.99313 96.9247 2.60045C96.9247 1.20777 98.0435 0.0774802 99.4219 0.0774802C100.8 0.0774802 101.919 1.20777 101.919 2.60045Z" fill="white"/>
<path fill-rule="evenodd" clip-rule="evenodd" d="M101.919 2.60045C101.919 3.99313 100.8 5.12342 99.4219 5.12342C98.0435 5.12342 96.9247 3.99313 96.9247 2.60045C96.9247 1.20777 98.0435 0.0774802 99.4219 0.0774802C100.8 0.0774802 101.919 1.20777 101.919 2.60045Z" stroke="#101425" stroke-width="0.154256"/>
<path fill-rule="evenodd" clip-rule="evenodd" d="M5.07189 14.7012C5.07189 16.0939 3.95481 17.2242 2.57469 17.2242C1.19456 17.2242 0.0774802 16.0939 0.0774802 14.7012C0.0774802 13.3085 1.19456 12.1782 2.57469 12.1782C3.95481 12.1782 5.07189 13.3085 5.07189 14.7012Z" fill="white"/>
<path fill-rule="evenodd" clip-rule="evenodd" d="M5.07189 14.7012C5.07189 16.0939 3.95481 17.2242 2.57469 17.2242C1.19456 17.2242 0.0774802 16.0939 0.0774802 14.7012C0.0774802 13.3085 1.19456 12.1782 2.57469 12.1782C3.95481 12.1782 5.07189 13.3085 5.07189 14.7012Z" stroke="#101425" stroke-width="0.154256"/>
<path fill-rule="evenodd" clip-rule="evenodd" d="M63.7739 17.5559H64.6696C64.9167 17.5559 65.1174 17.3551 65.1174 17.108C65.1174 16.8609 64.9167 16.6602 64.6696 16.6602H63.7739C63.5268 16.6602 63.326 16.8609 63.326 17.108C63.326 17.3551 63.5268 17.5559 63.7739 17.5559ZM58.4001 73.983H59.2957C59.5428 73.983 59.7436 73.7823 59.7436 73.5352C59.7436 73.2881 59.5428 73.0874 59.2957 73.0874H58.4001C58.153 73.0874 57.9522 73.2881 57.9522 73.5352C57.9522 73.7823 58.153 73.983 58.4001 73.983Z" fill="#101425"/>
</svg>
