<svg width="89" height="94" viewBox="0 0 89 94" fill="none" xmlns="http://www.w3.org/2000/svg">
<path d="M44.2226 0.25C52.1627 0.25 58.5133 6.60057 58.5133 14.5406C58.5133 18.1596 57.0244 23.4037 54.472 27.7428C51.9125 32.0939 48.3422 35.4406 44.2226 35.4406C40.103 35.4406 36.5328 32.0939 33.9733 27.7428C31.4209 23.4037 29.932 18.1596 29.932 14.5406C29.932 6.60057 36.2826 0.25 44.2226 0.25ZM32.3695 14.3938C32.3695 17.8997 33.7823 22.496 35.9468 26.2144C37.0303 28.0757 38.3093 29.7299 39.707 30.9215C41.1035 32.1123 42.637 32.8563 44.2226 32.8563C45.8082 32.8563 47.3416 32.1123 48.7381 30.924C50.1358 29.7347 51.4147 28.0853 52.4982 26.2333C54.6625 22.5336 56.0758 17.9739 56.0758 14.5406C56.0758 7.94005 50.8232 2.6875 44.2226 2.6875C37.6241 2.6875 32.3695 7.93798 32.3695 14.3938Z" fill="#E55039" stroke="#FCEDEB" stroke-width="0.5"/>
<path d="M3.01923 74.6511L2.95696 74.7804L3.03732 74.8994L14.3428 91.6374C14.7184 92.2689 14.5813 92.9815 13.9925 93.3403C13.6886 93.4922 13.4531 93.6032 13.232 93.6032C12.849 93.6032 12.4996 93.479 12.265 93.1271L0.515006 75.502C0.242463 75.0932 0.158441 74.6252 0.368132 74.3106L0.377888 74.296L0.3855 74.2802L17.992 37.5999C18.2752 37.3173 18.5241 37.0812 18.8835 36.959L30.6239 34.0239L30.6403 34.0198L30.6561 34.0135C30.9338 33.9024 31.2548 33.9523 31.5344 34.1232C31.8155 34.2949 32.023 34.5705 32.0806 34.8585L32.0851 34.881L32.0936 34.9023C32.2047 35.1801 32.1548 35.501 31.9839 35.7807C31.8122 36.0617 31.5366 36.2692 31.2486 36.3268L31.2485 36.3265L31.2362 36.3296L20.2206 39.1203L20.1074 39.1489L20.0567 39.2542L3.01923 74.6511Z" fill="#E55039" stroke="#FCEDEB" stroke-width="0.5"/>
<path d="M82.9124 64.1302L82.9157 64.1385L82.9196 64.1466L87.906 74.4126C88.031 74.801 88.0194 75.2947 87.7834 75.6487L76.0474 93.2526C75.7716 93.5227 75.4003 93.7499 75.0664 93.7499C74.8453 93.7499 74.6098 93.6388 74.3059 93.487C73.7169 93.128 73.5799 92.4152 73.9558 91.7836L85.2616 74.8983L85.3408 74.7801L85.2795 74.6516L80.73 65.1123C80.4831 64.4846 80.7461 63.7679 81.328 63.5351C81.9574 63.2833 82.6788 63.5462 82.9124 64.1302Z" fill="#E55039" stroke="#FCEDEB" stroke-width="0.5"/>
<path d="M79.5266 59.8396L79.479 59.8587L79.4427 59.895C79.4247 59.913 79.3774 59.9382 79.2846 59.9537C79.1976 59.9682 79.1069 59.9686 79.032 59.9686C78.782 59.9686 78.5744 59.9068 78.3996 59.7903C78.2232 59.6727 78.0658 59.4897 77.9337 59.2256L76.4698 56.2978C76.2243 55.6705 76.4874 54.9551 77.0686 54.7226C77.698 54.4708 78.4194 54.7337 78.653 55.3177L78.6568 55.3274L78.6615 55.3367L80.1254 58.2645C80.3709 58.8917 80.1078 59.6072 79.5266 59.8396Z" fill="#E55039" stroke="#FCEDEB" stroke-width="0.5"/>
<path d="M57.0621 36.4763L57.0622 36.476L57.0498 36.4735C56.7709 36.4178 56.5317 36.2189 56.3747 35.9363C56.2174 35.6532 56.1569 35.3093 56.2177 35.0052C56.2735 34.7263 56.4723 34.4872 56.7549 34.3302C57.0363 34.1738 57.3777 34.1131 57.6805 34.1721L69.4245 37.1081L69.4543 37.1155H69.4851C69.8238 37.1155 70.165 37.3458 70.2761 37.679L70.2805 37.6924L70.2865 37.7052L76.0116 50.0363C76.2593 50.6643 75.9963 51.3818 75.4141 51.6147L75.3665 51.6337L75.3302 51.67C75.3122 51.688 75.2649 51.7132 75.1721 51.7287C75.0851 51.7432 74.9944 51.7437 74.9195 51.7437C74.6695 51.7437 74.4619 51.6819 74.2871 51.5653C74.1111 51.448 73.9539 51.2655 73.8221 51.0023L68.2416 39.4009L68.191 39.2956L68.0777 39.2669L57.0621 36.4763Z" fill="#E55039" stroke="#FCEDEB" stroke-width="0.5"/>
<path d="M41.8695 44.5563L41.8798 44.564L41.8909 44.5707C42.4866 44.9281 42.6264 45.6445 42.2487 46.279L39.6084 50.2395L39.5664 50.3025V50.3782V62.7157C39.5664 63.2039 39.3286 63.5708 38.9487 63.826L18.3999 76.0084C18.2736 76.0709 18.1893 76.0971 18.1112 76.1101C18.0253 76.1244 17.9369 76.125 17.7851 76.125C17.3039 76.125 16.9406 75.894 16.6859 75.5236C16.4373 74.8755 16.5861 74.1552 17.1788 73.7991C17.179 73.799 17.1792 73.7989 17.1794 73.7988L37.0063 62.0495L37.1289 61.9769V61.8344V49.9375C37.1289 49.7177 37.2387 49.4835 37.3893 49.182L40.3141 44.7948C40.6774 44.3166 41.3997 44.2039 41.8695 44.5563Z" fill="#E55039" stroke="#FCEDEB" stroke-width="0.5"/>
<path d="M51.3164 61.8343V61.9767L51.4389 62.0493L71.2659 73.7987C71.2661 73.7988 71.2663 73.7989 71.2665 73.799C71.8994 74.1792 72.1248 74.9102 71.7707 75.5067C71.6508 75.6844 71.466 75.8406 71.2576 75.9528C71.0461 76.0667 70.8297 76.1249 70.6601 76.1249C70.5083 76.1249 70.4199 76.1243 70.334 76.1099C70.2559 76.0969 70.1716 76.0708 70.0454 76.0083L49.4966 63.8258C49.1167 63.5706 48.8789 63.2038 48.8789 62.7155V62.4655H48.732V50.2312V50.1555L48.69 50.0925L46.0497 46.132C45.6719 45.4975 45.8118 44.7811 46.4075 44.4237C47.0432 44.0423 47.7624 44.1813 48.1207 44.7785L48.1205 44.7787L48.1271 44.7886L51.056 49.1819C51.2065 49.4834 51.3164 49.7175 51.3164 49.9374V61.8343Z" fill="#E55039" stroke="#FCEDEB" stroke-width="0.5"/>
<path d="M23.3963 84.423C22.9399 83.9666 23.0178 83.2511 23.5366 82.7269L38.9345 69.5287C39.5946 69.141 40.3338 69.1677 40.8146 69.6485C41.2711 70.1049 41.1931 70.8205 40.6743 71.3446L25.2839 84.5363C25.0061 84.6708 24.6241 84.7905 24.3945 84.7905C24.0035 84.7905 23.6326 84.6593 23.3963 84.423Z" fill="#E55039" stroke="#FCEDEB" stroke-width="0.5"/>
<path d="M18.2556 88.8293C17.7995 88.3732 17.877 87.6584 18.3947 87.1344L20.1431 85.6775C20.3832 85.4995 20.7255 85.4027 21.0784 85.4187C21.4322 85.4348 21.7729 85.563 22.0146 85.8047C22.4707 86.2608 22.3932 86.9756 21.8754 87.4996L20.1448 88.9418C19.8668 89.0767 19.4839 89.1967 19.2538 89.1967C18.8628 89.1967 18.4919 89.0656 18.2556 88.8293Z" fill="#E55039" stroke="#FCEDEB" stroke-width="0.5"/>
<path d="M71.3852 87.1453L71.3983 87.1558L71.4127 87.1645C71.6994 87.3365 71.8493 87.6247 71.88 87.9469C71.9111 88.2737 71.8161 88.615 71.6351 88.8564L71.6348 88.8561L71.6271 88.8677C71.3924 89.2196 71.0431 89.3439 70.6601 89.3439C70.4426 89.3439 70.2111 89.2364 69.9143 89.0883L47.9038 71.4799L47.8906 71.4694L47.8762 71.4607C47.5896 71.2888 47.4397 71.0006 47.409 70.6784C47.3778 70.3515 47.4728 70.0103 47.6538 69.7689L47.6616 69.7586L47.6682 69.7475C47.8402 69.4609 48.1284 69.3109 48.4506 69.2802C48.7761 69.2492 49.1159 69.3433 49.3571 69.5229L71.3852 87.1453Z" fill="#E55039" stroke="#FCEDEB" stroke-width="0.5"/>
</svg>
