<svg width="9" height="10" viewBox="0 0 9 10" fill="none" xmlns="http://www.w3.org/2000/svg">
<path d="M0.258005 4.84325C0.155738 4.9431 0.086886 5.00889 0.0656867 5.02542L0 4.91021C0.00828311 4.90376 0.0324819 4.88138 0.0718376 4.84375C0.100597 4.81624 0.137452 4.78057 0.182098 4.73697C0.285912 4.63562 0.428337 4.49496 0.600316 4.32422C0.944246 3.9827 1.406 3.5211 1.91273 3.01313C2.92615 1.99725 4.11919 0.79612 4.90865 0L4.98599 0.10486C4.69491 0.398415 4.34896 0.747003 3.97737 1.12108L4.80602 2.26454L1.82453 5.2184L1.01162 4.09668C0.891013 4.21696 0.77883 4.32861 0.676967 4.42976C0.504909 4.6006 0.362195 4.74153 0.258005 4.84325Z" fill="white"/>
<path d="M3.15932 8.85863C3.05705 8.95849 2.9882 9.02427 2.967 9.0408L2.90132 8.9256C2.91565 8.91444 2.97767 8.85559 3.08341 8.75235C3.18723 8.65101 3.32965 8.51035 3.50163 8.3396C3.60842 8.23356 3.72658 8.11596 3.8539 7.98895L3.05258 6.88322L6.03407 3.92935L6.81958 5.01325C7.18424 4.64614 7.52365 4.30411 7.80996 4.01538L7.8873 4.12024C7.0978 4.91643 5.90467 6.11763 4.89112 7.13364C4.38435 7.64165 3.92243 8.10341 3.57828 8.44514C3.40622 8.61599 3.26351 8.75692 3.15932 8.85863Z" fill="white"/>
<path d="M1.98679 5.49861L4.96829 2.54474L5.81039 3.70675L2.8289 6.66062L1.98679 5.49861Z" fill="white"/>
</svg>
