<svg width="24" height="24" viewBox="0 0 24 24" fill="none" xmlns="http://www.w3.org/2000/svg">
<path d="M22.332 10.5608L22.547 10.4333L22.5467 10.4327L22.332 10.5608ZM21.1701 10.3338L20.9813 10.4977L21.1351 10.675L21.3218 10.5325L21.1701 10.3338ZM19.7698 10.0966L19.7917 9.8476L19.7808 9.84664H19.7698V10.0966ZM16.519 8.33799L16.7057 8.17166L16.7044 8.17021L16.519 8.33799ZM15.8192 7.97938H15.5692V8.20212L15.7904 8.22773L15.8192 7.97938ZM15.8192 7.50237L15.828 7.25253L15.5692 7.24336V7.50237H15.8192ZM17.4253 4.48651L17.63 4.34286L17.6299 4.34285L17.4253 4.48651ZM16.6454 1.55089L16.8953 1.55846L16.8953 1.55836L16.6454 1.55089ZM15.7779 1.04106L15.6517 0.825295L15.6515 0.825369L15.7779 1.04106ZM13.6437 4.95213L13.3939 4.94339L13.3938 4.94371L13.6437 4.95213ZM15.4661 7.44059L15.5405 7.20192L15.5317 7.19916L15.5227 7.19706L15.4661 7.44059ZM15.6037 7.4755H15.8537V7.27002L15.6521 7.23023L15.6037 7.4755ZM15.6037 7.97654L15.6251 8.22561L15.8537 8.20593V7.97654H15.6037ZM14.8652 8.33981L15.0496 8.5086L15.0511 8.507L14.8652 8.33981ZM14.4081 8.8453L14.2217 8.67871L14.2209 8.67961L14.4081 8.8453ZM10.7323 10.0966L10.7351 10.3466L10.7498 10.3465L10.7645 10.3446L10.7323 10.0966ZM10.3569 12.2878L10.5388 12.4593L10.6531 12.3381L10.5852 12.1859L10.3569 12.2878ZM8.54055 14.2141L8.35627 14.3831L8.53798 14.5813L8.72244 14.3856L8.54055 14.2141ZM7.26683 13.9979L7.14852 13.7777L7.14805 13.778L7.26683 13.9979ZM2.43875 16.6049L2.55753 16.8249L2.55753 16.8249L2.43875 16.6049ZM2.03578 17.9404L1.81514 18.058L1.81515 18.058L2.03578 17.9404ZM3.96228 21.5556L3.74166 21.6731L3.74167 21.6732L3.96228 21.5556ZM5.30744 21.9595L5.42675 22.1792L5.42679 22.1792L5.30744 21.9595ZM10.1175 19.346L9.99848 19.1262L9.99813 19.1264L10.1175 19.346ZM10.6254 18.1295V17.8795H10.2916L10.3855 18.1998L10.6254 18.1295ZM17.3095 17.3026L17.4888 17.4769L17.4889 17.4768L17.3095 17.3026ZM22.1229 12.3439L22.3023 12.518L22.3027 12.5176L22.1229 12.3439ZM14.9455 6.0097C14.9501 5.87171 14.842 5.75609 14.704 5.75147C14.566 5.74685 14.4504 5.85497 14.4458 5.99297L14.9455 6.0097ZM15.5248 7.2327L15.4476 7.47048L15.4581 7.47387L15.4688 7.47633L15.5248 7.2327ZM13.859 4.95948L13.6092 4.95073L13.6092 4.95107L13.859 4.95948ZM15.8869 1.22699L16.0133 1.44268L16.0135 1.44258L15.8869 1.22699ZM16.4299 1.54437L16.18 1.5368L16.18 1.53683L16.4299 1.54437ZM17.249 4.61024L17.4536 4.46661L17.4535 4.46657L17.249 4.61024ZM14.5692 8.98847L14.3827 8.82194L14.382 8.82278L14.5692 8.98847ZM15.0247 8.48454L15.2091 8.65334L15.2106 8.65175L15.0247 8.48454ZM16.3591 8.48232L16.5458 8.316L16.5444 8.3145L16.3591 8.48232ZM19.759 10.3117V10.0617H19.759L19.759 10.3117ZM19.7601 10.3117L19.7824 10.0627L19.7713 10.0617H19.7601V10.3117ZM21.0036 10.4702L21.1634 10.6625L21.3617 10.4976L21.1908 10.3045L21.0036 10.4702ZM17.1312 13.6894L16.8886 13.6289L16.7036 14.37L17.291 13.8817L17.1312 13.6894ZM16.2062 12.195L16.1518 12.439L16.1518 12.439L16.2062 12.195ZM12.7898 11.4322L12.7343 11.676L12.7354 11.6762L12.7898 11.4322ZM10.5179 12.1181L10.2871 12.214L10.4338 12.5672L10.6984 12.2911L10.5179 12.1181ZM10.2564 10.7937H10.5064V10.7937L10.2564 10.7937ZM10.0148 19.1565L9.89589 18.9366L9.89544 18.9368L10.0148 19.1565ZM5.20451 21.7701L5.08515 21.5505L5.08509 21.5505L5.20451 21.7701ZM4.15242 21.4541L4.37305 21.3366L4.37305 21.3366L4.15242 21.4541ZM2.22592 17.839L2.00529 17.9565L2.00529 17.9565L2.22592 17.839ZM2.54111 16.7945L2.65988 17.0145L2.65989 17.0145L2.54111 16.7945ZM7.36902 14.1876L7.2507 13.9673L7.25024 13.9676L7.36902 14.1876ZM8.50666 14.5347L8.72772 14.4179L8.72748 14.4175L8.50666 14.5347ZM10.3542 18.0325L10.1331 18.1493L10.1337 18.1504L10.3542 18.0325ZM21.9681 12.1939L22.1475 12.368L22.1478 12.3676L21.9681 12.1939ZM17.1549 17.1525L17.3342 17.3268L17.3343 17.3266L17.1549 17.1525ZM10.5353 17.914L10.3143 18.0309L10.3847 18.164H10.5353V17.914ZM8.67101 14.3901L8.48911 14.2186L8.35988 14.3556L8.45601 14.5176L8.67101 14.3901ZM10.6602 12.2803L10.8421 12.4518L10.8422 12.4517L10.6602 12.2803ZM12.7425 11.6424L12.6872 11.8862L12.688 11.8864L12.7425 11.6424ZM16.1593 12.4053L16.2138 12.1613L16.2137 12.1613L16.1593 12.4053ZM16.8225 13.8884L16.6038 13.7672L16.6021 13.7704L16.8225 13.8884ZM15.9342 14.3591L15.9796 14.1133L15.9794 14.1133L15.9342 14.3591ZM13.3107 13.8742L13.2644 14.12L13.269 14.1207L13.3107 13.8742ZM13.1851 13.9606L13.4309 14.0062L13.431 14.0057L13.1851 13.9606ZM13.2715 14.0862L13.2259 14.332L13.2261 14.332L13.2715 14.0862ZM15.895 14.5711L15.8496 14.8169L15.8496 14.8169L15.895 14.5711ZM16.8646 14.1912L16.7048 13.9989L16.6822 14.0177L16.6646 14.0412L16.8646 14.1912ZM21.2675 10.531L21.4273 10.7233L21.4326 10.7187L21.2675 10.531ZM22.1467 10.671L22.3618 10.5434L22.3615 10.5429L22.1467 10.671ZM22.5467 10.4327C22.2274 9.89747 21.5129 9.75758 21.0184 10.1351L21.3218 10.5325C21.5772 10.3375 21.95 10.4084 22.1173 10.6889L22.5467 10.4327ZM21.3589 10.1699C21.1293 9.90538 20.8388 9.85111 20.5727 9.84421C20.4443 9.84088 20.305 9.84849 20.1796 9.85282C20.0489 9.85732 19.9214 9.85901 19.7917 9.8476L19.7479 10.3457C19.9089 10.3598 20.0611 10.3572 20.1968 10.3525C20.3377 10.3477 20.4513 10.3412 20.5597 10.344C20.7672 10.3494 20.8862 10.3882 20.9813 10.4977L21.3589 10.1699ZM19.7698 9.84664C19.0375 9.84664 18.4973 9.67326 18.0332 9.38619C17.5616 9.09445 17.158 8.6793 16.7057 8.17167L16.3324 8.50431C16.7866 9.01398 17.2315 9.47815 17.7702 9.81141C18.3165 10.1493 18.9484 10.3466 19.7698 10.3466V9.84664ZM16.7044 8.17021C16.4816 7.92409 16.1749 7.7689 15.8479 7.73104L15.7904 8.22773C15.9989 8.25186 16.1936 8.35099 16.3337 8.50577L16.7044 8.17021ZM16.0692 7.97938V7.50237H15.5692V7.97938H16.0692ZM15.8103 7.75221C16.7641 7.78599 17.4689 7.27753 17.8062 6.58515C18.14 5.89988 18.1148 5.03336 17.63 4.34286L17.2207 4.63017C17.5947 5.16274 17.6158 5.83423 17.3567 6.36617C17.101 6.891 16.5733 7.27892 15.828 7.25253L15.8103 7.75221ZM17.6299 4.34285C16.9861 3.42587 16.8718 2.33203 16.8953 1.55846L16.3955 1.54331C16.3706 2.36586 16.4878 3.58635 17.2207 4.63018L17.6299 4.34285ZM16.8953 1.55836C16.9147 0.908678 16.2132 0.496657 15.6517 0.825295L15.9042 1.25683C16.1301 1.12463 16.4031 1.29041 16.3955 1.54341L16.8953 1.55836ZM15.6515 0.825369C14.8374 1.30246 13.4803 2.47258 13.3939 4.94339L13.8935 4.96088C13.9725 2.7053 15.1954 1.6722 15.9043 1.25676L15.6515 0.825369ZM13.3938 4.94371C13.3498 6.25001 14.1965 7.40246 15.4096 7.68411L15.5227 7.19706C14.5589 6.97331 13.857 6.0456 13.8936 4.96056L13.3938 4.94371ZM15.3917 7.67925C15.445 7.69589 15.4996 7.70978 15.5553 7.72077L15.6521 7.23023C15.6141 7.22274 15.5769 7.21327 15.5405 7.20192L15.3917 7.67925ZM15.3537 7.4755V7.97654H15.8537V7.4755H15.3537ZM15.5822 7.72746C15.2397 7.75696 14.9148 7.9109 14.6793 8.17261L15.0511 8.507C15.1978 8.34386 15.4032 8.24473 15.6251 8.22561L15.5822 7.72746ZM14.6808 8.17102C14.53 8.3358 14.376 8.50604 14.2217 8.67871L14.5945 9.01188C14.7475 8.84068 14.9002 8.67192 15.0496 8.50859L14.6808 8.17102ZM14.2209 8.67961C12.9031 10.1686 11.2401 9.7786 10.7001 9.84872L10.7645 10.3446C11.0908 10.3022 13.1124 10.6865 14.5953 9.01098L14.2209 8.67961ZM10.7294 9.84666C10.2114 9.85253 9.7908 10.2741 9.7908 10.7938H10.2908C10.2908 10.5499 10.4891 10.3494 10.7351 10.3466L10.7294 9.84666ZM9.7908 10.7938C9.7908 11.3525 9.90516 11.8892 10.1286 12.3897L10.5852 12.1859C10.3906 11.7502 10.2908 11.283 10.2908 10.7938H9.7908ZM10.175 12.1163L8.35866 14.0426L8.72244 14.3856L10.5388 12.4593L10.175 12.1163ZM8.72483 14.0452C8.33504 13.62 7.69133 13.4861 7.14852 13.7777L7.38515 14.2182C7.7187 14.039 8.11494 14.1198 8.35627 14.3831L8.72483 14.0452ZM7.14805 13.778L2.31997 16.3849L2.55753 16.8249L7.38561 14.2179L7.14805 13.778ZM2.31998 16.3849C1.72164 16.7079 1.49539 17.4578 1.81514 18.058L2.25642 17.8229C2.06598 17.4654 2.20126 17.0172 2.55753 16.8249L2.31998 16.3849ZM1.81515 18.058L3.74166 21.6731L4.18291 21.438L2.25641 17.8228L1.81515 18.058ZM3.74167 21.6732C4.06361 22.2771 4.81787 22.5099 5.42675 22.1792L5.18812 21.7398C4.82506 21.937 4.3752 21.7988 4.1829 21.438L3.74167 21.6732ZM5.42679 22.1792L10.2368 19.5657L9.99813 19.1264L5.18808 21.7399L5.42679 22.1792ZM10.2365 19.5659C10.7841 19.2695 11.0335 18.6333 10.8653 18.0592L10.3855 18.1998C10.4888 18.5523 10.3345 18.9443 9.99848 19.1262L10.2365 19.5659ZM10.6254 18.3795H15.1623V17.8795H10.6254V18.3795ZM15.1623 18.3795C16.1091 18.3795 16.9004 18.082 17.4888 17.4769L17.1303 17.1284C16.6517 17.6206 15.9982 17.8795 15.1623 17.8795V18.3795ZM17.4889 17.4768L22.3023 12.518L21.9435 12.1697L17.1302 17.1285L17.4889 17.4768ZM22.3027 12.5176C22.843 11.9585 22.9436 11.102 22.547 10.4333L22.1169 10.6883C22.3985 11.1631 22.3271 11.7729 21.9432 12.1701L22.3027 12.5176ZM16.3659 6.75301C16.2722 6.89988 16.1677 6.97048 16.0547 7.00279C15.9338 7.03736 15.7792 7.03473 15.5809 6.98908L15.4688 7.47633C15.7109 7.53208 15.9589 7.55023 16.1922 7.48352C16.4333 7.41455 16.6345 7.26181 16.7875 7.02184L16.3659 6.75301ZM15.6021 6.99493C15.22 6.87085 14.9302 6.46645 14.9455 6.0097L14.4458 5.99297C14.4235 6.6602 14.8422 7.27388 15.4476 7.47048L15.6021 6.99493ZM14.1089 4.96824C14.1806 2.91986 15.1917 1.92419 16.0133 1.44268L15.7605 1.0113C14.8149 1.56545 13.6879 2.7054 13.6092 4.95073L14.1089 4.96824ZM16.0135 1.44258C16.0935 1.39563 16.1825 1.45472 16.18 1.5368L16.6798 1.55193C16.6945 1.06702 16.1711 0.77028 15.7604 1.01139L16.0135 1.44258ZM16.18 1.53683C16.1542 2.39258 16.2776 3.66196 17.0444 4.75391L17.4535 4.46657C16.7754 3.50091 16.6555 2.35765 16.6798 1.5519L16.18 1.53683ZM17.0443 4.75388C17.5805 5.51766 17.2678 6.53407 16.5594 6.89738L16.7876 7.34227C17.7613 6.84285 18.1671 5.48311 17.4536 4.46661L17.0443 4.75388ZM14.8476 6.62174C14.3823 6.23627 14.0868 5.62438 14.1089 4.96789L13.6092 4.95107C13.5817 5.7664 13.9473 6.52522 14.5286 7.00677L14.8476 6.62174ZM10.7402 10.5621C12.0076 10.5621 13.4544 10.6253 14.7564 9.15415L14.382 8.82278C13.2448 10.1077 12.0237 10.0621 10.7402 10.0621V10.5621ZM14.7557 9.15499C14.9077 8.98474 15.0597 8.81661 15.2091 8.65333L14.8403 8.31576C14.6895 8.48058 14.5361 8.65022 14.3827 8.82194L14.7557 9.15499ZM15.2106 8.65175C15.4648 8.36923 15.9134 8.36255 16.1738 8.65013L16.5444 8.3145C16.0818 7.80365 15.288 7.81818 14.8389 8.31734L15.2106 8.65175ZM16.1724 8.64862C16.6526 9.18751 17.1162 9.66974 17.6768 10.0135C18.2452 10.3621 18.9013 10.5617 19.759 10.5617L19.759 10.0617C18.9876 10.0617 18.423 9.88458 17.9382 9.5873C17.4458 9.28533 17.024 8.85281 16.5458 8.31601L16.1724 8.64862ZM19.759 10.5617H19.7601V10.0617H19.759V10.5617ZM19.7379 10.5607C20.0318 10.5869 20.3314 10.5587 20.5039 10.5582C20.7048 10.5577 20.7738 10.5878 20.8164 10.6359L21.1908 10.3045C20.9936 10.0817 20.7226 10.0577 20.5027 10.0582C20.2544 10.0588 20.0521 10.0868 19.7824 10.0627L19.7379 10.5607ZM20.8437 10.278L16.9713 13.4972L17.291 13.8817L21.1634 10.6625L20.8437 10.278ZM17.3737 13.75C17.5667 12.9769 17.1 12.1382 16.2607 11.951L16.1518 12.439C16.7048 12.5624 17.0166 13.1163 16.8886 13.6289L17.3737 13.75ZM16.2607 11.951L12.8443 11.1882L12.7354 11.6762L16.1518 12.439L16.2607 11.951ZM12.8454 11.1885C11.9398 10.9822 10.9819 11.2727 10.3374 11.9451L10.6984 12.2911C11.2224 11.7444 12.0016 11.5091 12.7343 11.676L12.8454 11.1885ZM10.7488 12.0222C10.5885 11.6362 10.5064 11.2242 10.5064 10.7937H10.0064C10.0064 11.289 10.1011 11.7663 10.2871 12.214L10.7488 12.0222ZM10.5064 10.7937C10.5063 10.6673 10.6103 10.5621 10.7402 10.5621V10.0621C10.3364 10.0621 10.0063 10.389 10.0064 10.7938L10.5064 10.7937ZM9.89544 18.9368L5.08515 21.5505L5.32386 21.9898L10.1342 19.3762L9.89544 18.9368ZM5.08509 21.5505C4.82843 21.6901 4.50959 21.5928 4.37305 21.3366L3.93179 21.5717C4.19814 22.0715 4.82169 22.2629 5.32393 21.9898L5.08509 21.5505ZM4.37305 21.3366L2.44655 17.7214L2.00529 17.9565L3.93179 21.5717L4.37305 21.3366ZM2.44655 17.7214C2.31173 17.4684 2.40763 17.1507 2.65988 17.0145L2.42233 16.5745C1.92806 16.8414 1.7411 17.4607 2.00529 17.9565L2.44655 17.7214ZM2.65989 17.0145L7.4878 14.4076L7.25024 13.9676L2.42233 16.5745L2.65989 17.0145ZM7.48734 14.4078C7.77452 14.2535 8.1321 14.3623 8.28585 14.6519L8.72748 14.4175C8.4445 13.8844 7.78333 13.6812 7.2507 13.9673L7.48734 14.4078ZM8.28561 14.6515L10.1331 18.1493L10.5752 17.9158L8.72772 14.4179L8.28561 14.6515ZM10.1337 18.1504C10.2837 18.4308 10.1776 18.7843 9.89589 18.9366L10.1337 19.3764C10.6565 19.0937 10.8549 18.4387 10.5746 17.9146L10.1337 18.1504ZM21.7887 12.0198L16.9755 16.9784L17.3343 17.3266L22.1475 12.368L21.7887 12.0198ZM16.9757 16.9782C16.5399 17.4265 15.9388 17.664 15.1623 17.664V18.164C16.0477 18.164 16.7874 17.8891 17.3342 17.3268L16.9757 16.9782ZM15.1623 17.664H10.5353V18.164H15.1623V17.664ZM10.7563 17.7972C10.2079 16.76 8.93753 14.3493 8.88601 14.2625L8.45601 14.5176C8.45576 14.5172 8.4606 14.5258 8.47371 14.5501C8.48542 14.5718 8.50148 14.6017 8.5215 14.6393C8.56151 14.7142 8.61682 14.8183 8.6837 14.9445C8.81745 15.1968 8.99715 15.5368 9.19269 15.907C9.58367 16.6472 10.0381 17.5085 10.3143 18.0309L10.7563 17.7972ZM8.85291 14.5616C8.86541 14.5483 8.8735 14.5397 8.87834 14.5346C8.88076 14.532 8.88237 14.5303 8.88332 14.5293C8.88379 14.5288 8.88411 14.5285 8.88429 14.5283C8.88433 14.5282 8.88439 14.5282 8.88444 14.5281C8.88446 14.5281 8.88452 14.528 8.88456 14.528C8.88463 14.5279 8.88502 14.5275 8.88534 14.5271C8.87416 14.175 8.52145 14.1843 8.52096 14.1848C8.52087 14.1849 8.52075 14.185 8.52071 14.185C8.52064 14.1851 8.52058 14.1852 8.52055 14.1852C8.5195 14.1863 8.5101 14.1963 8.50182 14.2051C8.49765 14.2095 8.49374 14.2136 8.49125 14.2163C8.49 14.2176 8.48913 14.2185 8.48876 14.2189C8.48865 14.219 8.48864 14.219 8.48866 14.219C8.48868 14.219 8.48876 14.2189 8.48881 14.2189C8.48899 14.2187 8.84002 14.2071 8.85641 14.5577C8.85461 14.5597 8.85267 14.5618 8.85256 14.5619C8.85252 14.562 8.85246 14.562 8.85244 14.562C8.85243 14.5621 8.85245 14.562 8.85257 14.5619C8.85267 14.5618 8.85281 14.5616 8.853 14.5614C8.85601 14.5583 8.86936 14.5441 8.90243 14.509C9.03467 14.3688 9.48194 13.8944 10.8421 12.4518L10.4783 12.1088C9.11815 13.5514 8.67088 14.0257 8.53863 14.166C8.50558 14.2011 8.49219 14.2153 8.48915 14.2185C8.4888 14.2189 8.48851 14.2192 8.48837 14.2193C8.48834 14.2194 8.48827 14.2194 8.48822 14.2195C8.48809 14.2196 8.48615 14.2217 8.48435 14.2237C8.50074 14.5743 8.85177 14.5627 8.85196 14.5625C8.85202 14.5625 8.85211 14.5624 8.85214 14.5624C8.85224 14.5623 8.85236 14.5621 8.85244 14.562C8.85286 14.5616 8.85377 14.5606 8.85501 14.5593C8.85751 14.5567 8.86142 14.5525 8.86559 14.5481C8.87396 14.5392 8.88323 14.5294 8.88418 14.5284C8.88421 14.5284 8.88419 14.5284 8.88416 14.5284C8.88413 14.5284 8.88401 14.5286 8.88393 14.5286C8.88345 14.5291 8.53074 14.5384 8.51956 14.1863C8.52017 14.1856 8.52091 14.1848 8.52037 14.1854C8.52024 14.1855 8.51996 14.1858 8.51948 14.1863C8.51855 14.1873 8.51695 14.189 8.51454 14.1916C8.5097 14.1967 8.50162 14.2053 8.48911 14.2186L8.85291 14.5616ZM10.8422 12.4517C11.3136 11.9513 12.0215 11.7352 12.6872 11.8862L12.7978 11.3986C11.9587 11.2083 11.0706 11.4801 10.4782 12.1089L10.8422 12.4517ZM12.688 11.8864L16.1048 12.6493L16.2137 12.1613L12.7969 11.3984L12.688 11.8864ZM16.1048 12.6493C16.5997 12.7598 16.8535 13.3166 16.6038 13.7672L17.0412 14.0095C17.4526 13.267 17.0346 12.3446 16.2138 12.1613L16.1048 12.6493ZM16.6021 13.7704C16.4814 13.9959 16.2325 14.16 15.9796 14.1133L15.8888 14.605C16.42 14.7031 16.8543 14.3589 17.0429 14.0063L16.6021 13.7704ZM15.9794 14.1133C15.9795 14.1133 15.9718 14.1118 15.9554 14.1087C15.9396 14.1057 15.9167 14.1014 15.8875 14.0959C15.8292 14.0849 15.746 14.0692 15.6446 14.0502C15.4419 14.012 15.1668 13.9603 14.8745 13.9058C14.2911 13.7968 13.6356 13.6757 13.3524 13.6277L13.269 14.1207C13.828 14.2153 15.8733 14.6021 15.8889 14.605L15.9794 14.1133ZM13.357 13.6286C13.161 13.5917 12.9748 13.7219 12.9392 13.9155L13.431 14.0057C13.417 14.0824 13.3429 14.1347 13.2644 14.1199L13.357 13.6286ZM12.9393 13.915C12.9032 14.1098 13.0322 14.296 13.2259 14.332L13.3171 13.8404C13.3939 13.8546 13.4454 13.9285 13.4309 14.0062L12.9393 13.915ZM13.2261 14.332L15.8496 14.8169L15.9404 14.3252L13.317 13.8403L13.2261 14.332ZM15.8496 14.8169C16.3117 14.9023 16.7841 14.7154 17.0647 14.3411L16.6646 14.0412C16.4972 14.2646 16.2144 14.3758 15.9404 14.3252L15.8496 14.8169ZM17.0245 14.3834C17.0387 14.3716 17.0466 14.365 17.0503 14.362C17.0512 14.3612 17.0518 14.3606 17.0523 14.3603C17.0525 14.3601 17.0527 14.36 17.0528 14.3599C17.0528 14.3598 17.0529 14.3598 17.0529 14.3597C17.053 14.3597 17.053 14.3596 17.0531 14.3596C17.0533 14.3595 17.0857 14.0082 16.7347 13.9741C16.7337 13.9749 16.7315 13.9768 16.7311 13.9771C16.7258 13.9815 16.7117 13.9932 16.7061 13.9978C16.7054 13.9984 16.7048 13.9989 16.7044 13.9993C16.7039 13.9996 16.7038 13.9998 16.7038 13.9998C16.7038 13.9997 16.704 13.9996 16.7042 13.9994C17.0552 14.0318 17.0243 14.3836 17.0236 14.3841C17.0234 14.3843 17.0233 14.3844 17.0234 14.3843C17.0234 14.3843 17.0235 14.3842 17.0237 14.384C17.024 14.3837 17.0246 14.3833 17.0255 14.3826C17.0288 14.3798 17.0363 14.3736 17.05 14.3621C17.0775 14.3393 17.1299 14.2957 17.2241 14.2174C17.6006 13.9044 18.6445 13.0367 21.4273 10.7233L21.1076 10.3388C18.3248 12.6522 17.281 13.5199 16.9045 13.833C16.8103 13.9112 16.7579 13.9548 16.7304 13.9776C16.7167 13.9891 16.7092 13.9953 16.7058 13.9981C16.705 13.9988 16.7044 13.9993 16.704 13.9996C16.7038 13.9997 16.7037 13.9998 16.7036 13.9999C16.7036 13.9999 16.7035 14 16.7035 14C16.7035 14 16.7034 14.0001 16.7033 14.0002C16.7026 14.0008 16.6716 14.3525 17.0227 14.3849C17.0228 14.3847 17.0231 14.3846 17.0231 14.3845C17.0233 14.3843 17.0244 14.3835 17.0257 14.3824C17.0315 14.3775 17.0452 14.3662 17.0507 14.3616C17.053 14.3597 17.0523 14.3602 17.0514 14.361C16.7004 14.3269 16.7328 13.9756 16.733 13.9755C16.733 13.9755 16.7331 13.9754 16.7331 13.9754C16.7331 13.9754 16.7331 13.9754 16.733 13.9755C16.7329 13.9755 16.7328 13.9757 16.7326 13.9758C16.7322 13.9762 16.7315 13.9767 16.7306 13.9775C16.7269 13.9805 16.719 13.9871 16.7048 13.9989L17.0245 14.3834ZM21.4326 10.7187C21.5856 10.5841 21.8263 10.6218 21.932 10.799L22.3615 10.5429C22.0973 10.0999 21.4926 9.99998 21.1023 10.3433L21.4326 10.7187ZM21.9317 10.7985C22.1638 11.1897 22.1048 11.6927 21.7883 12.0201L22.1478 12.3676C22.6208 11.8783 22.7089 11.1287 22.3618 10.5434L21.9317 10.7985Z" fill="#E55039"/>
</svg>
