<svg width="24" height="24" viewBox="0 0 24 24" fill="none" xmlns="http://www.w3.org/2000/svg">
<path d="M12.0035 1C5.92689 1 1.00006 5.94119 1.00006 12C1.00006 18.0781 5.94648 23 12.0035 23C18.0821 23 23.0035 18.0807 23.0035 12C23.0035 5.92075 18.0831 1 12.0035 1ZM12.0035 18.8634C12.0034 18.8634 12.0033 18.8635 12.0033 18.8635C12.0032 18.8635 12.0031 18.8634 12.0031 18.8634C8.20964 18.8634 5.1374 15.795 5.1374 12C5.1374 8.20603 8.20844 5.13659 12.0035 5.13659C15.7962 5.13698 18.8665 8.20646 18.8665 12C18.8665 15.7928 15.7969 18.863 12.0035 18.8634ZM17.2639 7.0126C17.3029 6.97357 19.8034 4.47308 19.6439 4.63256C21.5183 6.57461 22.5682 9.1085 22.6157 11.8071H19.2497C19.203 10.0073 18.5037 8.31838 17.2639 7.0126ZM16.9909 6.73967C15.6852 5.49986 13.9962 4.80007 12.1964 4.75315V1.38758C14.895 1.43544 17.4288 2.48494 19.3711 4.35954L16.9909 6.73967ZM11.8105 1.38758L11.8101 4.75315C10.01 4.79988 8.32058 5.49911 7.01483 6.73816L4.63809 4.3618C6.50571 2.56163 9.02942 1.43732 11.8105 1.38758ZM4.36525 4.63445L6.74162 7.011C5.50105 8.31694 4.80088 10.0065 4.75416 11.8071H1.38783C1.43757 9.02521 2.5632 6.5017 4.36525 4.63445ZM1.38783 12.1929H4.75416C4.80088 13.9935 5.50105 15.6831 6.74162 16.989L4.36525 19.3656C2.5632 17.4983 1.43757 14.9748 1.38783 12.1929ZM7.01483 17.2618C8.32058 18.5009 10.0103 19.2003 11.8105 19.2468V22.6124C9.02942 22.5627 6.50571 21.4384 4.63809 19.6382L7.01483 17.2618ZM12.1964 22.6124V19.2468C13.9962 19.1999 15.6852 18.5001 16.9909 17.2603L19.3711 19.6405C17.4288 21.5151 14.895 22.5646 12.1964 22.6124ZM19.6439 19.3674C19.6049 19.3284 17.1044 16.8279 17.2639 16.9874C18.5037 15.6816 19.203 13.9927 19.2497 12.1929H22.6157C22.5682 14.8919 21.5183 17.4258 19.6439 19.3674Z" fill="#E55039"/>
<path d="M7.35909 4.73184C7.45254 4.6804 7.48646 4.56302 7.43483 4.46975C7.21882 4.07759 7.5869 3.62075 8.01554 3.74358C8.14442 3.78088 8.25107 3.86643 8.31626 3.98438L8.73757 4.74861C8.85931 4.97049 9.19853 4.78522 9.07522 4.56245C8.75248 3.90677 8.51775 3.73834 8.61133 3.41554C8.73564 2.9861 9.32114 2.92309 9.53572 3.31266C9.58697 3.4063 9.70492 3.43947 9.79763 3.38859C9.89108 3.33715 9.925 3.21977 9.87337 3.1265C9.47079 2.39549 8.36022 2.57192 8.22163 3.41233C7.43177 3.07766 6.69819 3.93225 7.09718 4.65591C7.14888 4.75013 7.26676 4.78274 7.35909 4.73184Z" fill="#E55039"/>
<path d="M15.1448 19.693C14.9023 19.5904 14.6181 19.5921 14.3698 19.7287C13.7069 20.0939 13.8645 21.0359 14.1893 21.0359C14.3345 21.0359 14.4298 20.8793 14.3581 20.7499C14.2244 20.507 14.3133 20.2005 14.556 20.0667C14.799 19.9329 15.1054 20.0215 15.2396 20.2645L15.6605 21.029C15.7122 21.1232 15.8301 21.1558 15.9224 21.1049C16.0159 21.0534 16.0498 20.9361 15.9982 20.8428C15.6757 20.187 15.4411 20.0185 15.5346 19.6957C15.6583 19.2684 16.2425 19.2006 16.459 19.593C16.5103 19.6865 16.6282 19.72 16.7209 19.6689C16.8144 19.6175 16.8483 19.5001 16.7967 19.4068C16.3938 18.6746 15.2828 18.8535 15.1448 19.693Z" fill="#E55039"/>
<path d="M20.6867 8.84458C20.8191 9.08572 20.7338 9.39298 20.4885 9.52779C20.2653 9.65064 20.4515 9.9888 20.6746 9.86582C21.3983 9.46729 21.2357 8.35351 20.3888 8.21361C20.7206 7.4289 19.8763 6.68747 19.1454 7.08944C19.0519 7.14088 19.018 7.25827 19.0697 7.35154C19.1209 7.44518 19.2389 7.47834 19.3316 7.42747C19.5746 7.29426 19.8814 7.38225 20.0152 7.62531C20.1489 7.8687 20.0615 8.17392 19.8169 8.30871L19.0527 8.72964C18.9592 8.78108 18.9253 8.89847 18.977 8.99174C19.0286 9.08557 19.1465 9.11873 19.2389 9.06767L20.0031 8.64674C20.2458 8.51258 20.5529 8.60133 20.6867 8.84458Z" fill="#E55039"/>
<path d="M4.10998 15.1395C4.22614 14.8657 4.20068 14.5943 4.07375 14.3643C3.66819 13.6279 2.58776 13.9103 2.79061 14.2767C2.84186 14.3704 2.96019 14.4037 3.05251 14.3527C3.4466 14.1361 3.90221 14.5064 3.77869 14.9332C3.68539 15.2555 3.39957 15.2714 2.77365 15.6548C2.68019 15.7063 2.64628 15.8237 2.6979 15.9169C2.74953 16.0108 2.86748 16.0439 2.95981 15.9929L3.72404 15.5717C3.96673 15.4382 4.27386 15.5267 4.40763 15.7698C4.54175 16.0141 4.45153 16.3199 4.20942 16.453C4.11596 16.5044 4.08204 16.6218 4.13367 16.7151C4.18537 16.8093 4.30325 16.8419 4.39557 16.791C4.60359 16.6763 4.7547 16.4875 4.82065 16.2591C4.96602 15.7566 4.64996 15.2287 4.10998 15.1395Z" fill="#E55039"/>
<path d="M13.5394 3.58772C13.6385 3.62936 13.7508 3.58395 13.7926 3.48579C13.9427 3.13258 14.4493 3.13845 14.5923 3.49464C14.6776 3.70676 14.5729 3.8043 14.5726 3.90067C14.5721 4.0507 14.7421 4.15508 14.8788 4.05378C14.9217 4.02207 14.9173 4.01613 14.9431 3.97738C14.9432 3.97726 14.9432 3.97714 14.9432 3.97702C15.0372 3.75787 15.2903 3.65595 15.5107 3.74939C15.7302 3.84288 15.8335 4.09554 15.7386 4.31691C15.6843 4.44452 15.7784 4.58591 15.9161 4.58579H15.9162C15.9562 4.58573 15.9991 4.56749 16.0292 4.54528C16.1396 4.46374 16.1032 4.328 16.3303 4.23683C16.6778 4.09523 17.0433 4.448 16.8891 4.8085C16.8348 4.93586 16.9288 5.07719 17.0666 5.07719C17.3919 5.07719 17.4724 4.16708 16.8126 3.88599C16.6049 3.79657 16.3641 3.78896 16.1213 3.91244C15.9682 3.40463 15.4178 3.19439 14.971 3.42165C14.7463 2.67471 13.732 2.64458 13.4376 3.33467C13.3958 3.43265 13.4414 3.54589 13.5394 3.58772Z" fill="#E55039"/>
<path d="M9.15377 20.2826C9.00488 19.7892 8.46397 19.5578 8.00391 19.7918C7.7812 19.0521 6.76842 19.0081 6.47055 19.7044C6.42872 19.8024 6.47431 19.9157 6.57229 19.9577C6.66989 19.9995 6.7837 19.9539 6.82553 19.8559C6.91936 19.6368 7.1726 19.5341 7.39343 19.6279C7.61122 19.7207 7.71642 19.9728 7.62104 20.1955C7.56672 20.3231 7.66057 20.4645 7.79853 20.4643H7.79856C7.88505 20.4642 7.93471 20.4093 7.97603 20.3473C7.97607 20.3472 7.9761 20.3471 7.97614 20.347C8.06967 20.128 8.32392 20.0254 8.54393 20.1193C8.76325 20.213 8.86537 20.4677 8.77192 20.6871C8.70106 20.8533 8.87775 21.0218 9.04324 20.928C9.07644 20.9094 9.11057 20.8771 9.1269 20.8386C9.21983 20.6194 9.47254 20.5163 9.69442 20.6107C9.91374 20.7042 10.0159 20.959 9.92241 21.1786C9.88058 21.2766 9.92618 21.3899 10.0242 21.4317C10.1222 21.4733 10.2355 21.4281 10.2774 21.3298C10.5736 20.6342 9.84208 19.9318 9.15377 20.2826Z" fill="#E55039"/>
<path d="M5.11077 8.48767C5.19292 8.42003 5.20461 8.29831 5.13677 8.21615C5.06857 8.13344 4.94722 8.12251 4.86507 8.18996C4.80921 8.23601 4.7613 8.28592 4.7105 8.33451L3.4311 7.67937C3.4399 7.60546 3.45274 7.53367 3.45342 7.45607C3.45455 7.34942 3.36901 7.26237 3.26237 7.26124C3.13725 7.2603 3.06867 7.34565 3.06754 7.4523C3.06181 7.98759 2.81756 8.39712 2.4043 8.7377C2.32215 8.80535 2.31046 8.92707 2.3783 9.00922C2.44532 9.09084 2.56643 9.10374 2.65 9.03541C2.70584 8.98939 2.75375 8.93943 2.8045 8.89084L4.0774 9.54278C4.06888 9.61313 4.06294 9.68692 4.06165 9.76818C4.06014 9.87463 4.14493 9.96244 4.25157 9.96413H4.25459C4.35973 9.96413 4.44565 9.87972 4.44753 9.7742C4.44942 9.65946 4.45921 9.56185 4.47919 9.4716C4.55759 9.06569 4.79295 8.74961 5.11077 8.48767ZM3.35092 8.07164L4.44113 8.62993C4.28179 8.84608 4.22718 8.99975 4.1649 9.1543L3.07357 8.59526C3.19157 8.43511 3.28081 8.25039 3.35092 8.07164Z" fill="#E55039"/>
<path d="M18.9001 15.3815C18.818 15.4491 18.8063 15.5708 18.8741 15.653C18.9412 15.7346 19.0623 15.7475 19.1458 15.6792C19.2017 15.6331 19.2496 15.5832 19.3004 15.5346L20.5733 16.1866C20.5647 16.2569 20.5588 16.3307 20.5575 16.4119C20.556 16.5184 20.6408 16.6062 20.7474 16.6079H20.7504C20.8556 16.6079 20.9415 16.5235 20.9434 16.418C20.9523 15.8779 21.1881 15.4764 21.6066 15.1314C21.6888 15.0638 21.7005 14.9421 21.6326 14.8599C21.5644 14.7772 21.4431 14.7663 21.3609 14.8337C21.3051 14.8797 21.2572 14.9297 21.2064 14.9783L19.9269 14.3231C19.9358 14.2492 19.9486 14.1775 19.9493 14.0998C19.9504 13.9932 19.8649 13.9061 19.7582 13.905C19.6666 13.8999 19.5645 13.9894 19.5634 14.0961C19.5592 14.4915 19.4268 14.844 19.1265 15.1703C19.0581 15.2429 18.9824 15.3137 18.9001 15.3815ZM20.6608 15.7981L19.5694 15.239C19.7744 14.9599 19.8266 14.756 19.8468 14.7154L20.937 15.2739C20.7677 15.504 20.6971 15.7044 20.6608 15.7981Z" fill="#E55039"/>
<path d="M14.8037 9.76632C14.4057 9.71997 14.0214 9.90198 13.8066 10.2428C13.7435 10.3427 13.6841 10.451 13.6269 10.5649C13.6282 9.96515 13.607 9.41996 13.5432 8.96742C13.4795 8.51332 13.1622 8.16192 12.7152 8.05018C12.2683 7.93826 11.8233 8.09917 11.5534 8.46961C11.4607 8.59696 11.3695 8.7406 11.2786 8.90079C11.1846 8.50727 10.8908 8.20339 10.4855 8.09578C10.0464 7.97821 9.60667 8.12781 9.33648 8.48299C9.21191 8.64632 9.08915 8.83411 8.9688 9.04366C8.87331 8.39627 8.52681 7.89511 8.24552 7.55388C8.17769 7.47098 8.05597 7.45986 7.97382 7.52769C7.89167 7.59534 7.87998 7.71706 7.94781 7.79921C8.44411 8.40159 8.64761 8.93124 8.60729 9.52966V14.949C8.60729 15.0557 8.69358 15.142 8.80023 15.142C8.90688 15.142 8.99317 15.0557 8.99317 14.949L8.99282 9.84256C9.20218 9.38799 9.42101 9.00863 9.64322 8.71663C9.85124 8.44342 10.1625 8.40894 10.3864 8.46867C10.614 8.52915 10.8736 8.71795 10.9196 9.06653C11.1093 10.4966 10.8906 12.864 10.8224 15.0406C10.8193 15.1472 10.903 15.2362 11.0093 15.2396H11.0153C11.1193 15.2396 11.2049 15.157 11.2082 15.0527C11.2651 13.2076 11.4433 11.0773 11.3545 9.6019C11.5269 9.22918 11.6945 8.93164 11.8655 8.69684C12.0746 8.4095 12.3927 8.36692 12.6218 8.42458C12.8498 8.48167 13.1113 8.66839 13.161 9.0213C13.3624 10.4506 13.1373 12.8528 13.0706 15.0306C13.0684 15.0559 13.0484 15.3424 13.1285 15.7332C12.5762 16.035 11.9864 16.2297 11.4129 16.3784C11.3096 16.4051 11.2474 16.5103 11.2742 16.6135C11.3016 16.719 11.4099 16.7784 11.5093 16.7518C12.0649 16.6078 12.6602 16.4125 13.2323 16.1096C13.3711 16.5119 13.6226 16.9626 14.0824 17.345C14.1631 17.4125 14.2847 17.4028 14.3541 17.3201C14.4219 17.2381 14.411 17.1164 14.3289 17.0484C13.9102 16.7001 13.6905 16.278 13.5759 15.9119C14.5086 15.3288 15.34 14.4082 15.7725 12.8617C15.9681 12.0336 15.9342 11.2503 15.6685 10.4669C15.5378 10.0823 15.2065 9.8138 14.8037 9.76632ZM15.3991 12.7654C15.0155 14.1362 14.31 14.9747 13.4854 15.5199C13.4432 15.2485 13.4551 15.061 13.4557 15.0527C13.4888 13.9815 13.5615 12.8301 13.6021 11.7236C13.7496 11.203 13.9281 10.7736 14.1329 10.4486C14.2701 10.2315 14.506 10.1194 14.7585 10.1496C15.0159 10.1799 15.2193 10.345 15.303 10.5908C15.5446 11.3036 15.5755 12.0174 15.3991 12.7654Z" fill="#E55039"/>
</svg>
