<svg width="281" height="6" viewBox="0 0 281 6" fill="none" xmlns="http://www.w3.org/2000/svg">
<path d="M0 3C0 1.34315 1.34315 0 3 0H32C33.6569 0 35 1.34315 35 3C35 4.65685 33.6532 6 31.9964 6C21.1084 6 13.8916 6 3.00362 6C1.34677 6 0 4.65685 0 3Z" fill="#E55039"/>
<path d="M41 3C41 1.34315 42.3431 0 44 0H73C74.6569 0 76 1.34315 76 3C76 4.65685 74.6532 6 72.9964 6C62.1084 6 54.8916 6 44.0036 6C42.3468 6 41 4.65685 41 3Z" fill="#FCEDEB"/>
<path d="M82 3C82 1.34315 83.3431 0 85 0H114C115.657 0 117 1.34315 117 3C117 4.65685 115.653 6 113.996 6C103.108 6 95.8916 6 85.0036 6C83.3468 6 82 4.65685 82 3Z" fill="#FCEDEB"/>
<path d="M123 3C123 1.34315 124.343 0 126 0H155C156.657 0 158 1.34315 158 3C158 4.65685 156.653 6 154.996 6C144.108 6 136.892 6 126.004 6C124.347 6 123 4.65685 123 3Z" fill="#FCEDEB"/>
<path d="M164 3C164 1.34315 165.343 0 167 0H196C197.657 0 199 1.34315 199 3C199 4.65685 197.653 6 195.996 6C185.108 6 177.892 6 167.004 6C165.347 6 164 4.65685 164 3Z" fill="#FCEDEB"/>
<path d="M205 3C205 1.34315 206.343 0 208 0H237C238.657 0 240 1.34315 240 3C240 4.65685 238.653 6 236.996 6C226.108 6 218.892 6 208.004 6C206.347 6 205 4.65685 205 3Z" fill="#FCEDEB"/>
<path d="M246 3C246 1.34315 247.343 0 249 0H278C279.657 0 281 1.34315 281 3C281 4.65685 279.653 6 277.996 6C267.108 6 259.892 6 249.004 6C247.347 6 246 4.65685 246 3Z" fill="#FCEDEB"/>
</svg>
