<svg width="129" height="96" viewBox="0 0 129 96" fill="none" xmlns="http://www.w3.org/2000/svg">
<path fill-rule="evenodd" clip-rule="evenodd" d="M7.45332 64.5471C4.27201 64.6102 1.63442 62.0888 1.56694 59.1996C1.49753 56.3088 4.02136 54.1445 7.20267 54.0815H115.893C119.077 54.0185 121.712 56.3105 121.782 59.1996C121.851 62.0905 119.325 64.4841 116.144 64.5471H7.45332Z" fill="#F6F6F6"/>
<path fill-rule="evenodd" clip-rule="evenodd" d="M5.81445 82.8624C3.51867 82.9254 1.61525 80.404 1.56655 77.5149C1.51646 74.624 3.33779 72.4598 5.63357 72.3968H84.0701C86.3673 72.3337 88.2693 74.6258 88.3194 77.5149C88.3695 80.4058 86.5468 82.7993 84.251 82.8624H5.81445Z" fill="#F6F6F6"/>
<path fill-rule="evenodd" clip-rule="evenodd" d="M15.1667 69.2911C15.1251 67.3153 13.6212 64.4018 11.5576 63.8076C12.1228 63.62 12.7316 63.8206 13.373 63.8076H56.0635C59.0132 63.7426 61.4465 65.7332 61.5008 68.2568C61.5552 70.7822 59.207 72.8824 56.2574 72.9474H13.5669C12.9273 72.9622 12.3131 73.1108 11.7387 72.9474C13.7771 72.2622 15.2084 70.2307 15.1667 68.2568" fill="#F6F6F6"/>
<path fill-rule="evenodd" clip-rule="evenodd" d="M77.7277 69.2911C77.7694 67.3153 79.2732 64.4018 81.3369 63.8076C80.7716 63.62 80.1628 63.8206 79.5214 63.8076H36.8309C33.8812 63.7426 31.448 65.7332 31.3936 68.2568C31.3392 70.7822 33.6874 72.8824 36.6371 72.9474H79.3275C79.9671 72.9622 80.5813 73.1108 81.1557 72.9474C79.1174 72.2622 77.686 70.2307 77.7277 68.2568" fill="#F6F6F6"/>
<path fill-rule="evenodd" clip-rule="evenodd" d="M128.632 76.1889H125.213V72.7103H124.561V76.1889H121.14V76.77H124.561V80.2792H125.213V76.77H128.632V76.1889Z" fill="#101425"/>
<path fill-rule="evenodd" clip-rule="evenodd" d="M113.419 6.50916H110.001V3.03056H109.349V6.50916H105.928V7.09029H109.349V10.5995H110.001V7.09029H113.419V6.50916Z" fill="#101425"/>
<path fill-rule="evenodd" clip-rule="evenodd" d="M116.526 64.0868H113.107V60.6082H112.455V64.0868H109.035V64.6679H112.455V68.1771H113.107V64.6679H116.526V64.0868Z" fill="#101425"/>
<path fill-rule="evenodd" clip-rule="evenodd" d="M128.253 65.1756C128.253 66.5683 127.134 67.6985 125.755 67.6985C124.377 67.6985 123.258 66.5683 123.258 65.1756C123.258 63.7829 124.377 62.6526 125.755 62.6526C127.134 62.6526 128.253 63.7829 128.253 65.1756Z" fill="white"/>
<path fill-rule="evenodd" clip-rule="evenodd" d="M128.253 65.1756C128.253 66.5683 127.134 67.6985 125.755 67.6985C124.377 67.6985 123.258 66.5683 123.258 65.1756C123.258 63.7829 124.377 62.6526 125.755 62.6526C127.134 62.6526 128.253 63.7829 128.253 65.1756Z" stroke="#101425" stroke-width="0.154256"/>
<path fill-rule="evenodd" clip-rule="evenodd" d="M14.0014 21.4839H10.5827V18.0053H9.92855V21.4839H6.50981V22.0651H9.92855V25.5743H10.5827V22.0651H14.0014V21.4839Z" fill="#101425"/>
<path fill-rule="evenodd" clip-rule="evenodd" d="M35.3409 93.3995C35.3409 94.7922 34.2238 95.9224 32.8437 95.9224C31.4636 95.9224 30.3465 94.7922 30.3465 93.3995C30.3465 92.0068 31.4636 90.8765 32.8437 90.8765C34.2238 90.8765 35.3409 92.0068 35.3409 93.3995Z" fill="white"/>
<path fill-rule="evenodd" clip-rule="evenodd" d="M35.3409 93.3995C35.3409 94.7922 34.2238 95.9224 32.8437 95.9224C31.4636 95.9224 30.3465 94.7922 30.3465 93.3995C30.3465 92.0068 31.4636 90.8765 32.8437 90.8765C34.2238 90.8765 35.3409 92.0068 35.3409 93.3995Z" stroke="#101425" stroke-width="0.154256"/>
<path fill-rule="evenodd" clip-rule="evenodd" d="M101.92 2.60045C101.92 3.99314 100.801 5.12343 99.4223 5.12343C98.0439 5.12343 96.9251 3.99314 96.9251 2.60045C96.9251 1.20777 98.0439 0.0774803 99.4223 0.0774803C100.801 0.0774803 101.92 1.20777 101.92 2.60045Z" fill="white"/>
<path fill-rule="evenodd" clip-rule="evenodd" d="M101.92 2.60045C101.92 3.99314 100.801 5.12343 99.4223 5.12343C98.0439 5.12343 96.9251 3.99314 96.9251 2.60045C96.9251 1.20777 98.0439 0.0774803 99.4223 0.0774803C100.801 0.0774803 101.92 1.20777 101.92 2.60045Z" stroke="#101425" stroke-width="0.154256"/>
<path fill-rule="evenodd" clip-rule="evenodd" d="M5.0719 14.7011C5.0719 16.0938 3.95481 17.2241 2.57469 17.2241C1.19457 17.2241 0.0774803 16.0938 0.0774803 14.7011C0.0774803 13.3084 1.19457 12.1781 2.57469 12.1781C3.95481 12.1781 5.0719 13.3084 5.0719 14.7011Z" fill="white"/>
<path fill-rule="evenodd" clip-rule="evenodd" d="M5.0719 14.7011C5.0719 16.0938 3.95481 17.2241 2.57469 17.2241C1.19457 17.2241 0.0774803 16.0938 0.0774803 14.7011C0.0774803 13.3084 1.19457 12.1781 2.57469 12.1781C3.95481 12.1781 5.0719 13.3084 5.0719 14.7011Z" stroke="#101425" stroke-width="0.154256"/>
<path fill-rule="evenodd" clip-rule="evenodd" d="M63.774 17.5559H64.6696C64.9167 17.5559 65.1175 17.3552 65.1175 17.1081C65.1175 16.861 64.9167 16.6602 64.6696 16.6602H63.774C63.5269 16.6602 63.3261 16.861 63.3261 17.1081C63.3261 17.3552 63.5269 17.5559 63.774 17.5559ZM58.4001 73.9831H59.2958C59.5429 73.9831 59.7436 73.7824 59.7436 73.5353C59.7436 73.2882 59.5429 73.0875 59.2958 73.0875H58.4001C58.153 73.0875 57.9523 73.2882 57.9523 73.5353C57.9523 73.7824 58.153 73.9831 58.4001 73.9831Z" fill="#101425"/>
</svg>
