<svg width="94" height="94" viewBox="0 0 94 94" fill="none" xmlns="http://www.w3.org/2000/svg">
<g clip-path="url(#clip0_0_1147)">
<path d="M40.8701 61.3352C41.4904 60.717 42.494 60.7171 43.1134 61.3352C43.7322 61.9554 43.7322 62.9589 43.1134 63.5791C42.494 64.1972 41.4904 64.1974 40.8701 63.5792C40.252 62.9589 40.252 61.9554 40.8701 61.3352Z" fill="#1D39C4" stroke="#DCEDFF" stroke-width="0.5"/>
<path d="M54.7877 39.8799C43.9314 39.8799 35.0981 31.046 35.0981 20.1896C35.0981 9.3332 43.9313 0.5 54.7877 0.5C65.6441 0.5 74.4773 9.3332 74.4773 20.1896C74.4773 31.046 65.6441 39.8799 54.7877 39.8799ZM54.7877 37.2087C64.1726 37.2087 71.8069 29.5744 71.8069 20.1896C71.8069 10.8055 64.1725 3.17116 54.7877 3.17116C45.4029 3.17116 37.7686 10.8055 37.7686 20.1896C37.7686 29.5744 45.4029 37.2087 54.7877 37.2087Z" fill="#1D39C4" stroke="#DCEDFF"/>
<path d="M42.5938 20.1951C42.5938 26.8764 48.0295 32.3125 54.7109 32.3125C61.3924 32.3125 66.8281 26.8764 66.8281 20.1951C66.8281 13.5138 61.3924 8.07812 54.7109 8.07812C48.0295 8.07812 42.5938 13.5138 42.5938 20.1951ZM64.6252 20.1951C64.6252 25.6618 60.1777 30.1092 54.7109 30.1092C49.2442 30.1092 44.7966 25.6618 44.7966 20.1951C44.7966 14.7289 49.2442 10.2814 54.7109 10.2814C60.1777 10.2814 64.6252 14.7289 64.6252 20.1951Z" fill="#1D39C4"/>
<path d="M21.5879 93.1049L21.588 93.105C22.1056 93.6268 22.9482 93.6324 23.4725 93.116L32.3684 84.352C32.3688 84.3516 32.3693 84.3511 32.3697 84.3507C33.7406 82.9788 34.1607 80.9429 33.5555 79.1715L33.4527 78.8707L33.6815 78.6499L35.5954 76.8042L21.5879 93.1049ZM21.5879 93.1049L0.979565 72.3395C0.461788 71.8176 0.462964 70.9759 0.981537 70.4557C0.981541 70.4557 0.981544 70.4557 0.981548 70.4557L9.71248 61.699C9.71254 61.6989 9.71261 61.6988 9.71267 61.6988C10.9173 60.4943 12.5893 60.0151 14.1748 60.3156L14.5338 60.3836L14.7077 60.0623C18.7513 52.5897 26.2871 48.5886 34.9652 48.5886C38.0882 48.5886 41.1128 49.1925 43.9634 50.3851L44.056 50.4239H44.1564H64.6235C66.7207 50.4239 68.6657 51.4008 69.9419 52.9716L70.2964 53.4078L70.6884 53.0049L81.519 41.8731L81.5294 41.8623M21.5879 93.1049L81.5294 41.8623M75.3378 70.5806L75.338 70.5803C75.3428 70.5757 75.343 70.5765 75.3432 70.5772C75.3445 70.5822 75.345 70.5843 77.0682 68.5238C77.4229 68.0997 77.8503 67.5885 78.3656 66.9722C80.6746 64.2108 84.7485 59.3385 91.9491 50.7325L91.9507 50.7306C94.3847 47.851 94.021 43.5253 91.1383 41.0878L75.3378 70.5806ZM75.3378 70.5806C72.3294 73.5083 68.3631 75.1198 64.1646 75.1198H39.7645C38.2007 75.1198 36.7194 75.7187 35.5956 76.804L75.3378 70.5806ZM81.5294 41.8623L81.5393 41.851M81.5294 41.8623L81.5393 41.851M81.5393 41.851C83.9802 39.0205 88.2729 38.6734 91.1377 41.0873L81.5393 41.851ZM14.4906 63.255C13.5568 62.6788 12.3728 62.8159 11.6029 63.5858L11.6024 63.5863L4.16186 71.0484L3.81066 71.4006L4.16103 71.7537L22.1955 89.9259L22.5464 90.2795L22.9013 89.9299L30.4875 82.4563L30.4901 82.4537C31.3643 81.5795 31.4142 80.0939 30.4801 79.1597L30.4798 79.1595C23.8624 72.5512 20.0474 68.7286 17.8304 66.5072C17.2849 65.9606 16.8362 65.511 16.4663 65.1407C15.5321 64.2055 15.0954 63.7708 14.873 63.5588C14.7646 63.4555 14.6901 63.3884 14.6253 63.3402C14.5877 63.3124 14.5566 63.293 14.5296 63.2774C14.5143 63.2685 14.5079 63.265 14.5037 63.2626C14.4995 63.2603 14.4973 63.2591 14.4906 63.255ZM14.4906 63.255C14.4911 63.2553 14.4916 63.2556 14.4921 63.2559L14.2292 63.6812M14.4906 63.255C14.4902 63.2547 14.4898 63.2545 14.4894 63.2542L14.2292 63.6812M14.2292 63.6812C13.4912 63.2251 12.5618 63.3341 11.9565 63.9394L14.2788 63.7099C14.264 63.7014 14.249 63.6933 14.2292 63.6812ZM43.2455 52.9829L43.2452 52.9827C40.6304 51.8389 37.8441 51.2591 34.9645 51.2591C26.9565 51.2591 20.4697 54.9295 17.013 61.4143L16.8388 61.7411L17.1007 62.003L31.4798 76.3814L31.8272 76.7288L32.1806 76.3877L33.7404 74.8823L33.7406 74.8821C35.3642 73.3135 37.5029 72.4494 39.7645 72.4494H64.1646C67.6298 72.4494 70.9101 71.1294 73.4072 68.7321L73.4269 68.7132L73.4445 68.6923L89.9054 49.0137C89.9056 49.0135 89.9058 49.0133 89.9059 49.0131C91.3949 47.2499 91.1731 44.6142 89.416 43.1285L89.4154 43.128C87.6595 41.6476 85.0226 41.8705 83.5366 43.6245L83.5349 43.6266C83.5378 43.6231 83.5363 43.6246 83.5262 43.6353C83.5148 43.6473 83.4924 43.671 83.4528 43.7122C83.3868 43.7809 83.2836 43.8876 83.1282 44.0479C82.8174 44.3683 82.2997 44.9008 81.4562 45.7678C80.8676 46.3728 80.1203 47.1407 79.1742 48.1131C77.4093 49.9269 74.9523 52.4519 71.5422 55.9572L71.3733 56.1308L71.4048 56.3709C71.4439 56.6684 71.4651 56.9665 71.4651 57.2655C71.4651 61.0377 68.3958 64.1071 64.6235 64.1071H49.6484C48.9111 64.1071 48.3132 63.5096 48.3132 62.7718C48.3132 62.0346 48.9112 61.4366 49.6484 61.4366H64.6235C66.9242 61.4366 68.7947 59.5662 68.7947 57.2655C68.7947 54.9366 66.8846 53.095 64.6235 53.095H43.7806C43.5965 53.095 43.4146 53.057 43.2455 52.9829Z" fill="#1D39C4" stroke="#DCEDFF"/>
</g>
<defs>
<clipPath id="clip0_0_1147">
<rect width="93.8164" height="94" fill="white"/>
</clipPath>
</defs>
</svg>
