<svg width="7" height="10" viewBox="0 0 7 10" fill="none" xmlns="http://www.w3.org/2000/svg">
<g clip-path="url(#clip0_0_388)">
<path d="M0 1.25C0 0.55957 0.522266 0 1.16667 0H5.83333C6.47682 0 7 0.55957 7 1.25V6.875H4.66667C4.34401 6.875 4.08333 7.1543 4.08333 7.5V10H1.16667C0.522266 10 0 9.43945 0 8.75V1.25ZM3.12266 1.0291C3.00964 0.907031 2.8237 0.907031 2.71068 1.0291L0.960495 2.9043C0.846562 3.02539 0.846562 3.22461 0.960495 3.3457C1.07424 3.46875 1.25891 3.46875 1.37284 3.3457L3.12266 1.4709C3.2375 1.34902 3.2375 1.15117 3.12266 1.0291ZM4.87266 2.0957C4.9875 1.97461 4.9875 1.77598 4.87266 1.6541C4.75963 1.53203 4.5737 1.53203 4.46068 1.6541L1.54383 4.7793C1.4299 4.90039 1.4299 5.09961 1.54383 5.2207C1.65758 5.34375 1.84297 5.34375 1.95599 5.2207L4.87266 2.0957ZM7 7.5L4.66667 10V7.5H7Z" fill="white"/>
</g>
<defs>
<clipPath id="clip0_0_388">
<rect width="7" height="10" fill="white"/>
</clipPath>
</defs>
</svg>
