<svg width="20" height="20" viewBox="0 0 20 20" fill="none" xmlns="http://www.w3.org/2000/svg">
<path d="M10 17.5C14.1421 17.5 17.5 14.1421 17.5 10C17.5 5.85786 14.1421 2.5 10 2.5C5.85786 2.5 2.5 5.85786 2.5 10C2.5 14.1421 5.85786 17.5 10 17.5Z" stroke="#E55039" stroke-linecap="round" stroke-linejoin="round"/>
<path d="M12.3333 7.49932C12.1824 7.23745 11.963 7.02157 11.6988 6.87478C11.4346 6.72799 11.1354 6.65581 10.8333 6.66598H9.16667C8.72464 6.66598 8.30072 6.84158 7.98816 7.15414C7.6756 7.4667 7.5 7.89062 7.5 8.33265C7.5 8.77468 7.6756 9.1986 7.98816 9.51116C8.30072 9.82372 8.72464 9.99932 9.16667 9.99932H10.8333C11.2754 9.99932 11.6993 10.1749 12.0118 10.4875C12.3244 10.8 12.5 11.224 12.5 11.666C12.5 12.108 12.3244 12.5319 12.0118 12.8445C11.6993 13.1571 11.2754 13.3327 10.8333 13.3327H9.16667C8.86458 13.3428 8.56541 13.2706 8.30118 13.1239C8.03696 12.9771 7.81763 12.7612 7.66667 12.4993" stroke="#E55039" stroke-linecap="round" stroke-linejoin="round"/>
<path d="M10 13.3333V15M10 5V6.66667V5Z" stroke="#E55039" stroke-linecap="round" stroke-linejoin="round"/>
</svg>
