<svg width="24" height="24" viewBox="0 0 24 24" fill="none" xmlns="http://www.w3.org/2000/svg">
<path d="M20.25 13.7491L19.8216 13.1784L19.8008 13.1508C19.8492 13.0242 19.8747 12.8889 19.875 12.7508C19.875 12.7505 19.875 12.7503 19.875 12.75L20.25 13.7491Z" fill="#1D39C4" stroke="#1D39C4" stroke-width="8"/>
<mask id="path-2-inside-1_946_38189" fill="white">
<path d="M7.875 20.625C7.97446 20.625 8.06984 20.5855 8.14017 20.5152C8.21049 20.4448 8.25 20.3495 8.25 20.25C8.25 20.1505 8.21049 20.0552 8.14017 19.9848C8.06984 19.9145 7.97446 19.875 7.875 19.875C7.3779 19.8744 6.90133 19.6767 6.54982 19.3252C6.19832 18.9737 6.00059 18.4971 6 18C6 17.9005 5.96049 17.8052 5.89016 17.7348C5.81984 17.6645 5.72446 17.625 5.625 17.625C5.52554 17.625 5.43016 17.6645 5.35984 17.7348C5.28951 17.8052 5.25 17.9005 5.25 18C5.24941 18.4971 5.05168 18.9737 4.70018 19.3252C4.34867 19.6767 3.8721 19.8744 3.375 19.875C3.27554 19.875 3.18016 19.9145 3.10984 19.9848C3.03951 20.0552 3 20.1505 3 20.25C3 20.3495 3.03951 20.4448 3.10984 20.5152C3.18016 20.5855 3.27554 20.625 3.375 20.625C3.8721 20.6256 4.34867 20.8233 4.70018 21.1748C5.05168 21.5263 5.24941 22.0029 5.25 22.5C5.25 22.5995 5.28951 22.6948 5.35984 22.7652C5.43016 22.8355 5.52554 22.875 5.625 22.875C5.72446 22.875 5.81984 22.8355 5.89016 22.7652C5.96049 22.6948 6 22.5995 6 22.5C6.00059 22.0029 6.19832 21.5263 6.54982 21.1748C6.90133 20.8233 7.3779 20.6256 7.875 20.625ZM5.625 21.1491C5.40283 20.7808 5.09424 20.4722 4.72594 20.25C5.09424 20.0278 5.40283 19.7192 5.625 19.3509C5.84716 19.7192 6.15576 20.0278 6.52406 20.25C6.15576 20.4722 5.84716 20.7808 5.625 21.1491Z"/>
</mask>
<path d="M7.875 20.625C7.97446 20.625 8.06984 20.5855 8.14017 20.5152C8.21049 20.4448 8.25 20.3495 8.25 20.25C8.25 20.1505 8.21049 20.0552 8.14017 19.9848C8.06984 19.9145 7.97446 19.875 7.875 19.875C7.3779 19.8744 6.90133 19.6767 6.54982 19.3252C6.19832 18.9737 6.00059 18.4971 6 18C6 17.9005 5.96049 17.8052 5.89016 17.7348C5.81984 17.6645 5.72446 17.625 5.625 17.625C5.52554 17.625 5.43016 17.6645 5.35984 17.7348C5.28951 17.8052 5.25 17.9005 5.25 18C5.24941 18.4971 5.05168 18.9737 4.70018 19.3252C4.34867 19.6767 3.8721 19.8744 3.375 19.875C3.27554 19.875 3.18016 19.9145 3.10984 19.9848C3.03951 20.0552 3 20.1505 3 20.25C3 20.3495 3.03951 20.4448 3.10984 20.5152C3.18016 20.5855 3.27554 20.625 3.375 20.625C3.8721 20.6256 4.34867 20.8233 4.70018 21.1748C5.05168 21.5263 5.24941 22.0029 5.25 22.5C5.25 22.5995 5.28951 22.6948 5.35984 22.7652C5.43016 22.8355 5.52554 22.875 5.625 22.875C5.72446 22.875 5.81984 22.8355 5.89016 22.7652C5.96049 22.6948 6 22.5995 6 22.5C6.00059 22.0029 6.19832 21.5263 6.54982 21.1748C6.90133 20.8233 7.3779 20.6256 7.875 20.625ZM5.625 21.1491C5.40283 20.7808 5.09424 20.4722 4.72594 20.25C5.09424 20.0278 5.40283 19.7192 5.625 19.3509C5.84716 19.7192 6.15576 20.0278 6.52406 20.25C6.15576 20.4722 5.84716 20.7808 5.625 21.1491Z" fill="#1D39C4"/>
<path d="M7.875 19.875L7.86558 27.875H7.875V19.875ZM6 18H-2.00001L-1.99999 18.0094L6 18ZM5.25 18L13.25 18.0094V18H5.25ZM3.375 19.875V27.875L3.38442 27.875L3.375 19.875ZM3 20.25H11H3ZM3.375 20.625L3.38442 12.625H3.375V20.625ZM5.25 22.5H13.25L13.25 22.4906L5.25 22.5ZM6 22.5L-2 22.4906V22.5H6ZM4.72594 20.25L0.59379 13.3998L-10.7624 20.25L0.59379 27.1002L4.72594 20.25ZM5.625 19.3509L12.4752 15.2188L5.62503 3.86258L-1.22521 15.2188L5.625 19.3509ZM6.52406 20.25L10.6562 27.1002L22.0125 20.25L10.6562 13.3998L6.52406 20.25ZM7.875 28.625C10.0962 28.625 12.2264 27.7427 13.797 26.172L2.48331 14.8583C3.91329 13.4283 5.85275 12.625 7.875 12.625V28.625ZM13.797 26.172C15.3677 24.6014 16.25 22.4712 16.25 20.25H0.25C0.25 18.2277 1.05333 16.2883 2.48331 14.8583L13.797 26.172ZM16.25 20.25C16.25 18.0288 15.3677 15.8986 13.797 14.328L2.48331 25.6417C1.05333 24.2117 0.25 22.2723 0.25 20.25H16.25ZM13.797 14.328C12.2264 12.7573 10.0962 11.875 7.875 11.875V27.875C5.85275 27.875 3.91329 27.0717 2.48331 25.6417L13.797 14.328ZM7.88442 11.875C9.50579 11.8769 11.0602 12.5218 12.2067 13.6683L0.892967 24.982C2.74245 26.8315 5.25001 27.8719 7.86558 27.875L7.88442 11.875ZM12.2067 13.6683C13.3532 14.8148 13.9981 16.3692 14 17.9906L-1.99999 18.0094C-1.99691 20.625 -0.95652 23.1325 0.892967 24.982L12.2067 13.6683ZM14 18C14 15.7788 13.1176 13.6486 11.547 12.078L0.233311 23.3917C-1.19666 21.9617 -2 20.0223 -2 18H14ZM11.547 12.078C9.97639 10.5074 7.84617 9.625 5.625 9.625V25.625C3.60274 25.625 1.66329 24.8217 0.233311 23.3917L11.547 12.078ZM5.625 9.625C3.40383 9.625 1.27361 10.5074 -0.297019 12.078L11.0167 23.3917C9.58671 24.8217 7.64726 25.625 5.625 25.625V9.625ZM-0.297019 12.078C-1.86764 13.6486 -2.75 15.7788 -2.75 18H13.25C13.25 20.0223 12.4467 21.9617 11.0167 23.3917L-0.297019 12.078ZM-2.74999 17.9906C-2.74808 16.3692 -2.10316 14.8148 -0.956676 13.6683L10.357 24.982C12.2065 23.1325 13.2469 20.625 13.25 18.0094L-2.74999 17.9906ZM-0.956676 13.6683C0.189804 12.5218 1.74421 11.8769 3.36558 11.875L3.38442 27.875C5.99999 27.8719 8.50755 26.8315 10.357 24.982L-0.956676 13.6683ZM3.375 11.875C1.15383 11.875 -0.976392 12.7574 -2.54702 14.328L8.76669 25.6417C7.33671 27.0717 5.39726 27.875 3.375 27.875V11.875ZM-2.54702 14.328C-4.11764 15.8986 -5 18.0288 -5 20.25H11C11 22.2723 10.1967 24.2117 8.76669 25.6417L-2.54702 14.328ZM-5 20.25C-5 22.4712 -4.11764 24.6014 -2.54702 26.172L8.76669 14.8583C10.1967 16.2883 11 18.2277 11 20.25H-5ZM-2.54702 26.172C-0.976392 27.7426 1.15383 28.625 3.375 28.625V12.625C5.39726 12.625 7.33671 13.4283 8.76669 14.8583L-2.54702 26.172ZM3.36558 28.625C1.74421 28.6231 0.189804 27.9782 -0.956676 26.8317L10.357 15.518C8.50755 13.6685 5.99999 12.6281 3.38442 12.625L3.36558 28.625ZM-0.956676 26.8317C-2.10316 25.6852 -2.74808 24.1308 -2.74999 22.5094L13.25 22.4906C13.2469 19.875 12.2065 17.3675 10.357 15.518L-0.956676 26.8317ZM-2.75 22.5C-2.75 24.7212 -1.86764 26.8514 -0.297019 28.422L11.0167 17.1083C12.4467 18.5383 13.25 20.4777 13.25 22.5H-2.75ZM-0.297019 28.422C1.27361 29.9926 3.40383 30.875 5.625 30.875V14.875C7.64726 14.875 9.58671 15.6783 11.0167 17.1083L-0.297019 28.422ZM5.625 30.875C7.84617 30.875 9.97639 29.9926 11.547 28.422L0.233311 17.1083C1.66329 15.6783 3.60274 14.875 5.625 14.875V30.875ZM11.547 28.422C13.1176 26.8514 14 24.7212 14 22.5H-2C-2 20.4777 -1.19666 18.5383 0.233311 17.1083L11.547 28.422ZM14 22.5094C13.9981 24.1308 13.3532 25.6852 12.2067 26.8317L0.892967 15.518C-0.95652 17.3675 -1.99691 19.875 -1.99999 22.4906L14 22.5094ZM12.2067 26.8317C11.0602 27.9782 9.50579 28.6231 7.88442 28.625L7.86558 12.625C5.25001 12.6281 2.74245 13.6685 0.892967 15.518L12.2067 26.8317ZM12.4752 17.0169C11.5814 15.5352 10.3398 14.2936 8.85808 13.3998L0.59379 27.1002C-0.151362 26.6507 -0.775718 26.0264 -1.22521 25.2812L12.4752 17.0169ZM8.85808 27.1002C10.3398 26.2064 11.5814 24.9648 12.4752 23.4831L-1.22521 15.2188C-0.775718 14.4736 -0.151362 13.8493 0.59379 13.3998L8.85808 27.1002ZM-1.22522 23.4831C-0.331399 24.9648 0.91016 26.2064 2.39194 27.1002L10.6562 13.3998C11.4014 13.8493 12.0257 14.4736 12.4752 15.2188L-1.22522 23.4831ZM2.39194 13.3998C0.91016 14.2936 -0.331399 15.5352 -1.22522 17.0169L12.4752 25.2812C12.0257 26.0264 11.4014 26.6507 10.6562 27.1002L2.39194 13.3998Z" fill="#1D39C4" mask="url(#path-2-inside-1_946_38189)"/>
<path d="M22.5 2.625C22.2017 2.62467 21.9158 2.50604 21.7049 2.29513C21.494 2.08423 21.3753 1.79827 21.375 1.5C21.375 1.40054 21.3355 1.30516 21.2652 1.23483C21.1948 1.16451 21.0995 1.125 21 1.125C20.9005 1.125 20.8052 1.16451 20.7348 1.23483C20.6645 1.30516 20.625 1.40054 20.625 1.5C20.6247 1.79827 20.506 2.08423 20.2951 2.29513C20.0842 2.50604 19.7983 2.62467 19.5 2.625C19.4005 2.625 19.3052 2.66451 19.2348 2.73484C19.1645 2.80516 19.125 2.90054 19.125 3C19.125 3.09946 19.1645 3.19484 19.2348 3.26516C19.3052 3.33549 19.4005 3.375 19.5 3.375C19.7983 3.37533 20.0842 3.49396 20.2951 3.70487C20.506 3.91577 20.6247 4.20173 20.625 4.5C20.625 4.59946 20.6645 4.69484 20.7348 4.76516C20.8052 4.83549 20.9005 4.875 21 4.875C21.0995 4.875 21.1948 4.83549 21.2652 4.76516C21.3355 4.69484 21.375 4.59946 21.375 4.5C21.3753 4.20173 21.494 3.91577 21.7049 3.70487C21.9158 3.49396 22.2017 3.37533 22.5 3.375C22.5995 3.375 22.6948 3.33549 22.7652 3.26516C22.8355 3.19484 22.875 3.09946 22.875 3C22.875 2.90054 22.8355 2.80516 22.7652 2.73484C22.6948 2.66451 22.5995 2.625 22.5 2.625ZM21 3.37609C20.893 3.2336 20.7664 3.10698 20.6239 3C20.7664 2.89302 20.893 2.7664 21 2.62391C21.107 2.7664 21.2336 2.89302 21.3761 3C21.2336 3.10698 21.107 3.2336 21 3.37609Z" fill="#1D39C4"/>
<path d="M5.625 3.375C5.72446 3.375 5.81984 3.33549 5.89016 3.26516C5.96049 3.19484 6 3.09946 6 3V2.625H6.375C6.47446 2.625 6.56984 2.58549 6.64017 2.51516C6.71049 2.44484 6.75 2.34946 6.75 2.25C6.75 2.15054 6.71049 2.05516 6.64017 1.98484C6.56984 1.91451 6.47446 1.875 6.375 1.875H6V1.5C6 1.40054 5.96049 1.30516 5.89016 1.23483C5.81984 1.16451 5.72446 1.125 5.625 1.125C5.52554 1.125 5.43016 1.16451 5.35984 1.23483C5.28951 1.30516 5.25 1.40054 5.25 1.5V1.875H4.875C4.77554 1.875 4.68016 1.91451 4.60984 1.98484C4.53951 2.05516 4.5 2.15054 4.5 2.25C4.5 2.34946 4.53951 2.44484 4.60984 2.51516C4.68016 2.58549 4.77554 2.625 4.875 2.625H5.25V3C5.25 3.09946 5.28951 3.19484 5.35984 3.26516C5.43016 3.33549 5.52554 3.375 5.625 3.375Z" fill="#1D39C4"/>
<path d="M17.625 18.75H17.25V18.375C17.25 18.2755 17.2105 18.1802 17.1402 18.1098C17.0698 18.0395 16.9745 18 16.875 18C16.7755 18 16.6802 18.0395 16.6098 18.1098C16.5395 18.1802 16.5 18.2755 16.5 18.375V18.75H16.125C16.0255 18.75 15.9302 18.7895 15.8598 18.8598C15.7895 18.9302 15.75 19.0255 15.75 19.125C15.75 19.2245 15.7895 19.3198 15.8598 19.3902C15.9302 19.4605 16.0255 19.5 16.125 19.5H16.5V19.875C16.5 19.9745 16.5395 20.0698 16.6098 20.1402C16.6802 20.2105 16.7755 20.25 16.875 20.25C16.9745 20.25 17.0698 20.2105 17.1402 20.1402C17.2105 20.0698 17.25 19.9745 17.25 19.875V19.5H17.625C17.7245 19.5 17.8198 19.4605 17.8902 19.3902C17.9605 19.3198 18 19.2245 18 19.125C18 19.0255 17.9605 18.9302 17.8902 18.8598C17.8198 18.7895 17.7245 18.75 17.625 18.75Z" fill="#1D39C4"/>
<path d="M2.05368 8.98016L6.12284 14.0666C5.96851 14.17 5.84219 14.3099 5.75517 14.474C5.66815 14.6381 5.62314 14.8212 5.62416 15.0069C5.62518 15.1926 5.6722 15.3752 5.76102 15.5383C5.84984 15.7015 5.97768 15.84 6.13314 15.9417C6.28859 16.0433 6.4668 16.1049 6.65185 16.1208C6.8369 16.1367 7.02301 16.1066 7.19356 16.033C7.3641 15.9595 7.51377 15.8448 7.62918 15.6993C7.74459 15.5538 7.82215 15.3819 7.85493 15.1991L11.3114 12.5082C11.4562 12.6234 11.6275 12.7007 11.8097 12.733C11.9919 12.7654 12.1793 12.7518 12.355 12.6935C12.5306 12.6352 12.689 12.534 12.8156 12.3991C12.9423 12.2642 13.0334 12.0998 13.0806 11.9209L17.7298 10.5925C17.8099 10.7674 17.9335 10.9187 18.0889 11.0321C18.2442 11.1455 18.4261 11.2171 18.617 11.2401C18.808 11.2631 19.0016 11.2367 19.1794 11.1634C19.3573 11.0902 19.5133 10.9725 19.6326 10.8217C19.7519 10.6708 19.8306 10.4919 19.8609 10.302C19.8913 10.1121 19.8725 9.91755 19.8062 9.73702C19.7398 9.55649 19.6283 9.39601 19.4822 9.27092C19.3361 9.14583 19.1604 9.06034 18.9718 9.02261L17.4496 6.58713C17.6071 6.49385 17.7394 6.36344 17.835 6.20727C17.9305 6.05111 17.9863 5.87394 17.9976 5.69123C18.009 5.50851 17.9754 5.32581 17.8998 5.15906C17.8243 4.99231 17.7091 4.84657 17.5643 4.73458C17.4195 4.62258 17.2495 4.54773 17.0691 4.51655C16.8887 4.48536 16.7034 4.4988 16.5294 4.55569C16.3554 4.61257 16.198 4.71118 16.0709 4.84289C15.9437 4.97461 15.8508 5.13544 15.8001 5.31135L11.1579 6.30592C11.0818 6.12856 10.9612 5.97378 10.8079 5.8565C10.6546 5.73921 10.4737 5.66336 10.2826 5.63624C10.0915 5.60912 9.8966 5.63166 9.71672 5.70167C9.53684 5.77169 9.37801 5.88682 9.25552 6.036C9.13302 6.18518 9.05099 6.36338 9.01731 6.55344C8.98364 6.74351 8.99945 6.93904 9.06323 7.12122C9.12701 7.30341 9.23662 7.46611 9.38149 7.59366C9.52636 7.72122 9.70163 7.80934 9.89043 7.84953L11.447 10.6513C11.2353 10.7678 11.0677 10.9504 10.9698 11.1713C10.8719 11.3921 10.8491 11.639 10.905 11.874L7.687 14.3793C7.60272 14.2526 7.49364 14.1444 7.36636 14.0612C7.23907 13.9779 7.09622 13.9213 6.94645 13.8948L2.87721 8.80837C3.09495 8.66317 3.25536 8.44671 3.33091 8.19614C3.40647 7.94557 3.39246 7.67652 3.29129 7.43515C3.19013 7.19378 3.00811 6.99515 2.77647 6.87334C2.54483 6.75153 2.27802 6.71414 2.02183 6.76758C1.76563 6.82103 1.53602 6.96197 1.3724 7.16623C1.20878 7.37049 1.12135 7.62532 1.12512 7.88701C1.12888 8.14869 1.22361 8.40091 1.39304 8.60037C1.56247 8.79984 1.79605 8.93411 2.05368 8.98016ZM12 12C11.9259 12 11.8534 11.978 11.7917 11.9368C11.73 11.8956 11.682 11.837 11.6536 11.7685C11.6252 11.7 11.6178 11.6246 11.6322 11.5518C11.6467 11.4791 11.6824 11.4123 11.7349 11.3598C11.7873 11.3074 11.8541 11.2717 11.9269 11.2572C11.9996 11.2427 12.075 11.2502 12.1435 11.2785C12.2121 11.3069 12.2706 11.355 12.3118 11.4167C12.353 11.4783 12.375 11.5508 12.375 11.625C12.375 11.7244 12.3354 11.8198 12.2651 11.8901C12.1948 11.9604 12.0995 11.9999 12 12ZM11.2 7.06383L15.8422 6.06903C15.9143 6.23605 16.0257 6.38316 16.1669 6.49781C16.3081 6.61246 16.475 6.69127 16.6533 6.7275L18.1754 9.16297C17.9272 9.31158 17.746 9.55026 17.6695 9.82923L13.0203 11.1577C12.9474 10.9985 12.8385 10.8585 12.7022 10.7488C12.5658 10.639 12.4058 10.5626 12.2347 10.5255L10.6782 7.72365C10.931 7.57966 11.1181 7.3431 11.2 7.06383ZM18.75 10.5C18.6759 10.5 18.6034 10.478 18.5417 10.4368C18.48 10.3956 18.432 10.337 18.4036 10.2685C18.3752 10.2 18.3678 10.1246 18.3822 10.0518C18.3967 9.97909 18.4324 9.91228 18.4849 9.85983C18.5373 9.80739 18.6041 9.77167 18.6769 9.7572C18.7496 9.74273 18.825 9.75016 18.8935 9.77854C18.9621 9.80692 19.0206 9.85499 19.0618 9.91666C19.103 9.97833 19.125 10.0508 19.125 10.125C19.125 10.2244 19.0854 10.3198 19.0151 10.3901C18.9448 10.4604 18.8495 10.4999 18.75 10.5ZM16.875 5.25C16.9492 5.25 17.0217 5.27199 17.0834 5.31319C17.145 5.3544 17.1931 5.41297 17.2215 5.48149C17.2499 5.55001 17.2573 5.62541 17.2428 5.69815C17.2284 5.7709 17.1926 5.83772 17.1402 5.89016C17.0877 5.94261 17.0209 5.97832 16.9482 5.99279C16.8754 6.00726 16.8 5.99983 16.7315 5.97145C16.663 5.94307 16.6044 5.895 16.5632 5.83333C16.522 5.77167 16.5 5.69916 16.5 5.625C16.5001 5.52556 16.5396 5.43021 16.6099 5.3599C16.6802 5.28958 16.7756 5.25006 16.875 5.25ZM10.125 6.375C10.1992 6.375 10.2717 6.39699 10.3334 6.43819C10.395 6.4794 10.4431 6.53797 10.4715 6.60649C10.4999 6.67501 10.5073 6.75041 10.4928 6.82315C10.4784 6.8959 10.4426 6.96272 10.3902 7.01516C10.3377 7.06761 10.2709 7.10332 10.1982 7.11779C10.1254 7.13226 10.05 7.12483 9.98152 7.09645C9.913 7.06807 9.85443 7.02 9.81322 6.95833C9.77202 6.89667 9.75003 6.82416 9.75003 6.75C9.75009 6.65056 9.78961 6.55521 9.85993 6.4849C9.93024 6.41458 10.0256 6.37506 10.125 6.375ZM6.75003 15.375C6.67586 15.375 6.60336 15.353 6.54169 15.3118C6.48002 15.2706 6.43195 15.212 6.40357 15.1435C6.37519 15.075 6.36776 14.9996 6.38223 14.9268C6.3967 14.8541 6.43242 14.7873 6.48486 14.7348C6.5373 14.6824 6.60412 14.6467 6.67687 14.6322C6.74961 14.6177 6.82501 14.6252 6.89353 14.6535C6.96205 14.6819 7.02062 14.73 7.06183 14.7917C7.10303 14.8533 7.12503 14.9258 7.12503 15C7.12497 15.0994 7.08544 15.1948 7.01513 15.2651C6.94481 15.3354 6.84946 15.3749 6.75003 15.375ZM2.25003 7.5C2.32419 7.5 2.3967 7.52199 2.45836 7.56319C2.52003 7.6044 2.5681 7.66297 2.59648 7.73149C2.62486 7.80001 2.63229 7.87541 2.61782 7.94816C2.60335 8.0209 2.56764 8.08772 2.51519 8.14016C2.46275 8.19261 2.39593 8.22832 2.32318 8.24279C2.25044 8.25726 2.17504 8.24983 2.10652 8.22145C2.038 8.19307 1.97943 8.145 1.93822 8.08333C1.89702 8.02167 1.87503 7.94916 1.87503 7.875C1.87509 7.77556 1.91461 7.68021 1.98493 7.6099C2.05524 7.53958 2.15059 7.50006 2.25003 7.5Z" fill="#1D39C4"/>
</svg>
