<svg width="24" height="24" viewBox="0 0 24 24" fill="none" xmlns="http://www.w3.org/2000/svg">
<path d="M12 4C13.1046 4 14 4.89543 14 6C14 7.10457 13.1046 8 12 8C10.8954 8 10 7.10457 10 6C10 4.89543 10.8954 4 12 4Z" stroke="#1D39C4" stroke-linecap="round" stroke-linejoin="round"/>
<path d="M7 16C8.10457 16 9 16.8954 9 18C9 19.1046 8.10457 20 7 20C5.89543 20 5 19.1046 5 18C5 16.8954 5.89543 16 7 16Z" stroke="#1D39C4" stroke-linecap="round" stroke-linejoin="round"/>
<path d="M17 16C18.1046 16 19 16.8954 19 18C19 19.1046 18.1046 20 17 20C15.8954 20 15 19.1046 15 18C15 16.8954 15.8954 16 17 16Z" stroke="#1D39C4" stroke-linecap="round" stroke-linejoin="round"/>
<path d="M7 16V14C7 13.4696 7.21071 12.9609 7.58579 12.5858C7.96086 12.2107 8.46957 12 9 12H15C15.5304 12 16.0391 12.2107 16.4142 12.5858C16.7893 12.9609 17 13.4696 17 14V16" stroke="#1D39C4" stroke-linecap="round" stroke-linejoin="round"/>
<path d="M12 12V8" stroke="#1D39C4" stroke-linecap="round" stroke-linejoin="round"/>
</svg>
