<svg width="77" height="72" viewBox="0 0 77 72" fill="none" xmlns="http://www.w3.org/2000/svg">
<path d="M6.64598 0C10.3159 0 13.292 2.97607 13.292 6.64598V13.292H6.64598C2.97607 13.292 0 10.3159 0 6.64598C0 2.97607 2.97474 0 6.64598 0Z" fill="#F68820"/>
<path d="M55.8262 65.1306V55.1616C55.8262 53.6928 54.6365 52.5032 53.1678 52.5032C54.6365 52.5032 55.8262 51.3136 55.8262 49.8448V23.9255V12.6274C55.8262 11.1586 54.6365 9.96896 53.1678 9.96896C54.6365 9.96896 55.8262 8.77933 55.8262 7.31057V6.64597C55.8262 2.97607 52.8501 0 49.1802 0H6.64597C10.3159 0 13.2919 2.97607 13.2919 6.64597V20.6025C13.2919 22.0713 14.4816 23.2609 15.9503 23.2609C14.4816 23.2609 13.2919 24.4505 13.2919 25.9193V65.1306C13.2919 68.8005 16.268 71.7765 19.9379 71.7765H62.4722C58.8009 71.7765 55.8262 68.8005 55.8262 65.1306Z" fill="#FBBE18"/>
<path d="M30.5715 12.6274H46.5218C47.2556 12.6274 47.851 12.0319 47.851 11.2982C47.851 10.5645 47.2556 9.96901 46.5218 9.96901H30.5715C29.8378 9.96901 29.2423 10.5645 29.2423 11.2982C29.2423 12.0319 29.8364 12.6274 30.5715 12.6274Z" fill="#F68820"/>
<path d="M22.5963 19.2734H46.5218C47.2555 19.2734 47.851 18.6779 47.851 17.9442C47.851 17.2105 47.2555 16.615 46.5218 16.615H22.5963C21.8626 16.615 21.2671 17.2105 21.2671 17.9442C21.2671 18.6779 21.8613 19.2734 22.5963 19.2734Z" fill="#F68820"/>
<path d="M22.5963 25.9193H46.5218C47.2555 25.9193 47.851 25.3239 47.851 24.5901C47.851 23.8564 47.2555 23.2609 46.5218 23.2609H22.5963C21.8626 23.2609 21.2671 23.8564 21.2671 24.5901C21.2671 25.3239 21.8613 25.9193 22.5963 25.9193Z" fill="#F68820"/>
<path d="M22.5963 32.5653H46.5218C47.2555 32.5653 47.851 31.9698 47.851 31.2361C47.851 30.5024 47.2555 29.9069 46.5218 29.9069H22.5963C21.8626 29.9069 21.2671 30.5024 21.2671 31.2361C21.2671 31.9698 21.8613 32.5653 22.5963 32.5653Z" fill="#F68820"/>
<path d="M22.5963 39.2113H46.5218C47.2555 39.2113 47.851 38.6158 47.851 37.8821C47.851 37.1484 47.2555 36.5529 46.5218 36.5529H22.5963C21.8626 36.5529 21.2671 37.1484 21.2671 37.8821C21.2671 38.6158 21.8613 39.2113 22.5963 39.2113Z" fill="#F68820"/>
<path d="M22.5963 45.8573H46.5218C47.2555 45.8573 47.851 45.2619 47.851 44.5282C47.851 43.7944 47.2555 43.199 46.5218 43.199H22.5963C21.8626 43.199 21.2671 43.7944 21.2671 44.5282C21.2671 45.2619 21.8613 45.8573 22.5963 45.8573Z" fill="#F68820"/>
<path d="M22.5963 52.5033H33.8945C34.6282 52.5033 35.2237 51.9078 35.2237 51.1741C35.2237 50.4404 34.6282 49.8449 33.8945 49.8449H22.5963C21.8626 49.8449 21.2671 50.4404 21.2671 51.1741C21.2671 51.9078 21.8613 52.5033 22.5963 52.5033Z" fill="#F68820"/>
<path d="M19.9379 58.4846C18.1023 58.4846 16.6149 59.972 16.6149 61.8076C16.6149 63.6432 18.1023 65.1306 19.9379 65.1306H29.9069V58.4846H19.9379Z" fill="#BF6B1E"/>
<path d="M19.938 58.4846C23.6079 58.4846 26.5839 61.4607 26.5839 65.1306C26.5839 68.8005 23.6079 71.7765 19.938 71.7765H62.4722C66.1421 71.7765 69.1182 68.8005 69.1182 65.1306C69.1182 61.4607 66.1421 58.4846 62.4722 58.4846H19.938Z" fill="#F68820"/>
<path d="M42.5343 45.8572H50.4151C52.1776 45.8572 53.8683 45.1568 55.1151 43.9113L75.0531 23.9734C77.649 21.3774 77.649 17.1705 75.0531 14.5746L73.8182 13.3398C71.2223 10.7439 67.0154 10.7439 64.4195 13.3398L44.4816 33.2777C43.2348 34.5245 42.5356 36.2139 42.5356 37.9778V45.8572H42.5343Z" fill="#B3B4B6"/>
<path d="M42.5343 45.8572H50.4151C52.1776 45.8572 53.8683 45.1567 55.1151 43.9113L75.0531 23.9734C77.649 21.3774 77.649 17.1705 75.0531 14.5746L74.435 13.9565L42.5343 45.8572Z" fill="#808080"/>
<path d="M59.8138 28.5777V17.9441L64.4181 13.3398C67.0141 10.7439 71.221 10.7439 73.8169 13.3398L75.0517 14.5746C77.6476 17.1705 77.6476 21.3774 75.0517 23.9734L70.4474 28.5777H59.8138Z" fill="#55525B"/>
<path d="M59.8138 28.5777L74.435 13.9565L75.0517 14.5733C77.6476 17.1692 77.6476 21.3761 75.0517 23.972L70.4474 28.5777H59.8138Z" fill="#353744"/>
<path d="M37.2175 51.8386C37.0474 51.8386 36.8772 51.7734 36.747 51.6445C36.4878 51.3853 36.4878 50.964 36.747 50.7048L73.9644 13.4873C74.2236 13.2281 74.645 13.2281 74.9042 13.4873C75.1634 13.7465 75.1634 14.1679 74.9042 14.4271L37.6867 51.6445C37.5578 51.7734 37.3876 51.8386 37.2175 51.8386Z" fill="#DBDEE3"/>
</svg>
