<svg width="24" height="24" viewBox="0 0 24 24" fill="none" xmlns="http://www.w3.org/2000/svg">
<g clip-path="url(#clip0_0_898)">
<path d="M23.1131 14.7984L17.6249 12.6394L15.7848 6.58284C15.7284 6.39698 15.532 6.29225 15.3463 6.34864C15.1606 6.40504 15.0557 6.60151 15.1121 6.78718L16.9864 12.9566V18.8605H14.976C13.5031 18.8605 12.3047 17.662 12.3047 16.1891V10.9422C12.3047 10.4191 12.7303 9.99337 13.2536 9.99337C13.7767 9.99337 14.2022 10.4191 14.2022 10.9422V14.0788C14.2022 14.2731 14.3597 14.4304 14.5538 14.4304C14.7481 14.4304 14.9054 14.2731 14.9054 14.0788V10.9422C14.9054 10.0313 14.1643 9.29024 13.2536 9.29024C12.9005 9.29024 12.5733 9.40193 12.3047 9.59126V3.34626C12.3047 2.87091 12.6914 2.48438 13.1668 2.48438C13.5566 2.48438 13.899 2.74732 13.9995 3.12397C14.0006 3.12781 14.0016 3.13166 14.0028 3.1355L14.705 5.44703C14.7614 5.63288 14.9579 5.73762 15.1436 5.68122C15.3293 5.62483 15.4342 5.42835 15.3778 5.24268L14.6772 2.93665C14.4926 2.25586 13.8725 1.78125 13.1666 1.78125C12.6775 1.78125 12.2403 2.00684 11.9531 2.35932C11.6659 2.00684 11.2286 1.78125 10.7395 1.78125C10.0338 1.78125 9.41365 2.25586 9.22908 2.93665L6.28145 12.6394L0.793215 14.7984C0.282899 14.9991 -0.046875 15.4832 -0.046875 16.0316V20.9555C-0.046875 21.9392 1.03858 22.5901 1.90686 22.1223L6.657 19.5636H8.93025C10.2534 19.5636 11.4005 18.7978 11.9531 17.6864C12.5059 18.7978 13.6529 19.5636 14.976 19.5636H17.2493C17.2493 19.5636 21.9936 22.1192 21.9993 22.1223C22.8633 22.5878 23.9532 21.9344 23.9532 20.9555V16.0316C23.9532 15.4832 23.6234 14.9991 23.1131 14.7984ZM8.93025 18.8605H6.91994V17.5403C6.91994 17.346 6.76246 17.1887 6.56837 17.1887C6.37428 17.1887 6.21681 17.346 6.21681 17.5403V19.002C6.21681 19.002 1.57929 21.5001 1.57343 21.5032C1.16529 21.7231 0.656251 21.4164 0.656251 20.9555V16.0316C0.656251 15.7742 0.811159 15.547 1.05066 15.4527L6.21681 13.4204V16.1402C6.21681 16.3343 6.37428 16.4918 6.56837 16.4918C6.76246 16.4918 6.91994 16.3343 6.91994 16.1402V12.9566L9.90346 3.1355C9.90456 3.13166 9.90566 3.12781 9.90676 3.12397C10.0073 2.74732 10.3497 2.48438 10.7395 2.48438C11.2149 2.48438 11.6016 2.8711 11.6016 3.34626V9.59126C11.3328 9.40193 11.0056 9.29024 10.6527 9.29024C9.74178 9.29024 9.00075 10.0313 9.00075 10.9422V14.0788C9.00075 14.2731 9.15822 14.4304 9.35231 14.4304C9.54659 14.4304 9.70388 14.2731 9.70388 14.0788V10.9422C9.70388 10.4191 10.1296 9.99337 10.6527 9.99337C11.1759 9.99337 11.6016 10.4191 11.6016 10.9422V16.1891C11.6016 17.662 10.4032 18.8605 8.93025 18.8605ZM23.25 20.9555C23.25 21.4168 22.7401 21.7228 22.3329 21.5032L17.6895 19.002V13.4206L22.8556 15.4527C23.0951 15.547 23.25 15.7742 23.25 16.0316V20.9555Z" fill="#E55039" stroke="#E55039" stroke-width="0.25"/>
</g>
<defs>
<clipPath id="clip0_0_898">
<rect width="24" height="24" fill="white"/>
</clipPath>
</defs>
</svg>
