<svg width="24" height="24" viewBox="0 0 24 24" fill="none" xmlns="http://www.w3.org/2000/svg">
<path d="M18.3047 1H6.43456C5.38845 1 4.5 1.84372 4.5 2.93456V20.4865C4.50308 21.8711 6.1942 22.5207 7.15564 21.5488L11.6802 17.0255C12.0428 16.6473 12.6965 16.6473 13.0591 17.0255L17.5836 21.5488C18.5455 22.5211 20.2364 21.8705 20.2393 20.4865V2.93456C20.2393 1.84372 19.3508 1 18.3047 1V1ZM19.0079 20.4866C19.0064 20.7797 18.642 20.8764 18.4535 20.6774C17.549 19.7715 14.9695 17.1928 13.9306 16.1557C13.1132 15.3009 11.6273 15.3007 10.8103 16.1541C10.0926 16.8704 8.68771 18.2749 7.58024 19.382L6.29185 20.6699C6.1062 20.8668 5.73725 20.8011 5.7313 20.4977V2.93456C5.7313 2.54127 6.0501 2.23134 6.43456 2.23134H18.3047C18.6885 2.23134 19.0079 2.54078 19.0079 2.93456V20.4866Z" fill="#E55039"/>
</svg>
