<svg width="44" height="44" viewBox="0 0 44 44" fill="none" xmlns="http://www.w3.org/2000/svg">
<g clip-path="url(#clip0_0_503)">
<path d="M36.4368 0.644531H7.56317C3.74197 0.644531 0.644531 3.74197 0.644531 7.56317V36.4368C0.644531 40.2577 3.74197 43.3555 7.56317 43.3555H36.4368C40.258 43.3555 43.3555 40.258 43.3555 36.4368V7.56317C43.3555 3.74197 40.258 0.644531 36.4368 0.644531Z" fill="#B2E59C"/>
<path d="M24.5449 0.644531H7.56317C3.74231 0.644531 0.644531 3.74197 0.644531 7.56317V36.4368C0.644531 40.2577 3.74231 43.3555 7.56317 43.3555H16.4721C9.45984 34.9464 12.1001 19.4064 17.3963 13.3441C22.5106 7.49066 24.0719 2.80472 24.5449 0.644531Z" fill="#9AD880"/>
<path d="M20.1208 32.5337C19.2436 32.5337 18.3973 32.1984 17.7578 31.5928L8.75689 23.0722C7.3782 21.767 7.31878 19.5914 8.62395 18.2127C9.92913 16.8344 12.1044 16.7743 13.4834 18.0794L19.9227 24.1753L30.3235 12.6056C31.5928 11.1937 33.766 11.0782 35.178 12.3471C36.5899 13.6164 36.7054 15.7897 35.4361 17.2016L22.6774 31.3944C22.0574 32.0839 21.1856 32.4938 20.2591 32.531C20.2131 32.5331 20.1668 32.5337 20.1208 32.5337Z" fill="white"/>
<path d="M13.4834 18.0798C12.1044 16.7743 9.92879 16.8344 8.62361 18.2127C7.31844 19.5917 7.37819 21.767 8.75688 23.0725L12.4065 26.5272C12.7043 23.7788 13.3542 21.1279 14.2555 18.8109L13.4834 18.0798Z" fill="#CCF8FF"/>
</g>
<defs>
<clipPath id="clip0_0_503">
<rect width="44" height="44" fill="white"/>
</clipPath>
</defs>
</svg>
