<svg width="82" height="94" viewBox="0 0 82 94" fill="none" xmlns="http://www.w3.org/2000/svg">
<path d="M31.7068 40.6523L31.6421 40.4108L31.7068 40.6523C34.8607 39.8072 38.1539 40.2408 40.982 41.8734C46.8188 45.2432 48.8259 52.734 45.4561 58.5706C43.1951 62.4868 39.0779 64.6799 34.8494 64.6798C32.7771 64.6798 30.6792 64.1533 28.7588 63.0445L28.6337 63.261L28.7587 63.0445C22.9219 59.6748 20.9149 52.184 24.2847 46.3474L24.0681 46.2224L24.2847 46.3474C25.9173 43.5195 28.5527 41.4974 31.7068 40.6523ZM26.2365 47.4742L26.2365 47.4742C24.6482 50.2253 24.5273 53.4252 25.6231 56.1667L25.7303 56.4348L25.9803 56.2904L42.6373 46.6737L42.8867 46.5297L42.7091 46.303C41.9463 45.3291 40.9907 44.4806 39.8552 43.8251C38.2894 42.9212 36.577 42.4913 34.8866 42.4913C31.4396 42.4913 28.0815 44.2787 26.2365 47.4742ZM27.1036 58.2445L26.8543 58.3885L27.0318 58.6152C27.7946 59.589 28.7503 60.4375 29.8858 61.093C34.6464 63.8418 40.7555 62.2047 43.5046 57.444L43.5046 57.4439C45.0929 54.6929 45.2138 51.4929 44.1178 48.7514L44.0106 48.4834L43.7607 48.6277L27.1036 58.2445Z" fill="#1D39C4" stroke="#DCEDFF" stroke-width="0.5"/>
<path d="M14.6721 62.9978L14.6721 62.9977C14.9831 62.4589 15.672 62.274 16.2113 62.5854C16.2113 62.5854 16.2113 62.5854 16.2113 62.5854L35.4307 73.6818C35.9696 73.9929 36.1543 74.6821 35.8432 75.221C35.6346 75.5821 35.2562 75.7846 34.866 75.7846C34.6752 75.7846 34.4817 75.7361 34.3039 75.6335L34.3039 75.6334L15.0845 64.537C14.5456 64.2259 14.3609 63.5367 14.6721 62.9978Z" fill="#1D39C4" stroke="#DCEDFF" stroke-width="0.5"/>
<path d="M10.5415 70.1516L10.5415 70.1515C10.8524 69.6127 11.5412 69.4278 12.0807 69.7392C12.0807 69.7392 12.0807 69.7392 12.0807 69.7392L31.3001 80.8356C31.839 81.1467 32.0237 81.8359 31.7125 82.3748C31.504 82.7359 31.1255 82.9384 30.7354 82.9384C30.5446 82.9384 30.3512 82.8899 30.1732 82.7872L10.9539 71.6908C10.4149 71.3797 10.2303 70.6905 10.5415 70.1516Z" fill="#1D39C4" stroke="#DCEDFF" stroke-width="0.5"/>
<path d="M64.0202 3.35577L63.9598 3.31842C63.7833 3.20931 63.606 3.1022 63.4266 2.99865L63.4265 2.99862C58.696 0.267266 53.1861 -0.45807 47.9096 0.955586C42.8896 2.3007 38.656 5.42947 35.9043 9.8042L35.8308 9.92109H35.6927H11.809C9.53169 9.92109 7.67858 11.7744 7.67858 14.0516C7.67858 16.0098 9.07267 17.7132 10.9923 18.1005L43.0062 24.5588L43.1388 24.5855L43.189 24.7112C44.0837 26.9546 45.6996 28.8312 47.8085 30.0486L47.8086 30.0487L55.4862 34.4852C59.9408 37.0573 61.472 42.7739 58.8999 47.2293L34.6084 89.3031C34.0236 90.3161 33.0783 91.0414 31.9485 91.344M64.0202 3.35577L31.8838 91.1026M64.0202 3.35577H64.0913H74.363C78.021 3.35577 80.9972 6.332 80.9976 9.98997V21.5499C80.9976 22.1723 80.4932 22.6768 79.8708 22.6768C79.2483 22.6768 78.7439 22.1723 78.7439 21.5499V9.98997C78.7439 7.57423 76.7789 5.60945 74.3634 5.60945H67.6253H67.0092L67.4511 6.03876C74.0083 12.4093 75.6858 22.6628 70.9117 30.9319C69.8098 32.8404 67.803 33.9096 65.7414 33.9098C64.7312 33.9098 63.7088 33.6532 62.7728 33.1127L62.6478 33.3292M64.0202 3.35577L48.9359 28.0973M31.9485 91.344L31.8838 91.1026M31.9485 91.344C31.9485 91.344 31.9486 91.344 31.9486 91.344L31.8838 91.1026M31.9485 91.344C30.8187 91.6471 29.6375 91.4911 28.6246 90.9064L4.69713 77.0921C3.68421 76.5073 2.95864 75.562 2.65601 74.4322C2.35339 73.3025 2.50886 72.1211 3.09367 71.1081L28.9773 26.2762C29.2885 25.7372 29.1039 25.0481 28.565 24.7369M31.8838 91.1026C30.8182 91.3884 29.7051 91.2415 28.7496 90.6899L4.82213 76.8756C3.8666 76.3239 3.18296 75.4332 2.89749 74.3675C2.61203 73.3019 2.75852 72.1886 3.31018 71.2331L29.1939 26.4012C29.574 25.7427 29.3484 24.9006 28.6899 24.5204M28.565 24.7369L28.6899 24.5204M28.565 24.7369C28.0254 24.4255 27.3365 24.6105 27.0257 25.1492L27.0257 25.1493L1.14181 69.9813C0.255422 71.5164 0.0202433 73.3034 0.479098 75.0155C0.937957 76.7276 2.03517 78.1576 3.57028 79.0438L3.44529 79.2603M28.565 24.7369C28.565 24.7369 28.5649 24.7369 28.5649 24.7369L28.6899 24.5204M28.6899 24.5204L48.9359 28.0973M3.44529 79.2603L27.3728 93.0748C28.4335 93.6872 29.6106 94.0002 30.8037 94.0002C31.4016 94.0002 32.0035 93.9216 32.5965 93.7626M3.44529 79.2603L63.5515 2.78212C63.7338 2.88731 63.9134 2.9958 64.0913 3.10577H74.363C78.1591 3.10577 81.2472 6.19393 81.2476 9.98997V21.5499C81.2476 22.3103 80.6313 22.9268 79.8708 22.9268C79.1102 22.9268 78.4939 22.3103 78.4939 21.5499V9.98997C78.4939 7.71231 76.6409 5.85945 74.3634 5.85945H67.9818C67.9215 5.79935 67.8607 5.73958 67.7995 5.68014L67.6253 5.85945V6.10945H67.8782C74.3049 12.5735 75.8991 22.7934 71.1282 31.0569C69.9797 33.0462 67.8884 34.1596 65.7414 34.1598C64.6886 34.1598 63.6229 33.8923 62.6478 33.3292M3.44529 79.2603L3.57029 79.0438L27.4978 92.8582C28.5207 93.4489 29.6547 93.7502 30.8037 93.7502C31.3796 93.7502 31.9598 93.6745 32.5317 93.5211L32.5965 93.7626M32.5965 93.7626C34.3728 93.2868 35.8574 92.1477 36.7768 90.5551L61.0681 48.4813C64.3305 42.8305 62.388 35.5794 56.7386 32.3174L49.0609 27.8808M32.5965 93.7626L32.5318 93.5211C34.2441 93.0625 35.674 91.9653 36.5602 90.4301L60.8516 48.3563C64.0449 42.8251 62.1434 35.7268 56.6136 32.5339L56.6135 32.5338L48.9359 28.0973M49.0609 27.8808C48.1301 27.3434 47.3247 26.6384 46.677 25.8095L46.4038 25.7544L46.4532 25.5093L46.6569 25.3645C46.7094 25.4382 46.763 25.511 46.8179 25.5829L51.5187 26.5311C52.083 26.645 52.6504 26.701 53.2138 26.701C55.1598 26.701 57.0563 26.0331 58.5947 24.7739M49.0609 27.8808L48.9359 28.0973M49.0609 27.8808L48.9358 28.0973L48.9359 28.0973M58.5947 24.7739C59.821 23.7703 60.7222 22.4688 61.2325 21.016C61.2423 20.7526 61.2389 20.4883 61.2224 20.2239L61.472 20.2083L61.7149 20.2674C61.6493 20.5368 61.5712 20.8023 61.4809 21.0631C61.426 22.3807 61.0537 23.6742 60.3754 24.849C58.6639 27.8134 59.6832 31.6177 62.6478 33.3292M58.5947 24.7739L58.4364 24.5805C56.9428 25.803 55.1022 26.451 53.2138 26.451C52.667 26.451 52.1161 26.3966 51.5681 26.2861L46.5026 25.2643L45.8834 25.1394L46.2494 25.6542C46.9523 26.6426 47.8633 27.478 48.9359 28.0973M58.5947 24.7739L58.4364 24.5805C59.8436 23.4288 60.8095 21.8735 61.229 20.1492L61.7215 20.1928C61.825 21.8511 61.4409 23.5035 60.5919 24.974C58.9495 27.8189 59.9277 31.4703 62.7728 33.1127L62.6478 33.3292M58.5953 11.3663L58.7203 11.1498L58.5953 11.3663C61.0909 12.8071 62.8752 15.1324 63.621 17.9159C64.3668 20.6993 63.9842 23.6052 62.5434 26.1009C61.5222 27.8699 62.1304 30.1396 63.8994 31.1611C65.6685 32.1825 67.9384 31.5741 68.9596 29.8051C73.9759 21.1162 70.9885 9.96678 62.2997 4.9503C58.091 2.52034 53.1869 1.87508 48.493 3.13249L48.5577 3.37397L48.493 3.13249C44.6201 4.17023 41.2733 6.40429 38.8551 9.51774L38.5419 9.92109H39.0526H44.4553C45.0778 9.92109 45.5821 10.4256 45.5821 11.0479C45.5821 11.6703 45.0778 12.1748 44.4553 12.1748H11.809C10.7741 12.1748 9.93226 13.0166 9.93226 14.0516C9.93226 14.942 10.5649 15.7152 11.4379 15.8913C11.4379 15.8913 11.4379 15.8913 11.4379 15.8913L52.0134 24.0769C53.7874 24.4346 55.6082 23.9824 57.0085 22.8364C58.4089 21.6904 59.2122 19.9947 59.2122 18.1853C59.2122 14.8709 56.5163 12.175 53.2019 12.175H49.9625C49.34 12.175 48.8356 11.6704 48.8356 11.0481C48.8356 10.4258 49.34 9.92128 49.9625 9.92128H49.9626H49.9627H49.9632L49.9648 9.92127L49.9714 9.92127L49.997 9.92126L50.0944 9.92121L50.4433 9.92104L51.5144 9.92052L53.2008 9.91962H53.2009H53.2009H53.2009H53.201H53.201H53.201H53.2011H53.2011H53.2012H53.2012H53.2012H53.2013H53.2013H53.2014H53.2014H53.2014H53.2015H53.2015H53.2016H53.2016H53.2016H53.2017H53.2017H53.2017H53.2018H53.2018H53.2019H53.2019H53.2019H53.202H53.202H53.2021H53.2021H53.2021H53.2022H53.2022H53.2023H53.2023H53.2023H53.2024H53.2024H53.2025H53.2025H53.2025H53.2026H53.2026H53.2026H53.2027H53.2027H53.2028H53.2028H53.2028H53.2029H53.2029H53.203H53.203H53.203H53.2031H53.2031H53.2032H53.2032H53.2032H53.2033H53.2033H53.2034H53.2034H53.2034H53.2035H53.2035H53.2036H53.2036H53.2036H53.2037H53.2037H53.2038H53.2038H53.2038H53.2039H53.2039H53.204H53.204H53.204H53.2041H53.2041H53.2042H53.2042H53.2042H53.2043H53.2043H53.2043H53.2044H53.2044H53.2045H53.2045H53.2045H53.2046H53.2046H53.2047H53.2047H53.2047H53.2048H53.2048H53.2049H53.2049H53.2049H53.205H53.205H53.2051H53.2051H53.2051H53.2052H53.2052H53.2053H53.2053H53.2053H53.2054H53.2054H53.2055H53.2055H53.2055H53.2056H53.2056H53.2057H53.2057H53.2057H53.2058H53.2058H53.2059H53.2059H53.2059H53.206H53.206H53.2061H53.2061H53.2061H53.2062H53.2062H53.2063H53.2063H53.2063H53.2064H53.2064H53.2065H53.2065H53.2065H53.2066H53.2066H53.2067H53.2067H53.2067H53.2068H53.2068H53.2069H53.2069H53.2069H53.207H53.207H53.2071H53.2071H53.2071H53.2072H53.2072H53.2073H53.2073H53.2073H53.2074H53.2074H53.2075H53.2075H53.2075H53.2076H53.2076H53.2076H53.2077H53.2077H53.2078H53.2078H53.2078H53.2079H53.2079H53.208H53.208H53.208H53.2081H53.2081H53.2082H53.2082H53.2082H53.2083H53.2083H53.2084H53.2084H53.2084H53.2085H53.2085H53.2086H53.2086H53.2086H53.2087H53.2087H53.2088H53.2088H53.2088H53.2089H53.2089H53.209H53.209H53.209H53.2091H53.2091H53.2092H53.2092H53.2092H53.2093H53.2093H53.2094H53.2094H53.2094H53.2095H53.2095H53.2095H53.2096H53.2096H53.2097H53.2097H53.2097H53.2098H53.2098H53.2099H53.2099H53.2099H53.21H53.21H53.2101H53.2101H53.2101H53.2102H53.2102H53.2103H53.2103H53.2103H53.2104H53.2104H53.2104H53.2105H53.2105H53.2106H53.2106H53.2106H53.2107H53.2107H53.2108H53.2108H53.2108H53.2109H53.2109C55.0938 9.91962 56.9556 10.4196 58.5953 11.3663Z" fill="#1D39C4" stroke="#DCEDFF" stroke-width="0.5"/>
<path d="M72.7268 66.967V67.217H72.9768H74.3631C76.7786 67.217 78.7436 65.2522 78.7436 62.8364V27.0575C78.7436 26.4352 79.2479 25.9307 79.8704 25.9307C80.4929 25.9307 80.9973 26.435 80.9974 27.0575C80.9974 27.0575 80.9974 27.0575 80.9974 27.0576V62.8364C80.9974 66.4944 78.0212 69.4706 74.3632 69.4706H54.0688C53.4463 69.4706 52.942 68.9661 52.942 68.3438C52.942 67.7215 53.4463 67.217 54.0688 67.217H64.7158H64.9658V66.967V63.7143C64.9658 63.092 65.4702 62.5875 66.0926 62.5875C66.7151 62.5875 67.2195 63.092 67.2195 63.7143V66.967V67.217H67.4695H70.2232H70.4732V66.967V63.7143C70.4732 63.092 70.9775 62.5875 71.6 62.5875C72.2225 62.5875 72.7268 63.092 72.7268 63.7143V66.967Z" fill="#1D39C4" stroke="#DCEDFF" stroke-width="0.5"/>
</svg>
