<svg width="24" height="19" viewBox="0 0 24 19" fill="none" xmlns="http://www.w3.org/2000/svg">
<path d="M1.9 11.875V12.375H2.4H10.8H11.3V11.875V5.9375C11.3 5.56173 11.6074 5.25 12 5.25H20.4C22.1194 5.25 23.5 6.59641 23.5 8.3125V16.625C23.5 17.0008 23.1926 17.3125 22.8 17.3125C22.4074 17.3125 22.1 17.0008 22.1 16.625V15.4375V14.9375H21.6H2.4H1.9V15.4375V16.625C1.9 17.0005 1.59174 17.3125 1.2 17.3125C0.808262 17.3125 0.5 17.0005 0.5 16.625V2.375C0.5 2.00034 0.808568 1.6875 1.2 1.6875C1.59143 1.6875 1.9 2.00034 1.9 2.375V11.875ZM4.1 7.71875C4.1 6.35958 5.21369 5.25 6.6 5.25C7.98631 5.25 9.1 6.35958 9.1 7.71875C9.1 9.07792 7.98631 10.1875 6.6 10.1875C5.21369 10.1875 4.1 9.07792 4.1 7.71875Z" fill="white" stroke="#E55039"/>
</svg>
