<svg width="69" height="72" viewBox="0 0 69 72" fill="none" xmlns="http://www.w3.org/2000/svg">
<path d="M65.0016 53.487C67.494 48.7202 68.9055 43.2987 68.9055 37.5471C68.9055 18.5193 53.4805 3.09436 34.4527 3.09436C15.425 3.09436 0 18.5195 0 37.5471C0 43.2989 1.41145 48.7202 3.90388 53.4871L65.0016 53.487Z" fill="#5AAB5F"/>
<path d="M31.8693 0.161053C24.1119 1.21799 23.3746 5.61616 23.3711 7.22997C23.3704 7.56831 23.183 7.88204 22.8786 8.02998C18.8436 9.99296 21.019 19.4536 21.019 19.4536C21.4243 19.4806 21.8484 19.6447 22.1647 19.798C22.2422 19.3159 22.3686 18.8413 22.5472 18.3825C22.6833 18.0329 22.8533 17.6798 23.0661 17.3461C23.4351 16.7671 23.6031 16.0842 23.5531 15.4014C23.4081 13.4277 23.4778 9.5386 26.0832 8.36649C28.2903 7.3734 30.9976 7.94842 32.7242 8.52259C33.8454 8.89538 35.06 8.89538 36.1813 8.52259C37.9078 7.94842 40.6152 7.3734 42.8223 8.36649C45.4201 9.53536 45.497 13.4056 45.3536 15.3845C45.3038 16.0724 45.4673 16.7625 45.8391 17.3459C46.0587 17.6903 46.2329 18.0555 46.3711 18.4161C46.543 18.8644 46.6652 19.3276 46.7407 19.7979C47.1394 19.6046 47.7093 19.3943 48.1968 19.4632C48.2565 17.3944 48.4474 15.1644 48.4474 15.1644C50.7464 3.90532 40.2219 -0.977021 31.8693 0.161053Z" fill="#665364"/>
<path d="M31.8694 0.161131C24.112 1.21807 23.3747 5.61624 23.3713 7.22991C23.3706 7.56839 23.1831 7.88198 22.8788 8.02992C18.8436 9.9929 21.0192 19.4536 21.0192 19.4536C21.4245 19.4806 21.8486 19.6447 22.1649 19.7979C22.2424 19.3159 22.3688 18.8413 22.5474 18.3824C22.6835 18.0328 22.8537 17.6797 23.0663 17.346C23.4353 16.7671 23.6033 16.0842 23.5533 15.4013C23.4083 13.4277 23.478 9.53854 26.0832 8.36643C28.1833 7.42144 30.7357 7.89633 32.4655 8.43928C32.45 8.41073 32.4359 8.38148 32.4198 8.35322C29.5309 3.30282 34.4186 0.116412 34.5954 0.00335014C33.6743 -0.0123998 32.7594 0.0399125 31.8694 0.161131Z" fill="#543E5B"/>
<path d="M49.0687 19.7323C48.4644 19.1785 47.261 19.4592 46.7407 19.7982C46.8547 20.5081 46.8612 21.2344 46.7626 21.9516L46.1485 26.424C46.1485 26.7846 46.1371 27.1383 46.1163 27.4859C47.6137 27.9376 48.3574 26.5932 48.4829 25.6707C48.5367 25.2736 48.6249 24.8822 48.7472 24.5003C49.1456 23.2562 50.5825 21.1195 49.0687 19.7323Z" fill="#FCAD6D"/>
<path d="M47.7685 23.497C47.338 23.497 46.9375 23.3733 46.5964 23.1623L46.1485 26.4237C46.1485 26.7843 46.1372 27.1379 46.1163 27.4856C47.6137 27.9373 48.3574 26.5929 48.4829 25.6704C48.5367 25.2733 48.6249 24.8819 48.7472 24.4998C48.903 24.0133 49.2175 23.3897 49.4523 22.7282C49.0427 23.1985 48.4411 23.497 47.7685 23.497Z" fill="#FD995B"/>
<path d="M19.8366 19.7323C20.4408 19.1785 21.6444 19.4592 22.1647 19.7982C22.0506 20.5081 22.0442 21.2344 22.1427 21.9516L22.7568 26.424C22.7568 26.7846 22.7682 27.1383 22.7891 27.4859C21.2917 27.9376 20.5479 26.5932 20.4225 25.6707C20.3686 25.2736 20.2804 24.8822 20.1581 24.5003C19.7597 23.2562 18.3228 21.1195 19.8366 19.7323Z" fill="#FCAD6D"/>
<path d="M22.2874 23.0025C21.904 23.3114 21.4173 23.4972 20.8867 23.4972C20.4002 23.4972 19.9512 23.34 19.5841 23.0758C19.7945 23.6065 20.0302 24.0996 20.1584 24.5C20.2808 24.8819 20.369 25.2734 20.4228 25.6706C20.5481 26.5931 21.2919 27.9374 22.7894 27.4857C22.7684 27.1383 22.757 26.7845 22.757 26.4239L22.2874 23.0025Z" fill="#FD995B"/>
<path d="M26.8134 44.3025C27.6358 46.2961 29.0951 48.1725 31.151 49.8794C31.4029 50.0884 31.554 50.3963 31.566 50.7241L31.5732 50.9219H37.3324L37.3396 50.7243C37.3516 50.3963 37.5029 50.0884 37.7546 49.8794C39.8105 48.1725 41.2699 46.2961 42.0923 44.3025C42.6606 42.925 42.8195 41.7441 42.8331 40.8922C42.3765 39.5455 42.2184 38.0179 42.1768 36.8071C41.3966 37.7158 40.5778 38.4759 39.7955 39.0835C38.2713 40.2671 36.3901 40.9101 34.4529 40.9101C32.5155 40.9101 30.6345 40.2671 29.1103 39.0835C28.3278 38.4759 27.509 37.7158 26.7289 36.8071C26.6873 38.0177 26.5291 39.5452 26.0726 40.8921C26.0861 41.7441 26.2453 42.925 26.8134 44.3025Z" fill="#FCAD6D"/>
<path d="M34.4527 40.9101C32.5154 40.9101 30.6343 40.2672 29.1101 39.0835C28.3276 38.4759 27.5088 37.7158 26.7287 36.8071C26.687 38.0177 26.5289 39.5452 26.0724 40.8921C26.0862 41.7441 26.2453 42.925 26.8134 44.3025C27.6358 46.2962 29.095 48.1725 31.151 49.8794C31.1699 49.8952 31.1871 49.9125 31.2048 49.9292C34.2638 47.0648 34.4527 40.9101 34.4527 40.9101Z" fill="#FD995B"/>
<path d="M37.2303 68.1055C40.1889 62.8745 42.0762 57.6962 43.2774 53.134C42.8217 53.835 42.3891 54.467 42.0165 54.9959C41.8196 55.2756 41.5104 55.4397 41.1681 55.4465C40.8244 55.4501 40.5083 55.3005 40.2997 55.0275L39.0903 53.4451L37.8516 55.649C37.5317 56.2889 36.8884 56.6863 36.1728 56.6863H32.7544C32.0389 56.6863 31.3958 56.2888 31.0759 55.649L29.8284 53.4274L28.6055 55.0274C28.397 55.3003 28.0773 55.45 27.7372 55.4463C27.3949 55.4397 27.0856 55.2755 26.8888 54.9957C26.5163 54.4669 26.0837 53.8349 25.6279 53.134C26.8291 57.6959 28.7167 62.8742 31.6755 68.1053H37.2303V68.1055Z" fill="#BEC8F7"/>
<path d="M36.1731 56.686H32.7546C32.5898 56.686 32.4291 56.6639 32.2749 56.6237C31.3699 59.0412 30.7742 62.6273 30.3861 65.6992C31.4454 67.7875 32.6691 69.898 34.0799 71.9947C34.2042 71.996 34.3281 71.9995 34.4527 71.9995C34.5774 71.9995 34.7014 71.9961 34.8259 71.9947C36.3026 69.8 37.5749 67.59 38.6677 65.4063C38.2767 62.3989 37.6852 58.9242 36.7995 56.5791C36.6022 56.6486 36.3912 56.686 36.1731 56.686Z" fill="#543E5B"/>
<path d="M36.1731 56.686H32.7546C32.5898 56.686 32.4291 56.6639 32.2749 56.6237C31.3699 59.0412 30.7742 62.6273 30.3861 65.6992C31.4454 67.7875 32.6691 69.898 34.0799 71.9947C34.2042 71.996 34.3281 71.9995 34.4527 71.9995C34.5774 71.9995 34.7014 71.9961 34.8259 71.9947C36.3026 69.8 37.5749 67.59 38.6677 65.4063C38.2767 62.3989 37.6852 58.9242 36.7995 56.5791C36.6022 56.6486 36.3912 56.686 36.1731 56.686Z" fill="#543E5B"/>
<path d="M34.4652 63.4958C33.0243 63.4958 31.7532 62.7703 30.9961 61.6651C30.751 63.0175 30.5498 64.4042 30.3861 65.6998C31.4454 67.788 32.6691 69.8985 34.0799 71.9952C34.2042 71.9965 34.3281 72 34.4527 72C34.5775 72 34.7014 71.9967 34.8259 71.9952C36.3026 69.8005 37.5749 67.5906 38.6677 65.4068C38.5028 64.1387 38.3018 62.788 38.0587 61.4734C37.3214 62.6859 35.9878 63.4958 34.4652 63.4958Z" fill="#422953"/>
<path d="M37.4643 50.7173C35.6544 50.7173 33.41 50.7173 31.6 50.7173L29.7242 53.6776L30.8925 56.0144C31.2452 56.7198 31.9661 57.1653 32.7547 57.1653H36.1731C36.9617 57.1653 37.6826 56.7198 38.0353 56.0144L39.2036 53.6776L37.4643 50.7173Z" fill="#665364"/>
<path d="M34.9525 55.9871C34.2103 54.5025 34.2996 52.7377 35.188 51.3358L35.58 50.7173C34.2331 50.7173 32.8184 50.7173 31.6 50.7173L29.7242 53.6776L30.8925 56.0144C31.2452 56.7198 31.9661 57.1653 32.7547 57.1653H36.1731C36.2886 57.1653 36.4023 57.1546 36.5139 57.1361C35.846 57.0266 35.2613 56.6047 34.9525 55.9871Z" fill="#543E5B"/>
<path d="M40.1368 55.1523C40.6577 55.8336 41.6903 55.8153 42.1842 55.1143C42.603 54.5196 43.1185 53.7641 43.6645 52.9103C44.8913 48.0422 45.3051 44.176 45.468 42.216L43.1407 40.1866C42.9323 40.0048 42.6089 40.1616 42.6218 40.4378C42.6965 42.0358 42.2949 45.8439 37.6233 49.7222C37.0645 50.1861 36.969 51.0081 37.4101 51.5851L40.1368 55.1523Z" fill="#E9EFFF"/>
<path d="M25.2418 52.9119C25.7874 53.765 26.3025 54.5202 26.7211 55.1145C27.215 55.8155 28.2477 55.8338 28.7685 55.1524L31.495 51.5851C31.9362 51.008 31.8407 50.1861 31.2819 49.7222C26.6105 45.8439 26.2087 42.0358 26.2834 40.4378C26.2963 40.1616 25.9729 40.0048 25.7645 40.1866L23.4371 42.216C23.6004 44.1761 24.0145 48.0432 25.2418 52.9119Z" fill="#E9EFFF"/>
<path d="M29.7243 48.2766C26.5177 44.9272 26.2183 41.8363 26.2837 40.4378C26.2966 40.1616 25.9733 40.0048 25.7648 40.1866L23.4374 42.216C23.5774 43.8985 23.9028 46.9866 24.7682 50.9065C25.294 50.8087 25.7707 50.5042 26.084 50.0475C27.8494 47.4735 29.7243 48.2766 29.7243 48.2766Z" fill="#DAE2FE"/>
<path d="M20.8633 63.2848C20.6874 63.0826 20.6693 62.786 20.819 62.5631L23.2508 58.9413C23.4262 58.6803 23.4695 58.3594 23.3694 58.0612C23.2694 57.7628 23.0414 57.5328 22.744 57.4302L18.679 56.027C18.4595 55.9512 18.303 55.752 18.2802 55.5192C17.8784 51.43 18.146 47.8366 18.3412 46.0586C18.3748 45.7522 18.482 45.4598 18.6454 45.2026C17.614 45.6684 16.5986 46.186 15.5892 46.7551C14.4145 47.4174 13.8843 47.8042 12.8875 47.8856C8.35025 48.2565 5.55 50.5116 3.82988 53.3463C8.88449 63.1237 18.4834 70.1691 29.8325 71.6905C25.3906 68.327 21.9667 64.5532 20.8633 63.2848Z" fill="#422953"/>
<path d="M12.2941 63.9263C12.8014 55.055 17.8673 53.1341 17.8673 53.1341C17.9462 53.0552 18.0252 52.9793 18.1043 52.9054C17.9926 49.9364 18.1889 47.4454 18.3412 46.0588C18.3748 45.7524 18.482 45.4601 18.6454 45.2029C17.614 45.6686 16.5986 46.1862 15.5892 46.7553C14.4145 47.4177 13.8843 47.8044 12.8875 47.8858C8.35039 48.2568 5.55 50.5119 3.82988 53.3466C5.93207 57.4129 8.82092 61.006 12.2941 63.9263Z" fill="#30144A"/>
<path d="M23.9019 41.8932C23.8646 41.4233 23.3207 41.1832 22.9474 41.4709L18.9858 44.5254C18.5089 44.8931 18.2025 45.4379 18.1368 46.0364C17.9539 47.7024 17.6664 51.3752 18.0755 55.5395C18.1062 55.852 18.3148 56.1186 18.6116 56.221L22.6767 57.6243C23.1733 57.7957 23.373 58.3909 23.08 58.827L20.6481 62.4488C20.4464 62.7492 20.4705 63.1466 20.708 63.4194C21.811 64.6874 25.1108 68.3235 29.4148 71.6321C31.0191 71.8673 32.6591 71.9923 34.3273 71.9983C25.6168 59.1187 24.2084 45.7577 23.9019 41.8932Z" fill="#543E5B"/>
<path d="M23.9019 41.8932C23.8646 41.4233 23.3207 41.1832 22.9475 41.4709L18.9858 44.5254C18.509 44.8931 18.2025 45.4379 18.1369 46.0364C17.9907 47.3667 17.7784 49.9774 17.9069 53.0953C20.2429 50.7856 22.6527 50.6871 24.0842 50.9159C24.4934 50.9813 24.9015 50.9162 25.2617 50.7463C24.3388 46.6579 24.0276 43.4773 23.9019 41.8932Z" fill="#422953"/>
<path d="M39.1008 71.6868C50.4378 70.1577 60.0253 63.1159 65.0757 53.3467C63.3556 50.512 60.5552 48.2569 56.0181 47.886C55.0214 47.8045 54.4911 47.4177 53.3164 46.7555C52.307 46.1862 51.2916 45.6686 50.2602 45.2029C50.4236 45.4601 50.5308 45.7524 50.5644 46.0588C50.7596 47.8369 51.0272 51.4303 50.6256 55.5195C50.6028 55.7519 50.4463 55.9513 50.2269 56.0273L46.1616 57.4304C45.8642 57.5331 45.6362 57.763 45.5362 58.0614C45.4363 58.3595 45.4794 58.6804 45.6548 58.9416L48.0868 62.5634C48.2365 62.7863 48.2181 63.083 48.0425 63.2851C44.9393 66.852 41.8288 69.6137 39.1008 71.6868Z" fill="#543E5B"/>
<path d="M49.9195 44.5254L45.9578 41.4709C45.5846 41.1832 45.0407 41.4233 45.0034 41.8932C44.6968 45.7575 43.2898 59.1185 34.5793 71.9983C36.2473 71.9923 37.8871 71.8673 39.4912 71.6321C43.7947 68.3235 47.0942 64.6875 48.1973 63.4195C48.4346 63.1466 48.4588 62.7492 48.257 62.4489L45.8252 58.8272C45.5323 58.3911 45.732 57.7957 46.2285 57.6244L50.2937 56.2211C50.5904 56.1187 50.7991 55.852 50.8298 55.5396C51.2388 51.3753 50.9514 47.7025 50.7685 46.0365C50.7028 45.4379 50.3964 44.8931 49.9195 44.5254Z" fill="#665364"/>
<path d="M46.435 18.3917C45.9983 17.252 45.3212 16.7802 45.4218 15.3895C45.7838 10.3943 43.966 8.80619 42.8504 8.30416C40.6628 7.31993 38.0048 7.84432 36.16 8.45758C35.0592 8.82377 33.8465 8.82377 32.7457 8.45758C30.901 7.84432 28.2433 7.31979 26.0553 8.30416C24.9375 8.80704 23.1173 10.3988 23.4851 15.4065C23.5854 16.7691 22.9184 17.2407 22.4839 18.3576C22.0471 19.48 21.9056 20.7255 22.0751 21.9595L22.6886 26.4236C22.6886 33.7978 27.1501 38.0584 29.0683 39.5477C32.2151 41.9916 36.6677 42.0093 39.8372 39.5477C41.7555 38.0582 46.2169 33.7976 46.2162 26.4331L46.8303 21.9606C46.9984 20.739 46.8616 19.5048 46.435 18.3917Z" fill="#F9BA8F"/>
<path d="M35.537 39.5476C33.6188 38.0583 29.1573 33.7978 29.1573 26.4236L28.5438 21.9594C28.3743 20.7255 28.5158 19.48 28.9526 18.3575C29.3871 17.2407 30.0541 16.769 29.9538 15.4065C29.597 10.551 31.2973 8.9071 32.4201 8.35318C30.5973 7.78914 28.1178 7.37626 26.0553 8.3041C24.9374 8.80698 23.1172 10.3987 23.4851 15.4065C23.5853 16.769 22.9184 17.2407 22.4838 18.3575C22.047 19.48 21.9057 20.7255 22.075 21.9594L22.6887 26.4236C22.6887 33.7978 27.1502 38.0583 29.0684 39.5476C31.5524 41.4769 34.8498 41.8928 37.6879 40.7721C36.9288 40.4728 36.2034 40.0653 35.537 39.5476Z" fill="#FCAD6D"/>
<path d="M57.9321 62.7575C57.4954 62.2443 57.035 61.7855 56.5835 61.3837C55.4273 60.3552 53.5962 61.1929 53.5962 62.7403V66.1938C55.1335 65.1644 56.5832 64.0142 57.9321 62.7575Z" fill="#422953"/>
<path d="M68.9056 37.5473C68.9056 26.433 63.6415 16.5498 55.4719 10.25C56.4973 13.7346 56.9674 18.6083 54.6412 24.0295C51.0694 32.3537 49.0726 37.6578 55.7641 40.1083C60.5095 41.8462 65.213 42.6939 67.9991 45.4263C68.5917 42.896 68.9056 40.2584 68.9056 37.5473Z" fill="#81C66D"/>
<path d="M0 37.5473C0 26.433 5.26428 16.5498 13.4337 10.25C12.4083 13.7346 11.9382 18.6083 14.2644 24.0295C17.8363 32.3537 19.833 37.6578 13.1415 40.1083C8.39613 41.8462 3.69252 42.6939 0.906325 45.4262C0.313874 42.8959 0 40.2584 0 37.5473Z" fill="#81C66D"/>
</svg>
