<svg width="24" height="24" viewBox="0 0 24 24" fill="none" xmlns="http://www.w3.org/2000/svg">
<path d="M12.0034 1C5.92683 1 1 5.94119 1 12C1 18.0781 5.94642 23 12.0034 23C18.082 23 23.0034 18.0807 23.0034 12C23.0034 5.92075 18.0831 1 12.0034 1ZM12.0034 18.8634C12.0033 18.8634 12.0033 18.8635 12.0032 18.8635C12.0031 18.8635 12.0031 18.8634 12.003 18.8634C8.20958 18.8634 5.13734 15.795 5.13734 12C5.13734 8.20603 8.20837 5.13659 12.0034 5.13659C15.7961 5.13698 18.8664 8.20646 18.8664 12C18.8664 15.7928 15.7968 18.863 12.0034 18.8634ZM17.2638 7.0126C17.3028 6.97357 19.8033 4.47308 19.6439 4.63256C21.5183 6.57461 22.5681 9.1085 22.6156 11.8071H19.2497C19.2029 10.0073 18.5036 8.31838 17.2638 7.0126ZM16.9909 6.73967C15.6851 5.49986 13.9961 4.80007 12.1963 4.75315V1.38758C14.8949 1.43544 17.4288 2.48494 19.371 4.35954L16.9909 6.73967ZM11.8104 1.38758L11.8101 4.75315C10.0099 4.79988 8.32052 5.49911 7.01477 6.73816L4.63803 4.3618C6.50565 2.56163 9.02936 1.43732 11.8104 1.38758ZM4.36519 4.63445L6.74156 7.011C5.50099 8.31694 4.80082 10.0065 4.75409 11.8071H1.38777C1.43751 9.02521 2.56314 6.5017 4.36519 4.63445ZM1.38777 12.1929H4.75409C4.80082 13.9935 5.50099 15.6831 6.74156 16.989L4.36519 19.3656C2.56314 17.4983 1.43751 14.9748 1.38777 12.1929ZM7.01477 17.2618C8.32052 18.5009 10.0103 19.2003 11.8104 19.2468V22.6124C9.02936 22.5627 6.50565 21.4384 4.63803 19.6382L7.01477 17.2618ZM12.1963 22.6124V19.2468C13.9961 19.1999 15.6851 18.5001 16.9909 17.2603L19.371 19.6405C17.4288 21.5151 14.8949 22.5646 12.1963 22.6124ZM19.6439 19.3674C19.6048 19.3284 17.1043 16.8279 17.2638 16.9874C18.5036 15.6816 19.2029 13.9927 19.2497 12.1929H22.6156C22.5681 14.8919 21.5183 17.4258 19.6439 19.3674Z" fill="#848B96"/>
<path d="M7.35896 4.73184C7.45242 4.6804 7.48634 4.56302 7.43471 4.46975C7.2187 4.07759 7.58678 3.62075 8.01542 3.74358C8.1443 3.78088 8.25095 3.86643 8.31614 3.98438L8.73745 4.74861C8.85919 4.97049 9.19841 4.78522 9.0751 4.56245C8.75236 3.90677 8.51763 3.73834 8.61121 3.41554C8.73552 2.9861 9.32102 2.92309 9.5356 3.31266C9.58685 3.4063 9.7048 3.43947 9.79751 3.38859C9.89096 3.33715 9.92488 3.21977 9.87325 3.1265C9.47067 2.39549 8.3601 2.57192 8.22151 3.41233C7.43165 3.07766 6.69806 3.93225 7.09706 4.65591C7.14876 4.75013 7.26664 4.78274 7.35896 4.73184Z" fill="#848B96"/>
<path d="M15.1447 19.693C14.9022 19.5904 14.6179 19.5921 14.3696 19.7287C13.7067 20.0939 13.8644 21.0359 14.1891 21.0359C14.3343 21.0359 14.4296 20.8793 14.358 20.7499C14.2242 20.507 14.3131 20.2005 14.5558 20.0667C14.7989 19.9329 15.1052 20.0215 15.2394 20.2645L15.6603 21.029C15.712 21.1232 15.8299 21.1558 15.9222 21.1049C16.0157 21.0534 16.0496 20.9361 15.998 20.8428C15.6755 20.187 15.4409 20.0185 15.5345 19.6957C15.6582 19.2684 16.2423 19.2006 16.4588 19.593C16.5101 19.6865 16.628 19.72 16.7208 19.6689C16.8142 19.6175 16.8481 19.5001 16.7965 19.4068C16.3936 18.6746 15.2826 18.8535 15.1447 19.693Z" fill="#848B96"/>
<path d="M20.6865 8.84458C20.8189 9.08572 20.7336 9.39298 20.4883 9.52779C20.2651 9.65064 20.4514 9.9888 20.6744 9.86582C21.3981 9.46729 21.2355 8.35351 20.3887 8.21361C20.7204 7.4289 19.8761 6.68747 19.1452 7.08944C19.0518 7.14088 19.0178 7.25827 19.0695 7.35154C19.1207 7.44518 19.2387 7.47834 19.3314 7.42747C19.5744 7.29426 19.8812 7.38225 20.015 7.62531C20.1487 7.8687 20.0613 8.17392 19.8168 8.30871L19.0525 8.72964C18.9591 8.78108 18.9251 8.89847 18.9768 8.99174C19.0284 9.08557 19.1464 9.11873 19.2387 9.06767L20.0029 8.64674C20.2456 8.51258 20.5527 8.60133 20.6865 8.84458Z" fill="#848B96"/>
<path d="M4.11004 15.1395C4.2262 14.8657 4.20074 14.5943 4.07381 14.3643C3.66825 13.6279 2.58782 13.9103 2.79067 14.2767C2.84192 14.3704 2.96025 14.4037 3.05257 14.3527C3.44666 14.1361 3.90228 14.5064 3.77875 14.9332C3.68545 15.2555 3.39963 15.2714 2.77371 15.6548C2.68025 15.7063 2.64634 15.8237 2.69797 15.9169C2.74959 16.0108 2.86754 16.0439 2.95987 15.9929L3.7241 15.5717C3.96679 15.4382 4.27392 15.5267 4.40769 15.7698C4.54181 16.0141 4.4516 16.3199 4.20948 16.453C4.11602 16.5044 4.0821 16.6218 4.13373 16.7151C4.18543 16.8093 4.30331 16.8419 4.39564 16.791C4.60365 16.6763 4.75477 16.4875 4.82071 16.2591C4.96608 15.7566 4.65002 15.2287 4.11004 15.1395Z" fill="#848B96"/>
<path d="M13.5394 3.58772C13.6385 3.62936 13.7508 3.58395 13.7926 3.48579C13.9427 3.13258 14.4493 3.13845 14.5923 3.49464C14.6776 3.70676 14.5729 3.8043 14.5726 3.90067C14.5721 4.0507 14.7421 4.15508 14.8788 4.05378C14.9217 4.02207 14.9173 4.01613 14.9431 3.97738C14.9432 3.97726 14.9432 3.97714 14.9432 3.97702C15.0372 3.75787 15.2903 3.65595 15.5107 3.74939C15.7302 3.84288 15.8335 4.09554 15.7386 4.31691C15.6843 4.44452 15.7784 4.58591 15.9161 4.58579H15.9162C15.9562 4.58573 15.9991 4.56749 16.0292 4.54528C16.1396 4.46374 16.1032 4.328 16.3303 4.23683C16.6778 4.09523 17.0433 4.448 16.8891 4.8085C16.8348 4.93586 16.9288 5.07719 17.0666 5.07719C17.3919 5.07719 17.4724 4.16708 16.8126 3.88599C16.6049 3.79657 16.3641 3.78896 16.1213 3.91244C15.9682 3.40463 15.4178 3.19439 14.971 3.42165C14.7463 2.67471 13.732 2.64458 13.4376 3.33467C13.3958 3.43265 13.4414 3.54589 13.5394 3.58772Z" fill="#848B96"/>
<path d="M9.15383 20.2826C9.00494 19.7892 8.46403 19.5578 8.00397 19.7918C7.78126 19.0521 6.76848 19.0081 6.47061 19.7044C6.42878 19.8024 6.47437 19.9157 6.57235 19.9577C6.66996 19.9995 6.78376 19.9539 6.82559 19.8559C6.91942 19.6368 7.17266 19.5341 7.39349 19.6279C7.61128 19.7207 7.71648 19.9728 7.6211 20.1955C7.56678 20.3231 7.66063 20.4645 7.7986 20.4643H7.79862C7.88511 20.4642 7.93477 20.4093 7.97609 20.3473C7.97613 20.3472 7.97616 20.3471 7.97621 20.347C8.06973 20.128 8.32398 20.0254 8.54399 20.1193C8.76331 20.213 8.86543 20.4677 8.77198 20.6871C8.70112 20.8533 8.87781 21.0218 9.0433 20.928C9.0765 20.9094 9.11063 20.8771 9.12696 20.8386C9.21989 20.6194 9.4726 20.5163 9.69448 20.6107C9.91381 20.7042 10.0159 20.959 9.92247 21.1786C9.88064 21.2766 9.92624 21.3899 10.0242 21.4317C10.1223 21.4733 10.2356 21.4281 10.2775 21.3298C10.5736 20.6342 9.84214 19.9318 9.15383 20.2826Z" fill="#848B96"/>
<path d="M5.11059 8.48767C5.19274 8.42003 5.20442 8.29831 5.13659 8.21615C5.06838 8.13344 4.94704 8.12251 4.86489 8.18996C4.80902 8.23601 4.76112 8.28592 4.71031 8.33451L3.43091 7.67937C3.43972 7.60546 3.45256 7.53367 3.45324 7.45607C3.45437 7.34942 3.36883 7.26237 3.26218 7.26124C3.13707 7.2603 3.06849 7.34565 3.06736 7.4523C3.06163 7.98759 2.81738 8.39712 2.40411 8.7377C2.32196 8.80535 2.31028 8.92707 2.37811 9.00922C2.44513 9.09084 2.56625 9.10374 2.64982 9.03541C2.70566 8.98939 2.75356 8.93943 2.80432 8.89084L4.07722 9.54278C4.06869 9.61313 4.06276 9.68692 4.06146 9.76818C4.05996 9.87463 4.14474 9.96244 4.25139 9.96413H4.25441C4.35954 9.96413 4.44546 9.87972 4.44735 9.7742C4.44923 9.65946 4.45903 9.56185 4.479 9.4716C4.55741 9.06569 4.79277 8.74961 5.11059 8.48767ZM3.35074 8.07164L4.44094 8.62993C4.28161 8.84608 4.227 8.99975 4.16472 9.1543L3.07338 8.59526C3.19139 8.43511 3.28062 8.25039 3.35074 8.07164Z" fill="#848B96"/>
<path d="M18.9002 15.3815C18.8181 15.4491 18.8064 15.5708 18.8742 15.653C18.9412 15.7346 19.0623 15.7475 19.1459 15.6792C19.2018 15.6331 19.2497 15.5832 19.3004 15.5346L20.5733 16.1866C20.5648 16.2569 20.5589 16.3307 20.5576 16.4119C20.556 16.5184 20.6408 16.6062 20.7475 16.6079H20.7505C20.8556 16.6079 20.9416 16.5235 20.9434 16.418C20.9523 15.8779 21.1882 15.4764 21.6067 15.1314C21.6888 15.0638 21.7005 14.9421 21.6327 14.8599C21.5645 14.7772 21.4431 14.7663 21.361 14.8337C21.3051 14.8797 21.2573 14.9297 21.2065 14.9783L19.927 14.3231C19.9358 14.2492 19.9487 14.1775 19.9493 14.0998C19.9505 13.9932 19.8649 13.9061 19.7583 13.905C19.6667 13.8999 19.5646 13.9894 19.5634 14.0961C19.5592 14.4915 19.4269 14.844 19.1266 15.1703C19.0582 15.2429 18.9824 15.3137 18.9002 15.3815ZM20.6608 15.7981L19.5695 15.239C19.7745 14.9599 19.8266 14.756 19.8468 14.7154L20.937 15.2739C20.7678 15.504 20.6971 15.7044 20.6608 15.7981Z" fill="#848B96"/>
<path d="M14.8036 9.76632C14.4056 9.71997 14.0212 9.90198 13.8064 10.2428C13.7434 10.3427 13.6839 10.451 13.6267 10.5649C13.628 9.96515 13.6068 9.41996 13.543 8.96742C13.4793 8.51332 13.162 8.16192 12.7151 8.05018C12.2682 7.93826 11.8231 8.09917 11.5533 8.46961C11.4605 8.59696 11.3694 8.7406 11.2785 8.90079C11.1845 8.50727 10.8907 8.20339 10.4853 8.09578C10.0463 7.97821 9.60655 8.12781 9.33635 8.48299C9.21178 8.64632 9.08903 8.83411 8.96867 9.04366C8.87319 8.39627 8.52669 7.89511 8.2454 7.55388C8.17757 7.47098 8.05585 7.45986 7.97369 7.52769C7.89154 7.59534 7.87986 7.71706 7.94769 7.79921C8.44399 8.40159 8.64749 8.93124 8.60716 9.52966V14.949C8.60716 15.0557 8.69346 15.142 8.80011 15.142C8.90675 15.142 8.99305 15.0557 8.99305 14.949L8.9927 9.84256C9.20206 9.38799 9.42088 9.00863 9.6431 8.71663C9.85112 8.44342 10.1624 8.40894 10.3862 8.46867C10.6138 8.52915 10.8735 8.71795 10.9195 9.06653C11.1092 10.4966 10.8905 12.864 10.8222 15.0406C10.8192 15.1472 10.9029 15.2362 11.0092 15.2396H11.0152C11.1192 15.2396 11.2047 15.157 11.2081 15.0527C11.265 13.2076 11.4432 11.0773 11.3544 9.6019C11.5268 9.22918 11.6944 8.93164 11.8653 8.69684C12.0745 8.4095 12.3925 8.36692 12.6217 8.42458C12.8496 8.48167 13.1112 8.66839 13.1609 9.0213C13.3622 10.4506 13.1371 12.8528 13.0705 15.0306C13.0683 15.0559 13.0483 15.3424 13.1284 15.7332C12.5761 16.035 11.9863 16.2297 11.4127 16.3784C11.3095 16.4051 11.2473 16.5103 11.2741 16.6135C11.3015 16.719 11.4098 16.7784 11.5092 16.7518C12.0648 16.6078 12.6601 16.4125 13.2322 16.1096C13.3709 16.5119 13.6225 16.9626 14.0823 17.345C14.163 17.4125 14.2845 17.4028 14.354 17.3201C14.4218 17.2381 14.4109 17.1164 14.3287 17.0484C13.9101 16.7001 13.6904 16.278 13.5758 15.9119C14.5085 15.3288 15.3399 14.4082 15.7724 12.8617C15.968 12.0336 15.9341 11.2503 15.6684 10.4669C15.5377 10.0823 15.2064 9.8138 14.8036 9.76632ZM15.399 12.7654C15.0154 14.1362 14.3099 14.9747 13.4853 15.5199C13.4431 15.2485 13.455 15.061 13.4556 15.0527C13.4886 13.9815 13.5614 12.8301 13.602 11.7236C13.7495 11.203 13.9279 10.7736 14.1328 10.4486C14.27 10.2315 14.5059 10.1194 14.7583 10.1496C15.0157 10.1799 15.2192 10.345 15.3029 10.5908C15.5444 11.3036 15.5753 12.0174 15.399 12.7654Z" fill="#848B96"/>
</svg>
