<svg width="24" height="24" viewBox="0 0 24 24" fill="none" xmlns="http://www.w3.org/2000/svg">
<path d="M20.4375 11.1187H12.8813V5.225H18.875C19.3187 5.225 19.6539 5.1348 19.9033 4.96108C20.1536 4.78663 20.3057 4.53605 20.3979 4.23825C20.4896 3.94228 20.5237 3.59473 20.5356 3.2184C20.5438 2.96239 20.5417 2.68797 20.5395 2.40395C20.5385 2.2711 20.5375 2.13615 20.5375 2H20.4375H20.3375C20.3375 2.80633 19.6813 3.4625 18.875 3.4625H11.2188H11.1187V3.5625V11.1187H5.225V5.125C5.225 4.68134 5.1348 4.34606 4.96108 4.09675C4.78663 3.84639 4.53605 3.69427 4.23825 3.60205C3.94228 3.5104 3.59473 3.47632 3.2184 3.46438C2.9624 3.45625 2.68797 3.45833 2.40395 3.46047C2.2711 3.46148 2.13615 3.4625 2 3.4625V3.5625V3.6625C2.80633 3.6625 3.4625 4.31867 3.4625 5.125V12.7812V12.8813H3.5625H11.1187V18.775H5.125C4.68134 18.775 4.34606 18.8652 4.09675 19.0389C3.84639 19.2134 3.69427 19.464 3.60205 19.7617C3.5104 20.0577 3.47632 20.4053 3.46438 20.7816C3.45625 21.0376 3.45833 21.312 3.46047 21.5961C3.46148 21.7289 3.4625 21.8639 3.4625 22H3.5625H3.6625C3.6625 21.1937 4.31867 20.5375 5.125 20.5375H12.7812H12.8813V20.4375V12.8813H18.775V18.875C18.775 19.3187 18.8652 19.6539 19.0389 19.9033C19.2134 20.1536 19.464 20.3057 19.7617 20.3979C20.0577 20.4896 20.4053 20.5237 20.7816 20.5356C21.0376 20.5438 21.312 20.5417 21.5961 20.5395C21.7289 20.5385 21.8639 20.5375 22 20.5375V20.4375V20.3375C21.1937 20.3375 20.5375 19.6813 20.5375 18.875V11.2188V11.1187H20.4375Z" fill="#E55039" stroke="#E55039" stroke-width="0.2"/>
<path d="M16.5312 8.35C17.018 8.35 17.4125 7.95545 17.4125 7.46875C17.4125 6.98205 17.018 6.5875 16.5312 6.5875C16.0445 6.5875 15.65 6.98205 15.65 7.46875C15.65 7.95545 16.0445 8.35 16.5312 8.35Z" fill="#E55039" stroke="#E55039" stroke-width="0.2"/>
<path d="M16.5312 17.4125C17.018 17.4125 17.4125 17.018 17.4125 16.5312C17.4125 16.0445 17.018 15.65 16.5312 15.65C16.0445 15.65 15.65 16.0445 15.65 16.5312C15.65 17.018 16.0445 17.4125 16.5312 17.4125Z" fill="#E55039" stroke="#E55039" stroke-width="0.2"/>
<path d="M7.46875 8.35C7.95545 8.35 8.35 7.95545 8.35 7.46875C8.35 6.98205 7.95545 6.5875 7.46875 6.5875C6.98205 6.5875 6.5875 6.98205 6.5875 7.46875C6.5875 7.95545 6.98205 8.35 7.46875 8.35Z" fill="#E55039" stroke="#E55039" stroke-width="0.2"/>
<path d="M7.46875 17.4125C7.95545 17.4125 8.35 17.018 8.35 16.5312C8.35 16.0445 7.95545 15.65 7.46875 15.65C6.98205 15.65 6.5875 16.0445 6.5875 16.5312C6.5875 17.018 6.98205 17.4125 7.46875 17.4125Z" fill="#E55039" stroke="#E55039" stroke-width="0.2"/>
</svg>
