<svg width="129" height="96" viewBox="0 0 129 96" fill="none" xmlns="http://www.w3.org/2000/svg">
<path fill-rule="evenodd" clip-rule="evenodd" d="M7.45307 64.5469C4.27176 64.6099 1.63418 62.0885 1.56669 59.1994C1.49728 56.3085 4.02112 54.1443 7.20242 54.0813H115.893C119.076 54.0183 121.712 56.3103 121.781 59.1994C121.851 62.0903 119.325 64.4839 116.144 64.5469H7.45307Z" fill="#F6F6F6"/>
<path fill-rule="evenodd" clip-rule="evenodd" d="M5.8142 82.8625C3.51842 82.9255 1.615 80.4041 1.56631 77.515C1.51622 74.6241 3.33754 72.4599 5.63332 72.3968H84.0698C86.367 72.3338 88.269 74.6258 88.3191 77.515C88.3692 80.4058 86.5465 82.7994 84.2507 82.8625H5.8142Z" fill="#F6F6F6"/>
<path fill-rule="evenodd" clip-rule="evenodd" d="M15.167 69.2909C15.1253 67.3151 13.6215 64.4016 11.5578 63.8073C12.1231 63.6198 12.7319 63.8203 13.3732 63.8073H56.0637C59.0134 63.7423 61.4467 65.733 61.501 68.2565C61.5554 70.782 59.2072 72.8822 56.2576 72.9472H13.5671C12.9275 72.962 12.3133 73.1106 11.739 72.9472C13.7773 72.262 15.2086 70.2305 15.167 68.2565" fill="#F6F6F6"/>
<path fill-rule="evenodd" clip-rule="evenodd" d="M77.7279 69.2909C77.7696 67.3151 79.2734 64.4016 81.3371 63.8073C80.7718 63.6198 80.163 63.8203 79.5216 63.8073H36.8311C33.8815 63.7423 31.4482 65.733 31.3938 68.2565C31.3395 70.782 33.6876 72.8822 36.6373 72.9472H79.3277C79.9673 72.962 80.5815 73.1106 81.1559 72.9472C79.1176 72.262 77.6862 70.2305 77.7279 68.2565" fill="#F6F6F6"/>
<path fill-rule="evenodd" clip-rule="evenodd" d="M128.632 76.1886H125.213V72.71H124.561V76.1886H121.14V76.7698H124.561V80.2789H125.213V76.7698H128.632V76.1886Z" fill="#101425"/>
<path fill-rule="evenodd" clip-rule="evenodd" d="M113.419 6.5091H110.001V3.03049H109.349V6.5091H105.928V7.09022H109.349V10.5994H110.001V7.09022H113.419V6.5091Z" fill="#101425"/>
<path fill-rule="evenodd" clip-rule="evenodd" d="M116.526 64.087H113.108V60.6084H112.456V64.087H109.035V64.6681H112.456V68.1773H113.108V64.6681H116.526V64.087Z" fill="#101425"/>
<path fill-rule="evenodd" clip-rule="evenodd" d="M128.252 65.1756C128.252 66.5683 127.133 67.6986 125.755 67.6986C124.377 67.6986 123.258 66.5683 123.258 65.1756C123.258 63.7829 124.377 62.6526 125.755 62.6526C127.133 62.6526 128.252 63.7829 128.252 65.1756Z" fill="white"/>
<path fill-rule="evenodd" clip-rule="evenodd" d="M128.252 65.1756C128.252 66.5683 127.133 67.6986 125.755 67.6986C124.377 67.6986 123.258 66.5683 123.258 65.1756C123.258 63.7829 124.377 62.6526 125.755 62.6526C127.133 62.6526 128.252 63.7829 128.252 65.1756Z" stroke="#101425" stroke-width="0.154256"/>
<path fill-rule="evenodd" clip-rule="evenodd" d="M14.0014 21.4837H10.5827V18.0051H9.92854V21.4837H6.50981V22.0648H9.92854V25.574H10.5827V22.0648H14.0014V21.4837Z" fill="#101425"/>
<path fill-rule="evenodd" clip-rule="evenodd" d="M35.3407 93.3996C35.3407 94.7923 34.2236 95.9226 32.8435 95.9226C31.4633 95.9226 30.3463 94.7923 30.3463 93.3996C30.3463 92.0069 31.4633 90.8766 32.8435 90.8766C34.2236 90.8766 35.3407 92.0069 35.3407 93.3996Z" fill="white"/>
<path fill-rule="evenodd" clip-rule="evenodd" d="M35.3407 93.3996C35.3407 94.7923 34.2236 95.9226 32.8435 95.9226C31.4633 95.9226 30.3463 94.7923 30.3463 93.3996C30.3463 92.0069 31.4633 90.8766 32.8435 90.8766C34.2236 90.8766 35.3407 92.0069 35.3407 93.3996Z" stroke="#101425" stroke-width="0.154256"/>
<path fill-rule="evenodd" clip-rule="evenodd" d="M101.92 2.60045C101.92 3.99313 100.801 5.12343 99.4225 5.12343C98.044 5.12343 96.9253 3.99313 96.9253 2.60045C96.9253 1.20777 98.044 0.0774802 99.4225 0.0774802C100.801 0.0774802 101.92 1.20777 101.92 2.60045Z" fill="white"/>
<path fill-rule="evenodd" clip-rule="evenodd" d="M101.92 2.60045C101.92 3.99313 100.801 5.12343 99.4225 5.12343C98.044 5.12343 96.9253 3.99313 96.9253 2.60045C96.9253 1.20777 98.044 0.0774802 99.4225 0.0774802C100.801 0.0774802 101.92 1.20777 101.92 2.60045Z" stroke="#101425" stroke-width="0.154256"/>
<path fill-rule="evenodd" clip-rule="evenodd" d="M5.0719 14.7012C5.0719 16.0939 3.95481 17.2242 2.57469 17.2242C1.19456 17.2242 0.0774802 16.0939 0.0774802 14.7012C0.0774802 13.3085 1.19456 12.1782 2.57469 12.1782C3.95481 12.1782 5.0719 13.3085 5.0719 14.7012Z" fill="white"/>
<path fill-rule="evenodd" clip-rule="evenodd" d="M5.0719 14.7012C5.0719 16.0939 3.95481 17.2242 2.57469 17.2242C1.19456 17.2242 0.0774802 16.0939 0.0774802 14.7012C0.0774802 13.3085 1.19456 12.1782 2.57469 12.1782C3.95481 12.1782 5.0719 13.3085 5.0719 14.7012Z" stroke="#101425" stroke-width="0.154256"/>
<path fill-rule="evenodd" clip-rule="evenodd" d="M63.7734 17.5559H64.6691C64.9162 17.5559 65.117 17.3551 65.117 17.108C65.117 16.8609 64.9162 16.6602 64.6691 16.6602H63.7734C63.5263 16.6602 63.3256 16.8609 63.3256 17.108C63.3256 17.3551 63.5263 17.5559 63.7734 17.5559ZM58.3996 73.9831H59.2953C59.5424 73.9831 59.7431 73.7823 59.7431 73.5352C59.7431 73.2881 59.5424 73.0874 59.2953 73.0874H58.3996C58.1525 73.0874 57.9518 73.2881 57.9518 73.5352C57.9518 73.7823 58.1525 73.9831 58.3996 73.9831Z" fill="#101425"/>
</svg>
